<svg width="35.52" height="107" viewBox="0 0 35.52 107" xmlns="http://www.w3.org/2000/svg" xmlns:xlink="http://www.w3.org/1999/xlink"><svg viewBox="-6 -6 34.06 34.06" width="34.06" height="34.06"><path d="M21.454 5.513l-.737-.737a2.086 2.086 0 0 0-2.943 0l-6.743 6.742-6.742-6.742a2.087 2.087 0 0 0-2.944 0l-.737.737a2.086 2.086 0 0 0 0 2.945l8.835 8.835a2.073 2.073 0 0 0 1.587.597 2.07 2.07 0 0 0 1.588-.597l8.836-8.835c.81-.809.81-2.135 0-2.945z" fill="#010002"/></svg><svg viewBox="-953 483.5 35.5 35.5" width="35.5" height="35.5" y="35"><path d="M-931.6 512.7c-.6 0-1.5 0-2.7-.1V508c3.7 0 5.6-1.7 5.6-5.2l-.1-2.1h-3.9v-10.9h9.1v11.8c.1 7.4-2.6 11.1-8 11.1zM-947 508v4.6c1.1.1 1.8.1 2.3.1 5.4 0 8.1-3.7 8.1-11v-11.8h-9.1v10.9h3.9l.1 2.1c-.2 3.2-1.9 4.9-5.3 5.1z"/></svg><svg width="35.52" height="35.52" viewBox="-6 -6 35.52 35.52" y="71"><path d="M8.074.333c.594 0 1.504.04 2.729.118v4.571c-3.721 0-5.578 1.721-5.578 5.163l.06 2.077h3.856v10.92H0v-11.81C.001 4.012 2.693.333 8.074.333zm15.442 4.689V.451C22.45.373 21.698.333 21.262.333c-5.381 0-8.07 3.68-8.07 11.04v11.81h9.139v-10.92h-3.857l-.059-2.077c-.002-3.245 1.701-4.966 5.101-5.164z"/></svg></svg>