<svg xmlns="http://www.w3.org/2000/svg" viewBox="0 0 286.439 286.439"><path d="M45.422 135.326a6 6 0 0 0-6 6v22.064a6 6 0 0 0 12 0v-22.064a6 6 0 0 0-6-6zm24.461-14.707a6 6 0 0 0-6 6v36.771a6 6 0 0 0 12 0v-36.771a6 6 0 0 0-6-6zm24.461-21.802a6 6 0 0 0-6 6v58.573a6 6 0 0 0 12 0v-58.573a6 6 0 0 0-6-6zm24.461-14.968a6 6 0 0 0-6 6v73.542a6 6 0 0 0 12 0V89.849a6 6 0 0 0-6-6z"/><path d="M281.728 196.948l-43.009-43.009c4.473-10.953 4.097-23.43-1.11-34.131v-47.09c0-8.808-7.166-15.974-15.974-15.974H15.974C7.166 56.743 0 63.909 0 72.717V187.4c0 8.808 7.166 15.974 15.974 15.974h65.068v14.322H63.764a6 6 0 0 0 0 12h110.081a6 6 0 0 0 0-12h-17.278v-14.322h65.068c5.674 0 10.653-2.982 13.487-7.453l23.816 23.816c3.142 3.142 7.268 4.712 11.395 4.712s8.253-1.571 11.395-4.712h.001c6.281-6.283 6.281-16.507-.001-22.789zm-8.486 14.304a4.12 4.12 0 0 1-5.819 0l-40.719-40.719 5.819-5.819 40.719 40.719a4.118 4.118 0 0 1 0 5.819zm-51.607-19.878H15.974A3.979 3.979 0 0 1 12 187.4V72.717a3.978 3.978 0 0 1 3.974-3.974h205.661a3.979 3.979 0 0 1 3.974 3.974v32.357c-16.362-12.656-40.032-11.492-55.035 3.51-16.276 16.278-16.276 42.763 0 59.04 7.886 7.885 18.369 12.228 29.521 12.228 5.526 0 10.888-1.07 15.852-3.106l9.663 9.662v.993a3.98 3.98 0 0 1-3.975 3.973zM93.042 217.696v-14.322h51.524v14.322H93.042zm128.087-58.558c-5.619 5.619-13.09 8.713-21.035 8.713-7.946 0-15.416-3.094-21.035-8.713-11.598-11.598-11.598-30.47 0-42.069 5.8-5.799 13.417-8.699 21.035-8.699 7.617 0 15.235 2.9 21.034 8.699 11.599 11.598 11.599 30.47.001 42.069z"/><path d="M199.306 151.167c-7.204-.435-12.711-6.648-12.276-13.852a6 6 0 0 0-11.979-.723c-.833 13.809 9.724 25.72 23.532 26.553a6 6 0 0 0 .723-11.978z"/></svg>