<svg xmlns="http://www.w3.org/2000/svg" viewBox="0 0 463.034 463.034"><path d="M401.494 236.593l-27.313-54.627a24.61 24.61 0 0 1-2.11-15.761l5.847-29.234c.097-.484.146-.977.146-1.471 0-74.715-60.785-135.5-135.5-135.5h-32c-83.538 0-151.5 67.962-151.5 151.5 0 41.804 10.038 76.379 19.746 109.816 9.958 34.297 20.254 69.763 20.254 114.184a7.499 7.499 0 0 0 3.589 6.399l128.458 78.502c2.87 1.754 6.046 2.633 9.229 2.633 2.967 0 5.94-.765 8.674-2.298 5.667-3.178 9.05-8.954 9.05-15.451V415.5c0-22.332 18.168-40.5 40.5-40.5h26.556c20.38 0 37.671-15.91 39.364-36.22l5.17-62.038 19.551-7.821a23.562 23.562 0 0 0 13.238-13.468 23.566 23.566 0 0 0-.949-18.86zm-13.073 13.53a8.415 8.415 0 0 1-4.789 4.872l-23.855 9.542a7.499 7.499 0 0 0-4.688 6.34l-5.555 66.657C348.484 350.132 337.76 360 325.118 360h-26.556c-30.603 0-55.5 24.897-55.5 55.5v29.786c0 1.384-.869 2.078-1.387 2.368-.518.291-1.564.67-2.744-.051l-124.898-76.327c-.616-44.551-10.882-79.912-20.819-114.142-9.849-33.922-19.151-65.964-19.151-105.634 0-75.266 61.233-136.5 136.5-136.5h32c66.201 0 120.104 53.659 120.498 119.768l-5.699 28.495a39.69 39.69 0 0 0 3.403 25.411l27.313 54.626a8.413 8.413 0 0 1 .343 6.823z"/><path d="M298.063 113.227V111.5c0-12.958-10.542-23.5-23.5-23.5h-51.178l2.2-5.867a7.5 7.5 0 0 0-14.045-5.267L207.365 88h-52.803c-12.958 0-23.5 10.542-23.5 23.5v64c0 12.958 10.542 23.5 23.5 23.5h59.178l-2.2 5.867a7.5 7.5 0 1 0 14.044 5.266L229.76 199h44.803c12.958 0 23.5-10.542 23.5-23.5v-1.727c9.292-3.137 16-11.936 16-22.273v-16c0-10.337-6.708-19.136-16-22.273zM154.563 184c-4.687 0-8.5-3.813-8.5-8.5v-64c0-4.687 3.813-8.5 8.5-8.5h47.178l-14.2 37.867A7.499 7.499 0 0 0 194.564 151h37.178l-12.375 33h-64.804zm144.5-32.5c0 4.687-3.813 8.5-8.5 8.5a7.5 7.5 0 0 0-7.5 7.5v8c0 4.687-3.813 8.5-8.5 8.5h-39.178l14.2-37.867A7.499 7.499 0 0 0 242.562 136h-37.178l12.375-33h56.803c4.687 0 8.5 3.813 8.5 8.5v8a7.5 7.5 0 0 0 7.5 7.5c4.687 0 8.5 3.813 8.5 8.5v16h.001z"/></svg>