<svg xmlns="http://www.w3.org/2000/svg" viewBox="-941 484.1 35.3 34.4"><path d="M-917.3 518.4c-.2.1-.3.1-.5.2-.7.1-1.1-.2-1.1-.9v-3.9c0-1.5 0-2.9-1.1-4.2.7-.1 1.3-.2 1.8-.3 3.9-.9 5.9-3.3 6.1-7.4.1-2.1-.2-3.9-1.6-5.6-.1-.1-.1-.4-.1-.5.4-1.3.3-2.6-.2-4-.1-.3-.3-.4-.6-.4-1.1.1-2.2.5-3.1 1.1-.9.6-1.7.7-2.8.5-2.3-.5-4.6-.4-6.9.2-.3.1-.6 0-.9-.2-1.1-.6-2.2-1.2-3.4-1.5-1-.2-1-.1-1.3.8-.3 1.2-.4 2.4 0 3.5 0 .2 0 .4-.1.6-2.6 2.9-1.6 8.2.1 10.3 1.3 1.6 3.1 2.3 5.1 2.7.3.1.7.1 1 .2-.3.8-.6 1.5-.9 2.2-.1.1-.2.3-.4.3-1.9.8-3.6.2-4.7-1.6-.6-.9-1.4-1.6-2.5-1.8h-.1c-.3.1-.6.2-.9.2.2.2.3.6.5.7 1 .6 1.6 1.5 2 2.5.6 1.6 1.9 2.3 3.5 2.5.8.1 1.6 0 2.5 0v3.3c0 .6-.6.9-1.4.6-1.9-.7-3.8-1.6-5.3-3-5.6-4.8-7.8-11-5.9-18.2 1.9-7.2 6.7-11.5 14-12.9 10.1-1.9 19.6 5.4 20.6 15.6.9 8.1-3.8 15.6-11.4 18.4zm-9.5-8.9s0 .1 0 0c0 .1 0 .1 0 0 .1.1.1.1 0 0zm-4.5 3.2c.2.1.3.2.5.3.1 0 .2-.1.4-.3-.3-.1-.4-.2-.6-.2-.2 0-.2.1-.3.2zm1.4.3c0 .1.2.2.4.2.1 0 .2-.2.4-.2l-.5-.5c-.2.2-.3.3-.3.5zm1.8-.5c-.1 0-.3.2-.4.3l.3.3.4-.4c-.1 0-.3-.2-.3-.2zm-4.4-.6c.1.2.2.3.4.5.1-.2.2-.3.2-.4l-.4-.4c0 .1-.2.3-.2.3z"/></svg>