<svg id="Layer_1" xmlns="http://www.w3.org/2000/svg" viewBox="-923 464 73 73"><style>.st0{fill:#fff}</style><path d="M-852.8 486.5c-.2-3.6-.7-6.1-1.6-8.2-.1-.2-.1-.4-.2-.5-.8-2-2-3.7-3.7-5.5-1.9-1.9-3.8-3-6-3.9-2.2-.8-4.6-1.4-8.2-1.6-3.6-.2-4.8-.2-14-.2s-10.4 0-14 .2c-3.6.2-6.1.7-8.2 1.6-2.2.9-4.1 2-6 3.9-1.9 1.9-3 3.8-3.9 6-.8 2.2-1.4 4.6-1.6 8.2s-.2 4.8-.2 14 0 10.4.2 14c.2 3.6.7 6.1 1.6 8.2.9 2.2 2 4.1 3.9 6 1.4 1.4 2.8 2.4 4.3 3.1.6.3 1.1.5 1.7.8 2.2.8 4.6 1.4 8.2 1.6 3.6.2 4.8.2 14 .2s10.4 0 14-.2c3.6-.2 6.1-.7 8.2-1.6 2.2-.9 4.1-2 6-3.9s3-3.8 3.9-6c.8-2.2 1.4-4.6 1.6-8.2.2-3.6.2-4.8.2-14s0-10.4-.2-14zm-6.1 27.7c-.2 3.3-.7 5.1-1.2 6.3-.6 1.6-1.3 2.7-2.5 3.9-1.2 1.2-2.3 1.9-3.9 2.5-1.2.5-3 1-6.3 1.2-3.6.2-4.6.2-13.7.2s-10.1 0-13.7-.2c-3.3-.2-5.1-.7-6.3-1.2-1.6-.6-2.7-1.3-3.9-2.5-.8-.8-1.4-1.6-1.9-2.5-.2-.4-.5-.9-.7-1.4-.5-1.2-1-3-1.2-6.3-.2-3.6-.2-4.6-.2-13.7s0-10.1.2-13.7c.2-3.3.7-5.1 1.2-6.3.6-1.6 1.3-2.7 2.5-3.9 1.2-1.2 2.3-1.9 3.9-2.5 1.2-.5 3-1 6.3-1.2 3.6-.2 4.6-.2 13.7-.2s10.1 0 13.7.2c3.3.2 5.1.7 6.3 1.2 1 .4 1.8.8 2.6 1.4.5.3.9.7 1.3 1.2 1.2 1.2 1.9 2.3 2.5 3.9.5 1.2 1 3 1.2 6.3.2 3.6.2 4.6.2 13.7s.1 10-.1 13.6z"/><path d="M-886.5 483.1c-9.6 0-17.4 7.8-17.4 17.4s7.8 17.4 17.4 17.4 17.4-7.8 17.4-17.4-7.8-17.4-17.4-17.4zm0 28.7c-6.2 0-11.3-5.1-11.3-11.3s5.1-11.3 11.3-11.3 11.3 5.1 11.3 11.3-5.1 11.3-11.3 11.3z"/><circle cx="-868.4" cy="482.4" r="4.1"/></svg>