<svg xmlns="http://www.w3.org/2000/svg" viewBox="0 0 231.334 231.334"><path d="M225.334 104.935a6 6 0 0 0-6 6v51.199h-37.128v-24.056a6 6 0 0 0-12 0v42.004a6 6 0 0 0 12 0v-5.947h37.128v45.2H116.478v-55.89a6 6 0 0 0-12 0v22.585H63.281a6 6 0 0 0 0 12h41.196v21.305H12v-30.189a6 6 0 0 0-12 0v36.189a6 6 0 0 0 6 6h219.334a6 6 0 0 0 6-6v-114.4a6 6 0 0 0-6-6zm0-104.935H6a6 6 0 0 0-6 6v131.12a6 6 0 0 0 12 0v-15.453h14.156a6 6 0 0 0 0-12H12V62.28h37.416v27.792a6 6 0 0 0 6 6h21.333a6 6 0 0 0 0-12H61.416V56.28a6 6 0 0 0-6-6H12V12h69.127v25.253a6 6 0 0 0 12 0V12h56.323v27.433h-11.297a6 6 0 0 0 0 12h33.729a6 6 0 0 0 0-12H161.45V12h57.884v50.602a6 6 0 0 0 12 0V6a6 6 0 0 0-6-6z"/><path d="M203.85 79.453h-83.283a6 6 0 0 0-6 6v39.037H77.758a6 6 0 0 0-6 6v25.71H6a6 6 0 0 0 0 12h71.758a6 6 0 0 0 6-6v-25.71h36.81a6 6 0 0 0 6-6V91.453h83.457l-6.174 6.174-4.242 4.242a5.998 5.998 0 0 0 4.242 10.242 5.982 5.982 0 0 0 4.242-1.757l18.325-18.324a9.24 9.24 0 0 0 2.725-6.577c0-2.484-.968-4.82-2.725-6.577l-18.325-18.325a5.999 5.999 0 0 0-8.484 0 5.998 5.998 0 0 0 0 8.485l4.242 4.242 6.174 6.175h-6.175z"/></svg>