<svg xmlns="http://www.w3.org/2000/svg" viewBox="0 0 260.771 260.771"><path d="M172.489 50.811c-22.048-14.561-49.42-16.623-75.095-5.66-16.099 6.874-28.84 19.31-35.877 35.019-7.332 16.367-9.425 33.665-6.054 50.025 3.154 15.306 10.844 29.117 22.237 39.941 10.603 10.073 16.685 24.489 16.685 39.551v15.49c0 4.275 1.916 8.259 5.257 10.93l11.411 9.118c.476.38.749.947.749 1.555 0 7.714 6.276 13.99 13.99 13.99h9.187c7.714 0 13.99-6.276 13.99-13.99 0-.608.272-1.175.747-1.555l11.413-9.119a13.924 13.924 0 0 0 5.256-10.929v-15.494c0-14.952 6.188-29.469 16.979-39.829 15.166-14.561 23.518-34.153 23.518-55.168 0-25.774-12.858-49.654-34.393-63.875zm-35.52 195.969c0 1.098-.893 1.99-1.99 1.99h-9.187a1.993 1.993 0 0 1-1.99-1.99c0-4.275-1.916-8.259-5.257-10.93l-11.411-9.118a1.98 1.98 0 0 1-.749-1.555v-9.679h48v9.679c0 .608-.273 1.175-.748 1.555l-11.413 9.119a13.922 13.922 0 0 0-5.255 10.929zm17.719-43.281h-48.599c-1.472-16.059-8.615-31.129-20.123-42.063-20.641-19.609-25.813-48.868-13.498-76.36 5.799-12.945 16.325-23.205 29.638-28.889 9.354-3.994 18.951-5.974 28.33-5.974 12.582 0 24.77 3.564 35.44 10.611 18.163 11.994 29.006 32.129 29.006 53.863 0 17.717-7.042 34.235-19.829 46.512-11.639 11.175-18.867 26.327-20.365 42.3zM130.385 29.333a6 6 0 0 0 6-6V6a6 6 0 0 0-12 0v17.333a6 6 0 0 0 6 6zm72.611 4.258L190.74 45.848a6 6 0 1 0 8.486 8.485l12.256-12.257a6 6 0 1 0-8.486-8.485zm36.077 75.097H221.74a6 6 0 0 0 0 12h17.333a6 6 0 0 0 0-12zm-39.848 66.354a6 6 0 0 0-8.485 8.485l12.256 12.256c1.171 1.171 2.707 1.757 4.243 1.757s3.071-.586 4.243-1.757a6 6 0 0 0 0-8.485l-12.257-12.256zm-137.68 0l-12.256 12.256a6 6 0 1 0 8.486 8.485l12.256-12.256a6 6 0 1 0-8.486-8.485zm-22.514-66.354H21.698a6 6 0 0 0 0 12h17.333a6 6 0 0 0 0-12zm22.514-54.355a5.984 5.984 0 0 0 4.243 1.757 6 6 0 0 0 4.243-10.242L57.774 33.591a6 6 0 0 0-8.485 8.485l12.256 12.257z"/><path d="M129.774 74.409c-5.523.338-9.726 5.088-9.389 10.611l4 65.449a6.011 6.011 0 0 0 12 0l4-65.449c.021-.384.024-.83 0-1.222-.337-5.522-5.088-9.726-10.611-9.389z"/><circle cx="130.385" cy="175.187" r="7"/></svg>