<svg xmlns="http://www.w3.org/2000/svg" viewBox="0 0 239.884 239.884"><path d="M229.435 15.326C229.435 6.875 222.56 0 214.109 0H45.76c-8.45 0-15.325 6.875-15.325 15.326 0 7.08 4.833 13.037 11.367 14.789v118.553l-29.099 28.279-.15.15a7.441 7.441 0 0 0 10.672 10.372l22.878-23.542a5.99 5.99 0 0 0 1.698.248H97.24l-15.169 63.709h-7.805a6 6 0 0 0 0 12H95.6a6 6 0 0 0 0-12h-1.194l15.169-63.709h40.715l15.169 63.709h-1.194a6 6 0 0 0 0 12h21.334a6 6 0 0 0 0-12h-7.805l-15.169-63.709h49.438a6 6 0 0 0 6-6V30.114c6.539-1.751 11.372-7.708 11.372-14.788zM93.49 115.167c2.25-2.32 2.267-6.031 0-8.364a6 6 0 0 0-8.485-.121l-31.202 30.323V30.651h152.265v121.523H57.525l35.965-37.007zm120.619-96.516H45.76c-1.834 0-3.325-1.492-3.325-3.326S43.926 12 45.76 12h168.349c1.834 0 3.326 1.492 3.326 3.326s-1.492 3.325-3.326 3.325z"/><path d="M145.102 121.146h-9.167V91.413a6 6 0 0 0-12 0v29.733h-1.863a6 6 0 0 0 0 12h60.548a6 6 0 0 0 0-12h-4.352V68a6 6 0 0 0-12 0v53.146h-9.166V60a6 6 0 0 0-12 0v61.146z"/></svg>