<svg xmlns="http://www.w3.org/2000/svg" viewBox="0 0 463.034 463.034"><path d="M401.494 236.593l-27.313-54.627a24.61 24.61 0 0 1-2.11-15.761l5.847-29.234c.097-.484.146-.977.146-1.471 0-74.715-60.785-135.5-135.5-135.5h-32c-83.538 0-151.5 67.962-151.5 151.5 0 41.804 10.038 76.379 19.746 109.816 9.958 34.297 20.254 69.763 20.254 114.184a7.499 7.499 0 0 0 3.589 6.399l128.458 78.502c2.87 1.754 6.046 2.633 9.229 2.633 2.967 0 5.94-.765 8.674-2.298 5.667-3.178 9.05-8.954 9.05-15.451V415.5c0-22.332 18.168-40.5 40.5-40.5h26.556c20.38 0 37.671-15.91 39.364-36.22l5.17-62.038 19.551-7.821a23.562 23.562 0 0 0 13.238-13.468 23.566 23.566 0 0 0-.949-18.86zm-13.073 13.53a8.415 8.415 0 0 1-4.789 4.872l-23.855 9.542a7.499 7.499 0 0 0-4.688 6.34l-5.555 66.657C348.484 350.132 337.76 360 325.118 360h-26.556c-30.603 0-55.5 24.897-55.5 55.5v29.786c0 1.384-.869 2.078-1.387 2.368-.518.291-1.563.67-2.744-.051l-124.898-76.327c-.616-44.551-10.882-79.912-20.819-114.142-9.849-33.922-19.151-65.964-19.151-105.634 0-75.266 61.233-136.5 136.5-136.5h32c66.201 0 120.104 53.659 120.498 119.768l-5.699 28.495a39.69 39.69 0 0 0 3.403 25.411l27.313 54.626a8.413 8.413 0 0 1 .343 6.823z"/><path d="M234.563 143a7.5 7.5 0 0 0 0-15h-9.098a47.258 47.258 0 0 0-8.453-20.343l6.452-6.452a7.5 7.5 0 0 0 0-10.606 7.5 7.5 0 0 0-10.606 0l-6.452 6.452a47.229 47.229 0 0 0-20.343-8.453V79.5a7.5 7.5 0 0 0-15 0v9.098a47.258 47.258 0 0 0-20.343 8.453l-6.452-6.452a7.5 7.5 0 0 0-10.606 0 7.5 7.5 0 0 0 0 10.606l6.452 6.452A47.229 47.229 0 0 0 131.661 128h-9.098a7.5 7.5 0 0 0 0 15h9.098a47.258 47.258 0 0 0 8.453 20.343l-6.452 6.452a7.5 7.5 0 0 0 5.303 12.803 7.474 7.474 0 0 0 5.303-2.197l6.452-6.452a47.229 47.229 0 0 0 20.343 8.453v9.098a7.5 7.5 0 0 0 15 0v-9.098a47.258 47.258 0 0 0 20.343-8.453l6.452 6.452c1.464 1.464 3.384 2.197 5.303 2.197s3.839-.732 5.303-2.197a7.5 7.5 0 0 0 0-10.606l-6.452-6.452A47.229 47.229 0 0 0 225.465 143h9.098zm-56 25c-17.92 0-32.5-14.58-32.5-32.5s14.58-32.5 32.5-32.5 32.5 14.58 32.5 32.5-14.58 32.5-32.5 32.5z"/><path d="M178.563 121c-7.995 0-14.5 6.505-14.5 14.5s6.505 14.5 14.5 14.5 14.5-6.505 14.5-14.5-6.505-14.5-14.5-14.5zm0 15a.5.5 0 1 1 0-1 .5.5 0 0 1 0 1zm128-40h-1.409a31.323 31.323 0 0 0-3.659-8.825l1-1a7.5 7.5 0 0 0 0-10.606 7.5 7.5 0 0 0-10.606 0l-1 1a31.311 31.311 0 0 0-8.825-3.659V71.5a7.5 7.5 0 0 0-15 0v1.409a31.323 31.323 0 0 0-8.825 3.659l-1-1a7.5 7.5 0 0 0-10.606 0 7.5 7.5 0 0 0 0 10.606l1 1a31.311 31.311 0 0 0-3.659 8.825h-1.409a7.5 7.5 0 0 0 0 15h1.409a31.323 31.323 0 0 0 3.659 8.825l-1 1a7.5 7.5 0 0 0 5.303 12.803 7.474 7.474 0 0 0 5.303-2.197l1-1a31.311 31.311 0 0 0 8.825 3.659v1.409a7.5 7.5 0 0 0 15 0v-1.409a31.323 31.323 0 0 0 8.825-3.659l1 1c1.464 1.464 3.384 2.197 5.303 2.197s3.839-.732 5.303-2.197a7.5 7.5 0 0 0 0-10.606l-1-1a31.311 31.311 0 0 0 3.659-8.825h1.409a7.5 7.5 0 0 0 0-14.999zm-32 24c-9.098 0-16.5-7.402-16.5-16.5s7.402-16.5 16.5-16.5 16.5 7.402 16.5 16.5-7.402 16.5-16.5 16.5zm19.28 47.75a7.498 7.498 0 0 0-10.245-2.745l-1.512.873a23.511 23.511 0 0 0-8.022-4.644V159.5a7.5 7.5 0 0 0-15 0v1.734a23.485 23.485 0 0 0-8.022 4.644l-1.512-.873a7.5 7.5 0 0 0-7.5 12.99l1.497.864a23.504 23.504 0 0 0 0 9.282l-1.497.864a7.5 7.5 0 0 0 7.5 12.99l1.512-.873a23.511 23.511 0 0 0 8.022 4.644v1.734a7.5 7.5 0 0 0 15 0v-1.734a23.485 23.485 0 0 0 8.022-4.644l1.512.873a7.499 7.499 0 0 0 10.245-2.745 7.5 7.5 0 0 0-2.745-10.245l-1.497-.864a23.504 23.504 0 0 0 0-9.282l1.497-.864a7.5 7.5 0 0 0 2.745-10.245zm-35.78 15.75c0-4.687 3.813-8.5 8.5-8.5s8.5 3.813 8.5 8.5-3.813 8.5-8.5 8.5-8.5-3.813-8.5-8.5z"/></svg>