<svg xmlns="http://www.w3.org/2000/svg" viewBox="-724 266.4 469.6 469.6"><path d="M-689.1 605.2c0 4.1 3.4 7.5 7.5 7.5l340.4-.1c8.9 0 16.1-7.2 16.1-16.1v-115l36.5-18.3c1.5-.7 2.6-1.9 3.4-3.4 1.9-3.7.4-8.2-3.4-10.1l-36.5-18.3V406c0-8.9-7.2-16.1-16.1-16.1H-673c-8.9 0-16.1 7.2-16.1 16.1v143.9c0 4.1 3.4 7.5 7.5 7.5s7.5-3.4 7.5-7.5V406.2c0-.6.5-1.1 1.1-1.1h331.7c.6 0 1.1.5 1.1 1.1v30c0 2.8 1.6 5.4 4.1 6.7l27.2 13.6-27.2 13.6c-2.5 1.3-4.1 3.9-4.1 6.7v119.6c0 .6-.5 1.1-1.1 1.1l-340.4.1c-4.1.1-7.5 3.5-7.4 7.6z"/></svg>