<svg xmlns="http://www.w3.org/2000/svg" viewBox="0 0 470 470"><path d="M257.567 360.535h-45a7.5 7.5 0 0 0 0 15h45a7.5 7.5 0 0 0 0-15z"/><path d="M469.962 397.284a7.425 7.425 0 0 0-.146-.885c-.015-.067-.034-.132-.051-.198a7.284 7.284 0 0 0-.204-.674c-.025-.07-.049-.139-.076-.208a7.375 7.375 0 0 0-.339-.752c-.009-.016-.014-.034-.023-.051l-41.624-78.35V111.891a7.5 7.5 0 0 0-15 0v198.644h-355V99.464c0-12.407 10.093-22.5 22.5-22.5h297.574a7.5 7.5 0 0 0 0-15H80c-20.678 0-37.5 16.822-37.5 37.5v216.702L.915 394.444c-.047.089-.053.106-.061.123a7.391 7.391 0 0 0-.339.753c-.027.068-.051.137-.075.206a7.324 7.324 0 0 0-.204.676c-.017.066-.036.13-.05.197A7.511 7.511 0 0 0 0 398.035v15c0 20.678 16.822 37.5 37.5 37.5h395c20.678 0 37.5-16.822 37.5-37.5v-15c0-.254-.013-.504-.038-.751zM54.508 325.535h360.983l34.531 65H19.977l34.531-65zm377.992 110h-395c-12.407 0-22.5-10.093-22.5-22.5v-7.5h440v7.5c0 12.407-10.093 22.5-22.5 22.5z"/><path d="M422.5 34.465h21.894L265.391 213.467l-55.411-55.411a7.5 7.5 0 0 0-10.606 0L74.697 282.732A7.5 7.5 0 0 0 80 295.535a7.474 7.474 0 0 0 5.303-2.197l119.373-119.373 55.411 55.411a7.5 7.5 0 0 0 10.606 0L455 45.071v21.894a7.5 7.5 0 0 0 15 0v-40a7.5 7.5 0 0 0-7.5-7.5h-40a7.5 7.5 0 0 0 0 15z"/></svg>