<svg xmlns="http://www.w3.org/2000/svg" viewBox="0 0 295.24 295.24"><path d="M233.335 214.287v-9.524h47.617c7.876 0 14.286-6.41 14.286-14.286v-76.19c0-7.876-6.41-14.286-14.286-14.286H147.619c-7.876 0-14.286 6.41-14.286 14.286v76.19c0 7.876 6.41 14.286 14.286 14.286h47.619v9.524h-80.952v-4.762c0-7.876-6.686-14.286-14.562-14.286h-16.11l-48.928-79.648c2.138-3.081 3.41-6.805 3.41-10.829 0-1.171-.143-2.305-.348-3.419l19.933-36.542c1.838 9.052 6.876 17.138 14.519 22.852l3.11 2.324 11.757-10.452c2.576.933 5.214 1.429 7.895 1.429 13.129 0 23.81-10.681 23.81-23.81 0-1.729-.271-3.467-.676-5.195l11.781-10.471-1.943-3.367c-6.805-11.757-19.438-19.062-32.971-19.062-.895 0-1.776.071-2.657.133l-16.1-16.1-35.386 29.49 6.557 8.743-31.29 44.705C6.99 87.453 0 95.277 0 104.763c0 7.143 3.995 13.305 9.829 16.562l39.381 73.914H33.057c-7.876 0-14.01 6.41-14.01 14.286v4.762H0v28.571h14.286v52.381h9.524v-52.381h9.524v52.381h9.524v-52.381h209.524v52.381h9.524v-52.381h9.524v52.381h9.524v-52.381h14.286v-28.571h-61.905zm-90.478-100a4.77 4.77 0 0 1 4.762-4.762h133.333a4.77 4.77 0 0 1 4.762 4.762v61.905H142.857v-61.905zm52.381 80.952h-47.619a4.77 4.77 0 0 1-4.762-4.762v-4.762h142.857v4.762a4.77 4.77 0 0 1-4.762 4.762h-85.714zm28.572 9.524v9.524h-19.048v-9.524h19.048zM96.243 71.372l12.7-11.29c-1.272 6.067-6.405 10.729-12.7 11.29zm-1.276-42.799c8.857-.001 17.204 4.18 22.581 11.118L74.986 77.525c-5.5-5.352-8.59-12.6-8.59-20.381 0-15.757 12.814-28.571 28.571-28.571zM75.619 15.968l5.662 5.662C71.7 25.334 63.967 32.772 59.929 42.187l-6.062-8.09 21.752-18.129zM53.385 49.329l1.091 1.453-22.057 40.443a19.066 19.066 0 0 0-5.667-3.848l26.633-38.048zM9.524 104.763c0-5.252 4.271-9.524 9.524-9.524 5.252 0 9.524 4.271 9.524 9.524 0 5.252-4.271 9.524-9.524 9.524-5.253 0-9.524-4.271-9.524-9.524zm12.271 18.771a18.709 18.709 0 0 0 5.548-1.705l45.095 73.41H60l-38.205-71.705zm11.262 81.229h66.667c2.624 0 5.038 2.138 5.038 4.762v4.762h-76.19v-4.762h-.001c0-2.624 1.862-4.762 4.486-4.762zm252.657 28.572H9.524v-9.524h276.19v9.524z"/><path d="M138.095 80.953h152.381v9.524H138.095zM204.762.001h-38.095v76.19h38.095V.001zm-9.524 66.667H176.19V47.62h19.048v19.048zm0-28.572H176.19V9.525h19.048v28.571z"/><circle cx="185.714" cy="57.144" r="4.762"/><path d="M247.619.001h-38.095v76.19h38.095V.001zm-28.572 9.524h19.048v28.571h-19.048V9.525zm19.049 57.143h-19.048V47.62h19.048v19.048z"/><circle cx="228.571" cy="57.144" r="4.762"/><path d="M290.476.001h-38.095v76.19h38.095V.001zm-28.572 9.524h19.048v28.571h-19.048V9.525zm19.049 57.143h-19.048V47.62h19.048v19.048z"/><circle cx="271.429" cy="57.144" r="4.762"/></svg>