<svg xmlns="http://www.w3.org/2000/svg" viewBox="0 0 151.1 154"><path d="M617 141.3v-18c0-15.7 1.5-31.4-6.3-45.7-6.7-12.3-18.4-21.5-32-25.1-7.5-2-15.1-1.8-22.8-1.8-3.9 0-7.8-.1-11.7 0-2.4.1-3.8.6-4.4-2-.6-2.4-.1-5.5-.1-8 0-4.7.1-9.4.2-14.1.1-7.2 0-14.3 0-21.5 0-.9.6-5.3 0-6-.4-.4-3.3 0-3.9 0h-11.1c.2 18.4 0 36.8 0 55.3v7.4c0 .9-.5 2.9-.1 3.7.9 1.7 9.2.6 11.1.6 10.4.1 20.9-.3 31.3.1 17.9.8 31.8 13.9 34.2 31.5 1.3 10 .5 20.7.5 30.8v14.8c0 1.5-1.2 8.7-.1 10 1.2 1.5 6.4.1 8 .1 1.9 0 6.2 1.3 7.3-.6.6-.9-.1-2.9-.2-4 0-2.4.1-4.9.1-7.5zM682.3 51.7c-21.2 0-40.9 14-48.2 33.8-7.4 20-.7 42.8 15.6 56.3 9 7.5 20.5 11.7 32.3 11.7 0-3.2 0-6.3.3-9.5.1-.9-.5-5.4-.1-5.7-.7.5-3.6-.6-4.5-.7-2.6-.4-5-.7-7.4-1.6-4.8-1.8-9.2-4.6-12.9-8.2-5.5-5.4-9.1-12.6-10.2-20.2-2.2-15.2 5.7-30.6 19.7-37.2 14.2-6.7 32.1-3.2 42.4 8.7 5.9 6.8 8.1 15.3 8.6 24.2.6 11 .2 22.1.2 33.1v12.9c0 1.5-.5 3.9.5 4.6 1.5.9 6.5 0 8.2 0h6.3v-28.8c0-12.8 1.3-26.7-2.6-39-6.5-20.4-27-34.4-48.2-34.4zM799 51.7c-17.6-.9-30.4 7.9-39.8 20.3-4.8 6.3-8.2 13.7-9.8 21.5-1.9 9.3-1.1 19.2-1.1 28.6 0 9.5.1 31.3.1 31.3h14.5s-.3-7.4-.3-17.4c0-10.7-.2-37.3 4.2-47.4 3.6-8.3 10.3-15.2 18.7-18.7-.4.2-.8.3-1.2.5.4-.2.9-.4 1.4-.6 2.5-1 5-1.8 7.7-2.1 1.2-.1 5.6-.4 5.6-.4s.2-2.7.1-3.9c-.4-3.9-.1-11.7-.1-11.7zM1464 51.7c-17.6-.9-30.4 7.9-39.8 20.3-4.8 6.3-8.2 13.7-9.8 21.5-1.9 9.3-1.1 19.2-1.1 28.6 0 9.5.1 31.3.1 31.3h14.5s-.3-7.4-.3-17.4c0-10.7-.2-37.3 4.2-47.4 3.6-8.3 10.3-15.2 18.7-18.7-.4.2-.8.3-1.2.5.4-.2.9-.4 1.4-.6 2.5-1 5-1.8 7.7-2.1 1.2-.1 5.6-.4 5.6-.4s.2-2.7.1-3.9c-.4-3.9-.1-11.7-.1-11.7zM832.3 114.7V22.3-.5h-8.5c-1 0-6.2-.7-6.9 0-.6.6 0 4.7 0 5.5v148.5h8.5c1 0 6.2.7 6.8 0 .6-.6 0-4.7 0-5.5.1-11.1.1-22.2.1-33.3zM1598.5 148v-33.3-92.4V-.5H1583v154h8.6c1 0 6.2.7 6.9 0 .6-.6 0-4.7 0-5.5zM950.5 111.7c.8-1.1.2-4.7.2-6-.1-5-.6-10-1.7-14.8-2.3-9.5-7.1-18.1-14.1-24.9-13-12.6-32.3-17.7-49.8-12.6-32.9 9.7-47.1 48.7-28.3 77.2 9.3 14.2 25.2 23.3 42.2 23.3v-12.4c0-3.5-.5-2.7-4-3.2-6.1-.9-11.8-2.7-16.7-6.4-9.7-7.1-15.1-19.1-14.6-31 1-25.7 27.1-39.3 50.1-31.5 12.3 4.2 21.5 14.5 21.5 27.9-10.1 0-20.2.2-30.3 0-2.9-.1-5.4-1.4-5.9 2.1-.4 2.6.3 5.3.3 7.9-.1 4-.1 5.6 4.4 5.4 4.2-.2 8.2-.4 12.4-.4h31.7c1.3 0 1.8.4 2.6-.6zM1000.9 51.6h.4-.4z"/><path d="M1058.9 51.4c-14.4-.1-28.8-.1-43.2 0-5.6 0-11.2-.1-16.8.4-10.9 1.1-23.3 3.9-30.3 13-6.9 8.8-6.1 21.6.5 30.4 13.4 17.7 42.6 11.1 61.4 12.3 9.9.6 21.7 5.1 20.5 17.1-1.2 12.2-15.7 14.6-25.6 14.8-14.2.3-28.5-.1-42.7-.1-18.3-.1-36.7-.2-55-.4v5.4c0 2.1-.9 6.6 0 8.6.3.6.2.7.2.7s.1 0 .4.2c.6.3 2.3 0 3 0h28.1c18.7 0 37.5.1 56.2.1 15.2.1 34.5-.6 45.1-13.2 5.7-6.8 7.4-16.4 5.1-24.8-2.4-9-9.3-15.2-17.8-18.6-8.1-3.3-17.1-4.1-25.7-4.5-9.9-.4-20.1.8-29.9-.8-6.7-1.1-13.8-4.5-13.6-12.4.2-6 5.9-9 11-10.5 13-4 27.9-2.7 41.3-2.7 12 .1 23.9.2 35.9.4V60c0-1.2.9-7.4 0-8.3-.9-1.1-6.7-.3-8.1-.3z"/><path d="M1000.5 51.7h.4c-.1-.1-.3-.1-.4 0zM927.9 153.5c-.1 0 0 0 0 0zM997.8 51.9c.3 0 .7-.1 1.2-.1.7-.1 1.1-.1 1.5-.1-.7 0-1.8.1-2.7.2zM997.8 51.9h-.4.4zM997.4 52c-1.5.1-2.4.2 0 0zM1001.3 51.6zM1134.8 50.3zM1133.3 50.7c.6 0 1.1 0 1.5-.1-.3.1-.8.1-1.5.1zM1122.6 51.2zM1133.2 50.7h0zM1134.9 50.6h.3-.3zM1135.2 50.6h0zM1122.7 51.1c0 .1 0 .1 0 0 0 .1 0 .1 0 0zM1135.4 50.6z"/><path d="M1132 50.8h1.2c-.3-.1-.7-.1-1.2 0-.5 0-1 0-1.5.1.5-.1 1-.1 1.5-.1-20.9.9-39.5 15.3-46.5 34.8-7.2 20.2-.2 42.7 16.1 56.3 9 7.5 20.5 12 32.3 12 0-3.6-.2-7.3 0-10.9.1-1.8 1-3.7-.6-4.6-1.6-.8-5.4-.4-7.3-.8-2.9-.7-5.8-1.7-8.4-3.1-9.8-5.1-16.9-14.7-18.8-25.6-4.5-25 18.4-47.6 43.4-41.8 6.7 1.5 12.2 4.9 17.3 9.3 2.1 1.9 2.6 1.1 4.7-.9 2.8-2.6 5.5-5.2 8.3-7.8-10.2-11.2-25.3-17.6-40.5-16.9zM1135.3 50.6s.1 0 0 0c.1 0 0 0 0 0zM1123.2 51.1h-.4.4zM1128.1 50.9h-.5.5z"/><path d="M1127.7 50.9h-1.1c.3.1.7.1 1.1 0zM1128.5 50.9h-.4.4zM1126.5 51h-1.2 1.2zM1125.3 51c-.5 0-.9 0-1.3.1.5 0 .9 0 1.3-.1zM1130.5 50.8zM1124.1 51.1h-.9.9zM1129.3 50.9h-.8.8zM1130.5 50.8c-.4 0-.8 0-1.2.1.4 0 .8-.1 1.2-.1zM1281 111.8c0-10.4-.3-21-4.7-30.6-3.4-7.3-8.6-13.8-15-18.8-13-10.1-30.5-13.4-46.3-8.5-31.3 9.8-46 47.5-28.4 75.4 9.3 14.8 25.9 24.2 43.4 24.2 0-3.2.1-6.3.2-9.5.1-1.6-.8-4.3-.3-5.7-.2.6-10.8-1.9-12.1-2.3-5.2-1.9-9.9-5-13.7-9-5.6-5.8-9-13.5-9.7-21.5-1.5-17.1 9.7-33.2 26.4-37.4 17.2-4.3 36.6 5 42.1 22.3 3.1 9.8 2.1 20.8 2.1 30.9v18.4c0 3.5-1.3 8.5-.2 11.7 1.2 3.6 5.7 2 8.9 2.1 3.5.1 7.3 1.4 7.7-3.1.4-5.5-.3-11.4-.3-16.9-.1-7.1-.1-14.4-.1-21.7zM1363.7 53.8c-1.7-.5-5.6-2.5-17.7-2.8 0 3.4-.1 7.1 0 10.5 0 1.4-.1 5.3-.1 5.3s7.1.7 9.1 1.1c3.3.6 6.4 1.8 9.3 3.4 9.8 5.5 16.3 15.6 17.7 26.7 2.3 18.3-9.6 35.1-27.5 39.2-17.9 4.1-36.9-5.9-41.9-24-3.4-12.4-1.6-26.5-1.6-39.2V30.2v-22c0-1.9-.1-9-.1-9h-16v80.2c0 12.4-1.3 25.6 2.3 37.7 2.8 9.3 8.3 17.8 15.7 24.2 15.6 13.6 38.6 16.4 56.9 6.6 18.1-9.6 29.2-29.6 27.3-50.1-1.8-20.2-14-37.9-33.4-44zM1566 111.8c0-10.4-.3-21-4.8-30.6-3.4-7.4-8.6-13.8-15-18.8-13-10.1-30.6-13.4-46.3-8.5-31.3 9.8-46 47.5-28.3 75.4 9.3 14.8 25.9 24.2 43.4 24.2 0-3.2.1-6.3.1-9.5 0-1.8-.6-4-.4-5.7-.1.3-10.9-1.9-12.1-2.3-5.2-1.9-9.9-5-13.7-9-5.6-5.8-9-13.5-9.7-21.5-1.5-17 9.6-33.1 26.1-37.3 16.8-4.3 35.9 4.3 42 21 3.7 10.1 2.6 21.6 2.6 32.1v17.5c0 3.7-1.3 9-.3 12.6 1.1 3.7 5.8 2 8.8 2.1 3.5.1 7.3 1.4 7.7-3.1.5-5.5-.3-11.4-.3-16.9.2-7.1.2-14.4.2-21.7zM521.6 94.3c-1.1.8-1.6 6-2.2 7.3.1-.2.1-.3.2-.4 0 .1-.1.2-.2.4-1.5 3.6-.5 1.1 0 0-1.2 2.9-2.6 5.7-4.3 8.4-.9 1.5-2.6 5.1-4.3 6-.8.4-1.7.3-2.6.3H461.6c4.2-11.3-16.2-11.3-12.1 0h-30.1c-2.2 0-2.3.3-3.8-1.1-3.8-3.5-6.6-9.9-8.6-14.5-4.3-9.8-5.5-20.7-4.1-31.3 2.7-20.4 14.8-38.1 33.1-47.6 10.1-5.3 21.8-7.2 33.2-6.2 3.1.3 6.1.8 9.1 1.5 1 .2 5.4 2.2 6.3 1.8 1.3-.6 2.8-8.1 3.2-9.5.7-2.1 2.1-3.9.4-5.4-1.2-1-3.8-1.1-5.2-1.5-3.5-.8-7-1.7-10.6-2.1-9.7-1.2-19.6-.5-29 2-19.1 5.1-35.8 17.7-46.1 34.6-11.8 19.5-14.5 43.9-7 65.4 6.6 18.8 20.7 34.4 38.5 43.3 20.9 10.4 45.7 10.8 66.8.7 21-10 36.7-29.1 41.6-52.3h-11.7c-.9.2-3.3-.2-3.9.2zM519.4 101.7z"/><path d="M476.7 71.1c0-.1-.1-.3-.1-.4.1.2.1.3.1.4zM476.8 71.6v-.1-.2.3zM477.1 73.2c0 .1 0 .2.1.3 0-.1 0-.2-.1-.3zM477.2 73.4c0 .1 0 .1 0 0zM476.7 70.7c-.1-.5-.2-.8-.2-.9 0 .1 0 .4.2.9zM476.8 71.3v-.2c-.1.1 0 .2 0 .2zM477 72.5c0 .2.1.3.1.4 0 0-.1-.2-.1-.4zM477.1 73v0zM476.8 71.6c.1.4.1.7.2 1 0-.3-.1-.7-.2-1zM476.5 69.9z"/><path d="M476.8 71.5c3.5 17.6 30.7 12.9 28.1-4.8-1.1-7.7-8.4-13.1-16.1-12.1-7.9 1.1-13.6 9-12 16.9zM465.7 99.4c14 .1 14.1-21.7.1-21.7-13.9 0-14 21.6-.1 21.7zM451.3 104.5c2.8-5.1-4.3-10.1-8.2-5.7-4.8 5.6 4.8 12 8.2 5.7zM443.5 98.4z"/><path d="M443.1 98.9c.2-.3.3-.4.4-.4-.2.1-1.4 1.5-.4.4zM135.6 94.3c-1.1.8-1.6 6-2.2 7.3.1-.2.1-.3.2-.4 0 .1-.1.2-.2.4-1.5 3.6-.5 1.1 0 0-1.2 2.9-2.6 5.7-4.3 8.4-.9 1.5-2.6 5.1-4.3 6-.8.4-1.7.3-2.6.3H75.6c4.2-11.3-16.2-11.3-12.1 0H33.4c-2.2 0-2.3.3-3.8-1.1-3.8-3.5-6.6-9.9-8.6-14.5-4.3-9.8-5.5-20.7-4.1-31.3C19.6 49 31.7 31.3 50 21.8c10-5.2 21.7-7.2 33-6.1 3.1.3 6.1.8 9.1 1.5 1 .2 5.4 2.2 6.3 1.8 1.3-.6 2.8-8.1 3.2-9.5.7-2.1 2.1-3.9.4-5.4-1.2-1-3.8-1.1-5.2-1.5-3.5-.8-7-1.7-10.6-2.1-9.7-1.2-19.6-.5-29 2-19 5.2-35.8 17.8-46 34.7-11.8 19.5-14.5 43.9-7 65.4 6.6 18.8 20.7 34.4 38.5 43.3 20.9 10.4 45.7 10.8 66.8.7 21-10 36.7-29.1 41.6-52.3h-11.7c-.8 0-3.2-.4-3.8 0zM133.4 101.7z"/><path d="M90.7 71.1c0-.1-.1-.3-.1-.4.1.2.1.3.1.4zM90.8 71.6v-.1-.2.3zM91.1 73.2c0 .1 0 .2.1.3 0-.1 0-.2-.1-.3zM91.2 73.4c0 .1 0 .1 0 0zM90.7 70.7c-.1-.5-.2-.8-.2-.9 0 .1 0 .4.2.9zM90.8 71.3v-.2c-.1.1 0 .2 0 .2zM91 72.5c0 .2.1.3.1.4 0 0-.1-.2-.1-.4zM91.1 73v0zM90.8 71.6c.1.4.1.7.2 1 0-.3-.1-.7-.2-1zM90.5 69.9z"/><path d="M90.8 71.5c3.5 17.6 30.7 12.9 28.1-4.8-1.1-7.7-8.4-13.1-16.1-12.1-7.9 1.1-13.6 9-12 16.9zM79.7 99.4c14 .1 14.1-21.7.1-21.7-13.9 0-14 21.6-.1 21.7zM65.3 104.5c2.8-5.1-4.3-10.1-8.2-5.7-4.8 5.6 4.8 12 8.2 5.7zM57.5 98.4z"/><path d="M57.1 98.9c.2-.3.3-.4.4-.4-.2.1-1.4 1.5-.4.4z"/></svg>