<svg height="48" viewBox="0 0 48 48" width="48" xmlns="http://www.w3.org/2000/svg"><path d="M20 28a2 2 0 1 0 .001 4.001A2 2 0 0 0 20 28z"/><path d="M20 26c2.206 0 4 1.794 4 4s-1.794 4-4 4-4-1.794-4-4 1.794-4 4-4m0-2a6 6 0 1 0 0 12 6 6 0 0 0 0-12z"/><path d="M20 20c5.514 0 10 4.486 10 10s-4.486 10-10 10-10-4.486-10-10 4.486-10 10-10m0-2c-6.627 0-12 5.373-12 12s5.373 12 12 12 12-5.373 12-12-5.373-12-12-12z"/><path d="M20 14c8.822 0 16 7.178 16 16s-7.178 16-16 16S4 38.822 4 30s7.178-16 16-16m0-2c-9.94 0-18 8.06-18 18s8.06 18 18 18 18-8.06 18-18-8.06-18-18-18z"/><path d="M41.292 7.293l1.415 1.414-22 22-1.415-1.414z"/><path d="M41 4.911V9h4.084c-1.31 2.891-3.447 6.24-5.66 6.24-.899 0-1.912-.557-3.01-1.654-1.975-1.975-1.683-3.165-1.587-3.556.486-1.983 3.44-3.884 6.173-5.119M43 2s-16 5-8 13c1.6 1.6 3.08 2.24 4.424 2.24C44.8 17.24 48 7 48 7h-5V2z"/><path d="M37 5h2v7h-2zM3 48a.999.999 0 0 1-.707-1.707l4.272-4.272a.999.999 0 1 1 1.414 1.414l-4.272 4.272A.997.997 0 0 1 3 48zm34 0a.997.997 0 0 1-.707-.293l-4.273-4.273a.999.999 0 1 1 1.414-1.414l4.273 4.273A.999.999 0 0 1 37 48z"/></svg>