<svg xmlns="http://www.w3.org/2000/svg" viewBox="0 0 187.852 187.852"><path d="M185.975 75.172a6.002 6.002 0 0 0-7.077-4.682 6 6 0 0 0-4.682 7.077c6.364 31.255-6.146 63.636-31.873 82.495-17.538 12.856-39.179 18.089-60.937 14.739-21.758-3.352-40.821-14.856-53.677-32.395C.999 105.938 8.919 54.523 45.385 27.791c17.538-12.855 39.18-18.088 60.937-14.739 21.13 3.255 39.701 14.217 52.531 30.91l-5.516-.793a5.996 5.996 0 0 0-6.793 5.085 6 6 0 0 0 5.085 6.793l19.915 2.864c.132.019.262.018.394.028.156.012.313.034.468.034a6.003 6.003 0 0 0 5.932-5.147l2.864-19.915a6 6 0 1 0-11.878-1.708l-.811 5.639C153.788 17.58 132.439 4.933 108.15 1.192c-24.925-3.842-49.735 2.17-69.858 16.92C18.168 32.865 4.97 54.716 1.131 79.641-2.708 104.567 3.3 129.376 18.052 149.5c14.751 20.123 36.602 33.32 61.528 37.16a96.45 96.45 0 0 0 14.691 1.131c19.833 0 39.012-6.209 55.167-18.052 29.49-21.618 43.832-58.738 36.537-94.567z"/><path d="M126.601 96.171h-20.48a14.978 14.978 0 0 0-7.633-7.633V42.504a6 6 0 0 0-12 0v46.034c-5.236 2.314-8.904 7.55-8.904 13.633 0 8.218 6.686 14.904 14.904 14.904 6.083 0 11.319-3.668 13.633-8.904h20.48a6 6 0 0 0 0-12zm-37.018 6c0-1.602 1.303-2.905 2.904-2.905s2.905 1.303 2.905 2.905-1.303 2.904-2.905 2.904-2.904-1.303-2.904-2.904z"/></svg>