<svg height="48" viewBox="0 0 48 48" width="48" xmlns="http://www.w3.org/2000/svg"><path d="M43 48H29a1 1 0 0 1-1-1V1a1 1 0 0 1 1-1h14a1 1 0 0 1 1 1v46a1 1 0 0 1-1 1zm-13-2h12V2H30v44z"/><path d="M29 8h5v2h-5zm0 6h5v2h-5zm0 6h5v2h-5zm0 6h5v2h-5zm0 6h5v2h-5zm0 6h5v2h-5zm-14 8h-4c-2.757 0-5-2.243-5-5V12c0-.197.059-.391.168-.555l6-9c.371-.557 1.293-.557 1.664 0l6 9c.109.164.168.358.168.555v29c0 2.757-2.243 5-5 5zM8 12.303V41c0 1.654 1.346 3 3 3h4c1.654 0 3-1.346 3-3V12.303l-5-7.5-5 7.5z"/><path d="M19 40H7a1 1 0 1 1 0-2h12a1 1 0 1 1 0 2zm0-4H7a1 1 0 1 1 0-2h12a1 1 0 1 1 0 2z"/><path d="M11 36a1 1 0 0 1-1-1V16a1 1 0 1 1 2 0v19a1 1 0 0 1-1 1zm4 0a1 1 0 0 1-1-1V16a1 1 0 1 1 2 0v19a1 1 0 0 1-1 1zM10 7h6v2h-6z"/><path d="M10 17c-2.206 0-4-1.794-4-4a1 1 0 1 1 2 0c0 1.103.897 2 2 2s2-.897 2-2a1 1 0 1 1 2 0c0 2.206-1.794 4-4 4z"/><path d="M16 17c-2.206 0-4-1.794-4-4a1 1 0 1 1 2 0c0 1.103.897 2 2 2s2-.897 2-2a1 1 0 1 1 2 0c0 2.206-1.794 4-4 4z"/></svg>