<svg height="48" viewBox="0 0 48 48" width="48" xmlns="http://www.w3.org/2000/svg"><path clip-rule="evenodd" d="M47 5.025a.975.975 0 0 1-.281.715c-.043.042-.096.062-.144.095l-2.69 2.69.69.69c.048.033.102.053.144.095a.974.974 0 0 1 .281.714.975.975 0 0 1-.281.715c-.042.042-.096.062-.144.095L12.861 42.55a.99.99 0 0 1-.523.481l-9.8 3.844a1.016 1.016 0 0 1-.181.071l-.012.005c-.008.003-.017.001-.024.004a.937.937 0 0 1-.569.004c-.02-.006-.039-.002-.06-.009-.008-.003-.013-.01-.021-.013a.94.94 0 0 1-.24-.141c-.039-.028-.08-.053-.113-.086s-.058-.074-.086-.113a.952.952 0 0 1-.141-.24c-.004-.008-.01-.013-.013-.021-.007-.02-.003-.04-.009-.061a.985.985 0 0 1-.041-.281c0-.1.02-.193.045-.287.004-.008.001-.016.004-.023l.006-.013c.02-.063.039-.123.07-.181l3.844-9.8a.995.995 0 0 1 .482-.523L33.242 7.406a2.055 2.055 0 0 0-1.957-1.443c-.609 0-1.151.269-1.528.689l-.003-.002-3.25 3.25.003.003-6.837 6.837a.977.977 0 0 1-1.381-1.381L28.338 5.311c.017-.017.038-.022.056-.037a3.979 3.979 0 0 1 2.892-1.249c1.45 0 2.699.784 3.396 1.942l2.514-2.513c.033-.047.053-.101.095-.143a.967.967 0 0 1 .715-.281.967.967 0 0 1 .715.281c.042.042.062.096.095.143l.69.69 2.69-2.69c.033-.047.053-.101.095-.143a.967.967 0 0 1 .715-.281.967.967 0 0 1 .715.281c.042.042.062.096.095.143l2.762 2.762c.048.033.101.053.144.095a.983.983 0 0 1 .278.714zM3.875 44.155l6.376-2.502-3.875-3.875-2.501 6.377zM38.004 5.406L7.385 36.025l4.619 4.619 30.619-30.619-4.619-4.619zm5-2l-2.119 2.119 1.619 1.619 2.119-2.119-1.619-1.619z" fill-rule="evenodd"/></svg>