<svg height="48" viewBox="0 0 48 48" width="48" xmlns="http://www.w3.org/2000/svg"><path d="M7.77 28.911c-.289 0-.565-.125-.756-.345L.465 21.01a1.001 1.001 0 0 1 1.512-1.31l5.676 6.55 4.697-7.284a1.001 1.001 0 0 1 1.682 1.084L8.61 28.453a.996.996 0 0 1-.84.458zm39.01 2.478a.998.998 0 0 1-.831-.442L41.12 23.75l-5.557 6.652a.998.998 0 1 1-1.535-1.281l6.411-7.676a.964.964 0 0 1 .82-.358c.313.017.603.181.777.441l5.572 8.303a1 1 0 0 1-.828 1.558z"/><path d="M24.271 42.008c-4.669 0-9.184-1.82-12.61-5.199a1 1 0 1 1 1.404-1.424 15.935 15.935 0 0 0 14.929 4.187c7.888-1.864 13.141-9.332 12.22-17.371a.999.999 0 0 1 .879-1.107.991.991 0 0 1 1.107.879c1.036 9.046-4.873 17.448-13.745 19.546a18.242 18.242 0 0 1-4.184.489zM7.769 28.911a1 1 0 0 1-.972-.77 17.885 17.885 0 0 1 2.2-13.6 17.886 17.886 0 0 1 11.174-8.06 17.993 17.993 0 0 1 17.631 5.595 1.001 1.001 0 0 1-1.498 1.326 15.987 15.987 0 0 0-15.672-4.974c-4.16.982-7.688 3.527-9.933 7.163s-2.94 7.929-1.956 12.088a1.002 1.002 0 0 1-.974 1.232z"/></svg>