<svg height="48" viewBox="0 0 48 48" width="48" xmlns="http://www.w3.org/2000/svg"><path d="M46.971 30c-.455 0-.859-.311-.97-.76-.038-.151-.869-3.24-4.003-3.24-3.316 0-5.089 3.415-5.107 3.45-.17.336-.516.549-.893.549h-.003a1.002 1.002 0 0 1-.892-.552C35.087 29.415 33.314 26 29.998 26s-5.089 3.415-5.107 3.45a1.017 1.017 0 0 1-1.004.542 1 1 0 0 1-.859-.75c-.034-.125-.911-3.242-5.03-3.242-4.171 0-5.022 3.21-5.03 3.242a1 1 0 0 1-1.94 0c-.034-.125-.911-3.242-5.03-3.242-1.393 0-2.441.345-3.117 1.024-.841.847-.857 1.958-.857 1.969.003.545-.43.993-.975 1.007-.54.004-1-.411-1.024-.956-.291-6.599 2.063-12.86 6.63-17.633C11.227 6.632 17.386 4 23.998 4s12.771 2.632 17.343 7.411c4.567 4.772 6.921 11.035 6.63 17.633a1 1 0 0 1-1 .956zm-16.973-6c2.966 0 4.949 1.844 6 3.186 1.051-1.342 3.034-3.186 6-3.186 1.65 0 2.915.592 3.851 1.396-.545-4.715-2.598-9.098-5.952-12.603C35.704 8.413 30.058 6 23.998 6c-6.06 0-11.707 2.413-15.899 6.794-3.262 3.409-5.292 7.647-5.903 12.215C3.188 24.339 4.462 24 5.998 24c3.052 0 4.952 1.387 6 2.798 1.048-1.411 2.948-2.798 6-2.798 3.2 0 5.133 1.524 6.146 3.003 1.084-1.32 3.02-3.003 5.854-3.003z"/><path d="M23.998 6a1 1 0 0 1-1-1V1a1 1 0 1 1 2 0v4a1 1 0 0 1-1 1zm2.5 41.25c-1.739 0-3.5-1.116-3.5-3.25V29a1 1 0 1 1 2 0v15c0 1.215 1.347 1.25 1.5 1.25s1.5-.035 1.5-1.25a1 1 0 1 1 2 0c0 2.134-1.761 3.25-3.5 3.25z"/></svg>