<?xml version="1.0" encoding="utf-8"?><svg width="1224.8" height="270" viewBox="0 0 1224.8 270" xmlns="http://www.w3.org/2000/svg" xmlns:xlink="http://www.w3.org/1999/xlink"><svg viewBox="-6 -6 1224.8 167.3" width="1224.8" height="167.3" id="charles"><switch><g><path d="M231 142.2v-18c0-15.7 1.5-31.4-6.3-45.7-6.7-12.3-18.4-21.5-32-25.1-7.5-2-15.1-1.8-22.8-1.8-3.9 0-7.8-.1-11.7 0-2.4.1-3.8.6-4.4-2-.6-2.4-.1-5.5-.1-8 0-4.7.1-9.4.2-14.1.1-7.2 0-14.3 0-21.5 0-.9.6-5.3 0-6-.4-.4-3.3 0-3.9 0h-11.1c.2 18.4 0 36.8 0 55.3v7.4c0 .9-.5 2.9-.1 3.7.9 1.7 9.2.6 11.1.6 10.4.1 20.9-.3 31.3.1 17.9.8 31.8 13.9 34.2 31.5 1.3 10 .5 20.7.5 30.8v14.8c0 1.5-1.2 8.7-.1 10 1.2 1.5 6.4.1 8 .1 1.9 0 6.2 1.3 7.3-.6.6-.9-.1-2.9-.2-4 0-2.4.1-5 .1-7.5zm65.3-89.6c-21.2 0-40.9 14-48.2 33.8-7.4 20-.7 42.8 15.6 56.3 9 7.5 20.5 11.7 32.3 11.7 0-3.2 0-6.3.3-9.5.1-.9-.5-5.4-.1-5.7-.7.5-3.6-.6-4.5-.7-2.6-.4-5-.7-7.4-1.6-4.8-1.8-9.2-4.6-12.9-8.2-5.5-5.4-9.1-12.6-10.2-20.2-2.2-15.2 5.7-30.6 19.7-37.2 14.2-6.7 32.1-3.2 42.4 8.7 5.9 6.8 8.1 15.3 8.6 24.2.6 11 .2 22.1.2 33.1v12.9c0 1.5-.5 3.9.5 4.6 1.5.9 6.5 0 8.2 0h6.3V126c0-12.8 1.3-26.7-2.6-39-6.5-20.4-27-34.4-48.2-34.4zm116.7-.1c-17.6-.9-30.4 7.9-39.8 20.3-4.8 6.3-8.2 13.7-9.8 21.5-1.9 9.3-1.1 19.2-1.1 28.6 0 9.5.1 31.3.1 31.3h14.5s-.3-7.4-.3-17.4c0-10.7-.2-37.3 4.2-47.4 3.6-8.3 10.3-15.2 18.7-18.7-.4.2-.8.3-1.2.5.4-.2.9-.4 1.4-.6 2.5-1 5-1.8 7.7-2.1 1.2-.1 5.6-.4 5.6-.4s.2-2.7.1-3.9c-.4-3.9-.1-11.7-.1-11.7zm665 0c-17.6-.9-30.4 7.9-39.8 20.3-4.8 6.3-8.2 13.7-9.8 21.5-1.9 9.3-1.1 19.2-1.1 28.6 0 9.5.1 31.3.1 31.3h14.5s-.3-7.4-.3-17.4c0-10.7-.2-37.3 4.2-47.4 3.6-8.3 10.3-15.2 18.7-18.7-.4.2-.8.3-1.2.5.4-.2.9-.4 1.4-.6 2.5-1 5-1.8 7.7-2.1 1.2-.1 5.6-.4 5.6-.4s.2-2.7.1-3.9c-.4-3.9-.1-11.7-.1-11.7zm-631.7 63.1V.4h-8.5c-1 0-6.2-.7-6.9 0-.6.6 0 4.7 0 5.5v148.5h8.5c1 0 6.2.7 6.8 0 .6-.6 0-4.7 0-5.5.1-11.1.1-22.2.1-33.3zm766.2 33.2V.3H1197v154h8.6c1 0 6.2.7 6.9 0 .6-.5 0-4.7 0-5.5zm-648-36.3c.8-1.1.2-4.7.2-6-.1-5-.6-10-1.7-14.8-2.3-9.5-7.1-18.1-14.1-24.9-13-12.6-32.3-17.7-49.8-12.6-32.9 9.7-47.1 48.7-28.3 77.2 9.3 14.2 25.2 23.3 42.2 23.3v-12.4c0-3.5-.5-2.7-4-3.2-6.1-.9-11.8-2.7-16.7-6.4-9.7-7.1-15.1-19.1-14.6-31 1-25.7 27.1-39.3 50.1-31.5 12.3 4.2 21.5 14.5 21.5 27.9-10.1 0-20.2.2-30.3 0-2.9-.1-5.4-1.4-5.9 2.1-.4 2.6.3 5.3.3 7.9-.1 4-.1 5.6 4.4 5.4 4.2-.2 8.2-.4 12.4-.4h31.7c1.3.1 1.8.4 2.6-.6zm50.4-60h.4c-.1-.1-.2 0-.4 0z"/><path d="M672.9 52.3c-14.4-.1-28.8-.1-43.2 0-5.6 0-11.2-.1-16.8.4-10.9 1.1-23.3 3.9-30.3 13-6.9 8.8-6.1 21.6.5 30.4 13.4 17.7 42.6 11.1 61.4 12.3 9.9.6 21.7 5.1 20.5 17.1-1.2 12.2-15.7 14.6-25.6 14.8-14.2.3-28.5-.1-42.7-.1-18.3-.1-36.7-.2-55-.4v5.4c0 2.1-.9 6.6 0 8.6.3.6.2.7.2.7s.1 0 .4.2c.6.3 2.3 0 3 0h28.1c18.7 0 37.5.1 56.2.1 15.2.1 34.5-.6 45.1-13.2 5.7-6.8 7.4-16.4 5.1-24.8-2.4-9-9.3-15.2-17.8-18.6-8.1-3.3-17.1-4.1-25.7-4.5-9.9-.4-20.1.8-29.9-.8-6.7-1.1-13.8-4.5-13.6-12.4.2-6 5.9-9 11-10.5 13-4 27.9-2.7 41.3-2.7 12 .1 23.9.2 35.9.4v-6.8c0-1.2.9-7.4 0-8.3-.9-1.1-6.7-.3-8.1-.3zm-58.4.2h.4-.4zm-72.6 101.9c-.1-.1 0 0 0 0z"/><path d="M611.8 52.8c.3 0 .7-.1 1.2-.1.7-.1 1.1-.1 1.5-.1-.7 0-1.8.1-2.7.2zm0 0h-.4.4zm-.4 0c-1.5.2-2.4.3 0 0zm3.9-.4zm133.5-1.2zm-1.5.4c.6 0 1.1 0 1.5-.1-.3 0-.8 0-1.5.1zm-10.7.4zm10.6-.4zm1.7-.1h.3-.3zm.3 0zm-12.5.5zm12.7-.5z"/><path d="M746 51.6h1.2-1.2c-.5 0-1 0-1.5.1.5 0 1-.1 1.5-.1-20.9.9-39.5 15.3-46.5 34.8-7.2 20.2-.2 42.7 16.1 56.3 9 7.5 20.5 12 32.3 12 0-3.6-.2-7.3 0-10.9.1-1.8 1-3.7-.6-4.6-1.6-.8-5.4-.4-7.3-.8-2.9-.7-5.8-1.7-8.4-3.1-9.8-5.1-16.9-14.7-18.8-25.6-4.5-25 18.4-47.6 43.4-41.8 6.7 1.5 12.2 4.9 17.3 9.3 2.1 1.9 2.6 1.1 4.7-.9 2.8-2.6 5.5-5.2 8.3-7.8C776.3 57.4 761.2 51 746 51.6zm3.3-.1s.1 0 0 0c.1 0 0 0 0 0zm-12.1.5h-.4.4zm4.9-.2h-.5.5zm-.4 0h-1.1 1.1zm.8 0h-.4.4zm-2 .1h-1.2 1.2z"/><path d="M739.3 51.9c-.5 0-.9 0-1.3.1.5-.1.9-.1 1.3-.1zm5.2-.2zm-6.4.3h-.9.9zm5.2-.3h-.8c.3.1.5 0 .8 0zm1.2 0c-.4 0-.8 0-1.2.1.4-.1.8-.1 1.2-.1zm150.5 61c0-10.4-.3-21-4.7-30.6-3.4-7.3-8.6-13.8-15-18.8-13-10.1-30.5-13.4-46.3-8.5-31.3 9.8-46 47.5-28.4 75.4 9.3 14.8 25.9 24.2 43.4 24.2 0-3.2.1-6.3.2-9.5.1-1.6-.8-4.3-.3-5.7-.2.6-10.8-1.9-12.1-2.3-5.2-1.9-9.9-5-13.7-9-5.6-5.8-9-13.5-9.7-21.5-1.5-17.1 9.7-33.2 26.4-37.4 17.2-4.3 36.6 5 42.1 22.3 3.1 9.8 2.1 20.8 2.1 30.9v18.4c0 3.5-1.3 8.5-.2 11.7 1.2 3.6 5.7 2 8.9 2.1 3.5.1 7.3 1.4 7.7-3.1.4-5.5-.3-11.4-.3-16.9-.1-7.2-.1-14.5-.1-21.7zm82.7-58.1c-1.7-.5-5.6-2.5-17.7-2.8 0 3.4-.1 7.1 0 10.5 0 1.4-.1 5.3-.1 5.3s7.1.7 9.1 1.1c3.3.6 6.4 1.8 9.3 3.4 9.8 5.5 16.3 15.6 17.7 26.7 2.3 18.3-9.6 35.1-27.5 39.2-17.9 4.1-36.9-5.9-41.9-24-3.4-12.4-1.6-26.5-1.6-39.2V9c0-1.9-.1-9-.1-9h-16v80.2c0 12.4-1.3 25.6 2.3 37.7 2.8 9.3 8.3 17.8 15.7 24.2 15.6 13.6 38.6 16.4 56.9 6.6 18.1-9.6 29.2-29.6 27.3-50.1-1.8-20.1-14-37.8-33.4-44zm202.3 58.1c0-10.4-.3-21-4.8-30.6-3.4-7.4-8.6-13.8-15-18.8-13-10.1-30.6-13.4-46.3-8.5-31.3 9.8-46 47.5-28.3 75.4 9.3 14.8 25.9 24.2 43.4 24.2 0-3.2.1-6.3.1-9.5 0-1.8-.6-4-.4-5.7-.1.3-10.9-1.9-12.1-2.3-5.2-1.9-9.9-5-13.7-9-5.6-5.8-9-13.5-9.7-21.5-1.5-17 9.6-33.1 26.1-37.3 16.8-4.3 35.9 4.3 42 21 3.7 10.1 2.6 21.6 2.6 32.1v17.5c0 3.7-1.3 9-.3 12.6 1.1 3.7 5.8 2 8.8 2.1 3.5.1 7.3 1.4 7.7-3.1.5-5.5-.3-11.4-.3-16.9.2-7.2.2-14.5.2-21.7zM135.6 95.2c-1.1.8-1.6 6-2.2 7.3.1-.2.1-.3.2-.4 0 .1-.1.2-.2.4-1.5 3.6-.5 1.1 0 0-1.2 2.9-2.6 5.7-4.3 8.4-.9 1.5-2.6 5.1-4.3 6-.8.4-1.7.3-2.6.3H75.6c4.2-11.3-16.2-11.3-12.1 0H33.4c-2.2 0-2.3.3-3.8-1.1-3.8-3.5-6.6-9.9-8.6-14.5-4.3-9.8-5.5-20.7-4.1-31.3C19.5 50 31.6 32.2 49.8 22.8 60 17.5 71.7 15.5 83 16.6c3.1.3 6.1.8 9.1 1.5 1 .2 5.4 2.2 6.3 1.8 1.3-.6 2.8-8.1 3.2-9.5.7-2.1 2.1-3.9.4-5.4-1.2-1-3.8-1.1-5.2-1.5-3.5-.8-7-1.7-10.6-2.1-9.7-1.2-19.6-.5-29 2-19 5.2-35.8 17.7-46 34.7C-.6 57.6-3.3 82 4.2 103.5c6.6 18.8 20.7 34.4 38.5 43.3 20.9 10.4 45.7 10.8 66.8.7 21-10 36.7-29.1 41.6-52.3h-11.7c-.8 0-3.2-.5-3.8 0zm-2.2 7.3z"/><path d="M90.7 72c0-.1-.1-.3-.1-.4.1.1.1.3.1.4zm.1.4v-.3.3zm.3 1.6c0 .1 0 .2.1.3 0 0 0-.1-.1-.3zm.1.3zm-.5-2.7c-.1-.5-.2-.8-.2-.9 0 .1 0 .4.2.9zm.1.6V72c-.1.1 0 .1 0 .2zm.2 1.2c0 .2.1.3.1.4 0-.1-.1-.2-.1-.4zm.1.4zm-.3-1.4c.1.4.1.7.2 1 0-.3-.1-.6-.2-1zm-.3-1.7z"/><path d="M90.8 72.3c3.5 17.6 30.7 12.9 28.1-4.8-1.1-7.7-8.4-13.1-16.1-12.1-7.9 1.2-13.6 9-12 16.9zm-11.1 27.9c14 .1 14.1-21.7.1-21.7-13.9.1-14 21.6-.1 21.7zm-14.4 5.2c2.8-5.1-4.3-10.1-8.2-5.7-4.8 5.5 4.8 11.9 8.2 5.7zm-7.8-6.1z"/><path d="M57.1 99.7c.2-.3.3-.4.4-.4-.2.2-1.4 1.6-.4.4z"/></g></switch></svg><svg width="22" height="34" viewBox="-6 -6 22 34" id="facebook" y="168"><path d="M3.478 1.235C4.312.418 5.501.142 6.623.108 7.809.097 8.994.104 10.18.104c.004 1.284.006 2.57-.001 3.854-.768-.002-1.534.001-2.299-.002-.486-.031-.986.346-1.074.842-.012.859-.004 1.719-.004 2.578 1.124.005 2.248-.001 3.371.003a48.707 48.707 0 0 1-.408 3.713c-.993.01-1.986-.001-2.979.005-.009 3.667.005 7.333-.008 11-1.474.006-2.949-.004-4.423.004-.028-3.667.002-7.336-.015-11.003-.72-.008-1.439.006-2.159-.006.004-1.232.002-2.466.002-3.698.719-.007 1.438.003 2.158-.005.021-1.198-.022-2.397.022-3.595.072-.948.424-1.903 1.115-2.559z" fill="#3d599a"/></svg><svg width="44" height="34" viewBox="-6 -6 44 34" id="twitter" y="202"><path d="M20.029 1.021C20.722.502 21.525.101 22.396 0c-.121.517-.614.786-1.046 1.021.65-.19 1.285-.472 1.97-.519.185-.006.444.001.51.212.098.262-.17.467-.374.576-.748.383-1.612.439-2.373.792 1.563-.146 3.124.456 4.311 1.448 1.415 1.155 2.352 2.827 2.691 4.605 1.252.333 2.604.092 3.778-.403-.59 1.326-2.093 1.931-3.468 2.049 1.143.427 2.398.5 3.604.373-.957 1.05-2.437 1.46-3.827 1.428-.578 2.343-1.954 4.445-3.739 6.065-3.473 3.117-8.282 4.611-12.931 4.314C7.036 21.692 2.639 19.509 0 15.887c.23.133.424.317.645.466 2.043 1.466 4.763 1.931 7.193 1.277 1.475-.378 2.812-1.195 3.881-2.262-.683.045-1.443-.075-1.939-.586-.31-.292-.437-.772-.25-1.163.225-.494.725-.775 1.199-.996-1.551.219-3.241-.497-3.956-1.918.524-.619 1.361-.817 2.138-.878-.904-.261-1.834-.581-2.52-1.251a3.325 3.325 0 0 1-1.006-1.942c.64-.118 1.284-.263 1.941-.236-1.49-.768-2.85-2.231-2.731-4 2.824 1.021 5.601 2.186 8.254 3.591.928.506 1.7 1.237 2.458 1.958.734-1.892 1.524-3.792 2.72-5.451.64-.873 1.396-1.685 2.324-2.261-.038.288-.185.537-.322.786z" fill="#4da7de"/></svg><svg width="44" height="34" viewBox="-6 -6 44 34" id="twitterHover" y="236"><path d="M20.029 1.021C20.722.502 21.525.101 22.396 0c-.121.517-.614.786-1.046 1.021.65-.19 1.285-.472 1.97-.519.185-.006.444.001.51.212.098.262-.17.467-.374.576-.748.383-1.612.439-2.373.792 1.563-.146 3.124.456 4.311 1.448 1.415 1.155 2.352 2.827 2.691 4.605 1.252.333 2.604.092 3.778-.403-.59 1.326-2.093 1.931-3.468 2.049 1.143.427 2.398.5 3.604.373-.957 1.05-2.437 1.46-3.827 1.428-.578 2.343-1.954 4.445-3.739 6.065-3.473 3.117-8.282 4.611-12.931 4.314C7.036 21.692 2.639 19.509 0 15.887c.23.133.424.317.645.466 2.043 1.466 4.763 1.931 7.193 1.277 1.475-.378 2.812-1.195 3.881-2.262-.683.045-1.443-.075-1.939-.586-.31-.292-.437-.772-.25-1.163.225-.494.725-.775 1.199-.996-1.551.219-3.241-.497-3.956-1.918.524-.619 1.361-.817 2.138-.878-.904-.261-1.834-.581-2.52-1.251a3.325 3.325 0 0 1-1.006-1.942c.64-.118 1.284-.263 1.941-.236-1.49-.768-2.85-2.231-2.731-4 2.824 1.021 5.601 2.186 8.254 3.591.928.506 1.7 1.237 2.458 1.958.734-1.892 1.524-3.792 2.72-5.451.64-.873 1.396-1.685 2.324-2.261-.038.288-.185.537-.322.786z" fill="#186593"/></svg></svg>