<svg height="48" viewBox="0 0 48 48" width="48" xmlns="http://www.w3.org/2000/svg"><path d="M18 48C9.178 48 2 40.822 2 32c0-6.906 4.486-13.043 11-15.186V14a1 1 0 0 1 1-1h8a1 1 0 0 1 1 1v2.814c6.514 2.143 11 8.28 11 15.186 0 8.822-7.177 16-16 16zm-3-33v2.556a1 1 0 0 1-.733.964C8.222 20.191 4 25.734 4 32c0 7.72 6.28 14 14 14s14-6.28 14-14c0-6.266-4.222-11.809-10.267-13.48a1.003 1.003 0 0 1-.733-.964V15h-6z"/><path d="M32 16c-2.757 0-5-2.243-5-5 0-2.206-1.794-4-4-4s-4 1.794-4 4v3a1 1 0 0 1-2 0v-3c0-3.309 2.691-6 6-6s6 2.691 6 6c0 1.654 1.346 3 3 3s3-1.346 3-3 1.346-3 3-3a1 1 0 0 1 0 2c-.551 0-1 .449-1 1 0 2.757-2.243 5-5 5zm6-10a1 1 0 0 1-1-1V1a1 1 0 0 1 2 0v4a1 1 0 0 1-1 1zm2.829 1.172a.999.999 0 0 1-.707-1.707l2.828-2.829a.999.999 0 1 1 1.414 1.414l-2.828 2.829a.999.999 0 0 1-.707.293zm-5.657 0a.997.997 0 0 1-.707-.293L31.637 4.05a.999.999 0 1 1 1.414-1.414l2.828 2.829a.999.999 0 0 1-.707 1.707zM46 10h-4a1 1 0 0 1 0-2h4a1 1 0 0 1 0 2zm-2.343 5.655a1 1 0 0 1-.707-.292l-2.83-2.827a1 1 0 1 1 1.415-1.415l2.83 2.827a1 1 0 0 1-.708 1.707zM8.978 39.29a.997.997 0 0 1-.821-.428 11.919 11.919 0 0 1-1.968-8.971 11.915 11.915 0 0 1 4.952-7.735 1 1 0 0 1 1.143 1.641C7.76 26.95 6.645 33.195 9.798 37.719a.999.999 0 0 1-.82 1.571z"/></svg>