<svg height="48" viewBox="0 0 48 48" width="48" xmlns="http://www.w3.org/2000/svg"><path clip-rule="evenodd" d="M35 40H11v-.051C5.947 39.447 2 35.186 2 30c0-5.187 3.948-9.449 9.002-9.949L11 20c0-6.627 5.373-12 12-12 5.947 0 10.871 4.331 11.821 10.009.061-.001.118-.009.179-.009 6.075 0 11 4.925 11 11s-4.925 11-11 11zm0-20c-.336 0-.667.021-.993.06l-.002-.005c-.013.001-.023.008-.036.008a.998.998 0 0 1-.998-.99l-.018-.002C32.483 13.983 28.209 10 23 10c-5.523 0-10 4.477-10 10 0 .297.021.587.048.876l-.01.003c.005.041.024.078.024.121a.996.996 0 0 1-.973.994l-.004.014C12.057 22.007 12.029 22 12 22a8 8 0 0 0-8 8c0 4.079 3.055 7.438 7 7.931V38h24c4.971 0 9-4.029 9-9s-4.029-9-9-9z" fill-rule="evenodd"/></svg>