<svg xmlns="http://www.w3.org/2000/svg" viewBox="0 0 244.683 244.683"><path d="M244.054 118.587l-25.417-79.232a13.061 13.061 0 0 0-6.508-7.676 13.075 13.075 0 0 0-10.029-.827L72.89 72.302c-6.904 2.215-10.718 9.633-8.504 16.537l5.171 16.12H13.148C5.898 104.959 0 110.857 0 118.107v83.209c0 7.25 5.898 13.148 13.148 13.148h144.695c7.25 0 13.148-5.898 13.148-13.148v-45.482l64.558-20.71c6.904-2.214 10.719-9.632 8.505-16.537zm-86.21 83.878H13.148A1.15 1.15 0 0 1 12 201.317v-83.209a1.15 1.15 0 0 1 1.148-1.148h144.695a1.15 1.15 0 0 1 1.148 1.148v83.209a1.148 1.148 0 0 1-1.147 1.148zm48.797-160.114c.193.099.448.296.568.67l5.072 15.81-131.396 42.153-5.072-15.811a1.149 1.149 0 0 1 .743-1.444l129.209-41.45a1.14 1.14 0 0 1 .876.072zm-48.797 62.608H107.78l108.167-34.7 16.68 51.994a1.15 1.15 0 0 1-.743 1.445l-60.892 19.534v-25.125c0-7.25-5.898-13.148-13.148-13.148z"/><path d="M56.54 134.712H30.874a6 6 0 0 0 0 12H56.54a6 6 0 0 0 0-12zm28.667 12a6 6 0 0 0 0-12h-9.333a6 6 0 0 0 0 12h9.333zm64 14a6 6 0 0 0-6-6h-29.333a6 6 0 0 0-6 6v26a6 6 0 0 0 6 6h29.333a6 6 0 0 0 6-6v-26zm-12 6v14h-17.333v-14h17.333z"/></svg>