<svg xmlns="http://www.w3.org/2000/svg" viewBox="0 0 259.277 259.277"><path d="M191.337 66.272a5.999 5.999 0 1 0-11.964.911l.166 2.177-168.2 57.566A6 6 0 0 0 .02 130.124l1.956 25.674a6 6 0 0 0 6.439 5.527 6 6 0 0 0 5.206-4.003l17.723 3.385c.782 20.01 17.296 36.05 37.494 36.05 14.85 0 28.351-8.886 34.319-22.336l85.633 16.354.17 2.229a6 6 0 1 0 11.965-.911l-9.588-125.821zM68.835 184.758c-12.78 0-23.395-9.439-25.244-21.711l47.293 9.032c-4.522 7.722-12.906 12.679-22.049 12.679zm-55.648-39.734l-.449-5.894L180.48 81.721l7.363 96.658-174.656-33.355zM224.6 133.031l29.134-2.219a5.998 5.998 0 0 0 5.526-6.438c-.251-3.305-3.139-5.784-6.438-5.527l-29.134 2.219a5.998 5.998 0 0 0-5.526 6.438 6 6 0 0 0 6.438 5.527zm.317-37.6L248.125 78.4a5.999 5.999 0 0 0 1.287-8.387 6.002 6.002 0 0 0-8.387-1.288l-23.208 17.031a5.999 5.999 0 0 0 3.555 10.838 5.976 5.976 0 0 0 3.545-1.163zm30.301 76.073l-25.521-13.318a6 6 0 1 0-5.553 10.638l25.521 13.318a5.997 5.997 0 0 0 8.095-2.544 5.998 5.998 0 0 0-2.542-8.094z"/></svg>