<svg height="48" viewBox="0 0 48 48" width="48" xmlns="http://www.w3.org/2000/svg"><path clip-rule="evenodd" d="M44.312 4.548l.001.007-6.969 1.931-.002-.006-.029.042A1.994 1.994 0 0 0 36 8.393v32a5 5 0 0 1-5 5h-6a5 5 0 0 1-5-5v-2a5 5 0 0 1 5-5h9v-25c0-1.749 1.13-3.22 2.693-3.763l-.006-.018 6.901-1.906c.044-.021.094-.025.142-.039l.207-.058.003.015c.021-.001.038-.012.06-.012a1 1 0 0 1 1 1 .988.988 0 0 1-.688.936zM34 38.393v-3h-9a3 3 0 0 0-3 3v2a3 3 0 0 0 3 3h6a3 3 0 0 0 3-3v-2zm-7-9H4a1 1 0 1 1 0-2h23a1 1 0 1 1 0 2zm0-8H4a1 1 0 1 1 0-2h23a1 1 0 1 1 0 2zm0-8H4a1 1 0 1 1 0-2h23a1 1 0 1 1 0 2zm-23 22h9a1 1 0 1 1 0 2H4a1 1 0 1 1 0-2z" fill-rule="evenodd"/></svg>