<svg height="48" viewBox="0 0 48 48" width="48" xmlns="http://www.w3.org/2000/svg"><path clip-rule="evenodd" d="M39 42h-6a5 5 0 0 1-5-5v-2a5 5 0 0 1 5-5h9V5a2 2 0 0 0-2-2c-.107 0-.211.015-.313.032L21.344 8.094l-.002-.006-.029.042A1.992 1.992 0 0 0 20 10v32a5 5 0 0 1-5 5H9a5 5 0 0 1-5-5v-2a5 5 0 0 1 5-5h9V10c0-1.749 1.13-3.22 2.693-3.763l-.006-.018L39 1.125l.005.012C39.323 1.054 39.654 1 40 1a4 4 0 0 1 4 4v32a5 5 0 0 1-5 5zm-21-2v-3H9a3 3 0 0 0-3 3v2a3 3 0 0 0 3 3h6a3 3 0 0 0 3-3v-2zm24-5v-3h-9a3 3 0 0 0-3 3v2a3 3 0 0 0 3 3h6a3 3 0 0 0 3-3v-2z" fill-rule="evenodd"/></svg>