<svg height="48" viewBox="0 0 48 48" width="48" xmlns="http://www.w3.org/2000/svg"><path clip-rule="evenodd" d="M41 47H7a5 5 0 0 1-5-5V2a1 1 0 0 1 1-1h34a1.002 1.002 0 0 1 1 1v14h7a1 1 0 0 1 1 1v25a5 5 0 0 1-5 5zm-5-5V3H4v39a3 3 0 0 0 3 3h30.022A4.962 4.962 0 0 1 36 42zm8-24h-6v24a3 3 0 1 0 6 0V18zM7 40a1 1 0 0 1 1-1h9a1 1 0 1 1 0 2H8a1 1 0 0 1-1-1zm4.666-16.285a.977.977 0 0 1-1.381-1.381l5.905-5.905c.032-.047.053-.101.095-.143a.972.972 0 0 1 .715-.282.968.968 0 0 1 .715.282c.042.042.062.096.095.143l4.19 4.19 2.19-2.19c.032-.047.053-.101.095-.143a.967.967 0 0 1 .715-.281.967.967 0 0 1 .715.281c.042.042.062.096.095.143l3.905 3.905a.977.977 0 0 1-1.381 1.381L25 20.381 23.381 22l.334.334a.977.977 0 0 1-1.381 1.381L17 18.381l-5.334 5.334zM23 29h9a1 1 0 1 1 0 2h-9a1 1 0 1 1 0-2zm0 5h9a1 1 0 1 1 0 2h-9a1 1 0 1 1 0-2zm0 5h9a1 1 0 1 1 0 2h-9a1 1 0 1 1 0-2zm1-23.5a1.5 1.5 0 1 1-3 0 1.5 1.5 0 0 1 3 0zm3-5.5H13a1 1 0 1 1 0-2h14a1 1 0 1 1 0 2zM8 34h9a1 1 0 1 1 0 2H8a1 1 0 1 1 0-2zm10-4a1 1 0 0 1-1 1H8a1 1 0 1 1 0-2h9a1 1 0 0 1 1 1z" fill-rule="evenodd"/></svg>