<svg height="48" viewBox="0 0 48 48" width="48" xmlns="http://www.w3.org/2000/svg"><path d="M44 46H4c-2.206 0-4-1.794-4-4V16c0-2.206 1.794-4 4-4h40c2.206 0 4 1.794 4 4v26c0 2.206-1.794 4-4 4zM4 14c-1.103 0-2 .897-2 2v26c0 1.103.897 2 2 2h40c1.103 0 2-.897 2-2V16c0-1.103-.897-2-2-2H4zm28-5h-2V7c0-.552-.449-1-1-1H19c-.551 0-1 .448-1 1v2h-2V7c0-1.654 1.346-3 3-3h10c1.654 0 3 1.346 3 3v2z"/><path d="M40 22H7a1 1 0 1 1 0-2h33a1 1 0 1 1 0 2zm0 8H7a1 1 0 1 1 0-2h33a1 1 0 1 1 0 2zm0 8H7a1 1 0 1 1 0-2h33a1 1 0 1 1 0 2zM16 9h2v4h-2zm14 0h2v4h-2z"/><path d="M17 8h14v2H17z"/></svg>