<svg height="48" viewBox="0 0 48 48" width="48" xmlns="http://www.w3.org/2000/svg"><path clip-rule="evenodd" d="M46.443 6.719C40.506 15.546 22.623 33.4 22.623 33.4l-.007-.007c-.042.046-.08.094-.125.139-1.124 1.122-2.649 1.576-4.114 1.403.471 1.972-.026 4.137-1.529 5.678 0 0-7.52 9.299-15.854 3.44 0 0 4.494-1.259 4.885-4.885 0 0-.6-3.654 2.699-7.04a5.74 5.74 0 0 1 5.445-1.596c-.152-1.444.303-2.94 1.411-4.047.044-.045.093-.083.139-.126l-.007-.007S33.438 8.488 42.278 2.559a2.991 2.991 0 0 1 3.854.31 2.98 2.98 0 0 1 .311 3.85zM15.456 33.486c-.742-.742-1.704-1.165-2.733-1.165a3.809 3.809 0 0 0-2.744 1.171c-2.535 2.602-2.155 5.584-2.145 5.677-.218 2.02-1.363 3.741-2.557 4.776.422.077.849.116 1.285.116 4.75 0 8.752-4.66 8.789-4.704.001 0 2.739-3.236.105-5.871zm.538-3.478c0 .796.289 1.546.854 2.109.565.564 1.348.891 2.146.891s1.519-.326 2.066-.874l1.554-1.57.274-.28-4.197-4.197-.287.279-1.557 1.537c-.564.562-.853 1.309-.853 2.105zM44.72 4.286A.974.974 0 0 0 44.027 4c-.212 0-.414.064-.635.222-6.218 4.17-17.999 15.367-23.301 20.503l4.159 4.159c5.14-5.296 16.364-17.083 20.568-23.332a.974.974 0 0 0-.098-1.266z" fill-rule="evenodd"/></svg>