<svg height="48" viewBox="0 0 48 48" width="48" xmlns="http://www.w3.org/2000/svg"><path d="M32.667 22.333c-6.065 0-11-4.935-11-11s4.935-11 11-11 11 4.935 11 11-4.935 11-11 11zm0-20c-4.963 0-9 4.037-9 9s4.037 9 9 9 9-4.037 9-9-4.037-9-9-9zm14 7a1 1 0 1 0 0 2 1 1 0 0 0 0-2zm0 37a1 1 0 0 1-1-1v-32a1 1 0 1 1 2 0v32a1 1 0 0 1-1 1zm-37.377.381c-4.745 0-8.24-2.963-9.591-8.128a1.001 1.001 0 0 1 1.794-.816c.912 1.338 2.277 2.104 3.748 2.105.929 0 1.78-.32 2.396-.901.674-.634 1.029-1.547 1.029-2.641 0-4.193 3.334-6.456 6.471-6.456 1.331 0 2.553.392 3.529 1.117.976-.726 2.197-1.117 3.529-1.117 3.137 0 6.471 2.263 6.471 6.456 0 2.446 1.721 3.542 3.426 3.542 1.47 0 2.836-.768 3.748-2.105a1 1 0 1 1 1.794.816c-1.351 5.165-4.847 8.127-9.592 8.128-3.624 0-7.312-1.83-9.376-4.515-2.063 2.685-5.751 4.514-9.376 4.515zm9.377-7.381c.379 0 .725.214.895.553 1.376 2.752 5.022 4.828 8.481 4.828 1.671 0 4.327-.492 6.176-3.223a6.132 6.132 0 0 1-2.126.384c-2.696 0-5.426-1.904-5.426-5.542 0-2.926-2.249-4.456-4.471-4.456-1.127 0-2.119.402-2.795 1.134-.377.412-1.09.411-1.469.001-.676-.731-1.668-1.135-2.795-1.135-2.222 0-4.471 1.53-4.471 4.456 0 1.658-.573 3.075-1.658 4.097-.988.932-2.327 1.445-3.768 1.445h-.001a6.154 6.154 0 0 1-2.125-.384c1.849 2.73 4.504 3.223 6.176 3.223 3.459-.001 7.105-2.076 8.481-4.828.171-.339.517-.553.896-.553z"/><path d="M32.667 18.333a1 1 0 1 1 0-2c2.757 0 5-2.243 5-5a1 1 0 1 1 2 0c0 3.859-3.141 7-7 7z"/></svg>