<svg xmlns="http://www.w3.org/2000/svg" width="108.364" height="108.364" viewBox="0 0 108.364 108.364"><path d="M54.182 0C24.258 0 0 24.258 0 54.182c0 29.924 24.258 54.183 54.182 54.183 29.923 0 54.182-24.259 54.182-54.183S84.105 0 54.182 0zm8.056 38.049a3.333 3.333 0 0 1-.143-4.544c.024-.035.078-.097.137-.157 1.277-1.278 3.459-1.27 4.718-.011l1.76 1.759 1.761-1.76c1.197-1.199 3.267-1.262 4.543-.145.041.03.106.086.168.146.629.629.976 1.465.977 2.354 0 .89-.346 1.727-.977 2.356l-1.76 1.76 1.758 1.759c.631.629.978 1.466.978 2.355 0 .89-.347 1.727-.976 2.357-1.258 1.26-3.453 1.261-4.713 0l-1.758-1.758-1.758 1.758a3.312 3.312 0 0 1-2.355.977 3.304 3.304 0 0 1-2.356-.977 3.336 3.336 0 0 1 0-4.711L64 39.808l-1.762-1.759zm-28.117.014a3.333 3.333 0 0 1-.143-4.544c.025-.035.078-.097.137-.157 1.277-1.278 3.46-1.27 4.718-.011l1.76 1.759 1.76-1.76c1.198-1.199 3.267-1.262 4.544-.145.041.03.106.086.167.146.629.629.976 1.465.977 2.354 0 .89-.346 1.727-.976 2.356l-1.76 1.76 1.758 1.759c.63.629.977 1.466.977 2.355a3.31 3.31 0 0 1-.976 2.357c-1.258 1.26-3.452 1.261-4.712 0l-1.758-1.758-1.758 1.758a3.313 3.313 0 0 1-2.356.977c-.89 0-1.727-.347-2.356-.977a3.336 3.336 0 0 1 0-4.711l1.759-1.759-1.762-1.759zm44.913 36.775c0 .551-.448 1-1 1-1.666 0-4.097-.934-5.688-2.402a8.047 8.047 0 0 1-5.738 2.402 8.054 8.054 0 0 1-5.713-2.375 8.057 8.057 0 0 1-11.426 0 8.044 8.044 0 0 1-5.712 2.375 8.04 8.04 0 0 1-5.735-2.402c-1.592 1.469-4.024 2.402-5.691 2.402-.552 0-1-.449-1-1v-4.105c0-.551.448-1 1-1 1.268 0 3.809-.975 4.904-2.504a1 1 0 0 1 .813-.416h.001a1 1 0 0 1 .813.418 6.017 6.017 0 0 0 4.895 2.504 6.016 6.016 0 0 0 4.896-2.502.997.997 0 0 1 .813-.42h.001c.322 0 .625.156.813.418a6.038 6.038 0 0 0 4.902 2.504 6.026 6.026 0 0 0 4.899-2.504c.375-.524 1.251-.524 1.627 0a6.025 6.025 0 0 0 4.897 2.504 6.025 6.025 0 0 0 4.9-2.504 1 1 0 0 1 .813-.418c.321 0 .625.156.813.418 1.094 1.529 3.633 2.504 4.899 2.504a1 1 0 0 1 1 1v4.104h.004z" fill="#fff"/></svg>