<svg xmlns="http://www.w3.org/2000/svg" viewBox="0 0 462.921 462.921"><path d="M450.932 424.488a7.497 7.497 0 0 0-9.186-5.303l-7.727 2.07c-10.448 2.799-21.363 1.362-30.732-4.046-9.364-5.407-16.064-14.136-18.866-24.58l-.001-.004-32.595-122.192c14.982-5.81 27.235-16.614 34.959-31.013 8.918-16.624 10.52-35.628 4.51-53.511l-58.93-175.346C329.763 2.822 321.551-1.587 313.66.529l-78.21 20.956a15.389 15.389 0 0 0-3.99 1.704 15.417 15.417 0 0 0-3.989-1.704L149.262.53c-7.888-2.113-16.104 2.294-18.705 10.033L71.627 185.91c-6.01 17.882-4.408 36.886 4.51 53.51 7.724 14.4 19.977 25.205 34.959 31.014L78.501 392.626l-.001.004c-2.802 10.444-9.502 19.173-18.866 24.58-9.368 5.408-20.284 6.845-30.731 4.046l-.005-.001-7.723-2.069a7.498 7.498 0 0 0-9.186 5.303 7.5 7.5 0 0 0 5.303 9.186l100.447 26.914.009.003.004.001 7.724 2.07a7.48 7.48 0 0 0 1.946.258 7.501 7.501 0 0 0 7.239-5.561 7.5 7.5 0 0 0-5.303-9.186l-7.737-2.073c-10.445-2.801-19.176-9.502-24.583-18.867-5.408-9.369-6.846-20.283-4.046-30.732v-.001l.003-.008 32.59-122.173c3.442.532 6.89.805 10.323.805 12.393 0 24.57-3.45 35.443-10.188 16.036-9.937 26.925-25.596 30.662-44.088L231.46 75.122l29.447 145.727c3.737 18.492 14.626 34.15 30.662 44.088 10.874 6.739 23.05 10.188 35.443 10.188 3.432 0 6.881-.273 10.323-.805l32.59 122.173.003.007v.001c2.8 10.449 1.362 21.363-4.046 30.732-5.407 9.365-14.138 16.066-24.583 18.867l-7.737 2.073a7.502 7.502 0 1 0 1.936 14.747c.643 0 1.296-.083 1.946-.258l7.724-2.07.004-.001.009-.003 92.719-24.844h.001l7.726-2.07a7.5 7.5 0 0 0 5.305-9.186zM84.048 434.732c.305.527.629 1.039.948 1.554l-19.44-5.209a55.778 55.778 0 0 0 12.975-9.586 55.827 55.827 0 0 0 5.517 13.241zm79.402-182.547c-12.478 7.732-27.159 9.898-41.34 6.101l-.01-.003-.004-.001c-14.176-3.803-25.803-13.019-32.741-25.952-6.939-12.937-8.186-27.725-3.509-41.64l6.67-19.847c6.248-.65 9.986-3.219 12.813-5.167 2.587-1.781 3.885-2.676 7.357-2.676 3.474 0 4.771.895 7.358 2.677 3.262 2.246 7.728 5.323 15.867 5.323 8.134 0 12.596-3.079 15.854-5.327 2.579-1.779 3.874-2.673 7.334-2.673 3.458 0 4.753.894 7.33 2.673 3.258 2.248 7.719 5.327 15.852 5.327 7.875 0 12.303-2.885 15.534-5.109l-10.505 51.985c-2.907 14.391-11.381 26.575-23.86 34.309zm60.5-215.628l-22.577 111.728c-5.625.811-9.098 3.203-11.762 5.042-2.577 1.779-3.871 2.673-7.329 2.673s-4.753-.894-7.33-2.673c-3.258-2.248-7.719-5.327-15.852-5.327s-12.595 3.079-15.854 5.327c-2.579 1.779-3.874 2.673-7.335 2.673-3.473 0-4.771-.895-7.357-2.676-3.262-2.247-7.729-5.324-15.868-5.324-6.567 0-10.742 2.003-13.823 3.957l45.913-136.615a.497.497 0 0 1 .604-.323l78.209 20.956a.501.501 0 0 1 .361.582zm15.383-.582l78.211-20.956a.5.5 0 0 1 .602.324l45.913 136.614c-3.081-1.954-7.255-3.957-13.823-3.957-8.14 0-12.606 3.077-15.868 5.324-2.587 1.781-3.885 2.676-7.357 2.676-3.46 0-4.755-.894-7.334-2.673-3.259-2.248-7.721-5.327-15.854-5.327s-12.594 3.079-15.852 5.327c-2.577 1.779-3.872 2.673-7.33 2.673s-4.752-.894-7.329-2.673c-2.664-1.839-6.137-4.231-11.762-5.042L238.972 36.556a.5.5 0 0 1 .361-.581zm60.139 216.21c-12.479-7.733-20.953-19.918-23.861-34.309l-10.505-51.986c3.231 2.225 7.659 5.11 15.534 5.11 8.133 0 12.594-3.079 15.852-5.327 2.577-1.779 3.872-2.673 7.33-2.673 3.461 0 4.756.894 7.335 2.673 3.259 2.248 7.721 5.327 15.854 5.327 8.14 0 12.605-3.077 15.867-5.323 2.587-1.782 3.885-2.677 7.358-2.677s4.771.895 7.357 2.676c2.828 1.948 6.565 4.517 12.812 5.167l6.67 19.847c4.677 13.915 3.431 28.704-3.509 41.641-6.938 12.934-18.565 22.148-32.741 25.951l-.004.001-.01.003c-14.18 3.798-28.861 1.633-41.339-6.101zm79.402 182.547a55.862 55.862 0 0 0 5.517-13.241 55.841 55.841 0 0 0 12.975 9.586l-19.44 5.209c.319-.515.643-1.026.948-1.554z"/></svg>