<svg width="482" height="9161" viewBox="0 0 482 9161" xmlns="http://www.w3.org/2000/svg" xmlns:xlink="http://www.w3.org/1999/xlink"><svg height="60" viewBox="-6 -6 60 60" width="60"><path clip-rule="evenodd" d="M43.102 14.113a22.285 22.285 0 0 0-1.064-1.688A3.984 3.984 0 0 0 44 9a4 4 0 0 0-4-4 3.982 3.982 0 0 0-3.425 1.963 21.782 21.782 0 0 0-1.688-1.064C35.939 4.167 37.826 3 40 3a6 6 0 0 1 6 6c0 2.174-1.168 4.061-2.898 5.113zM44 25c0 5.171-1.979 9.868-5.2 13.419l4.915 4.915a.977.977 0 0 1-1.381 1.381L37.419 39.8C33.868 43.021 29.171 45 24 45s-9.868-1.979-13.418-5.2l-4.916 4.915a.977.977 0 0 1-1.381-1.381L9.2 38.419C5.979 34.868 4 30.171 4 25 4 13.954 12.954 5 24 5s20 8.954 20 20zM24 7C14.059 7 6 15.059 6 25s8.059 18 18 18 18-8.059 18-18S33.941 7 24 7zm1 21.858V38a1 1 0 1 1-2 0v-9.142A3.99 3.99 0 0 1 20 25c0-.749.219-1.441.578-2.041l-4.293-4.292a.977.977 0 0 1 1.381-1.381l4.293 4.292A3.957 3.957 0 0 1 24 21a4 4 0 0 1 4 4 3.99 3.99 0 0 1-3 3.858zM24 23a2 2 0 1 0 .001 4.001A2 2 0 0 0 24 23zM8 5a4 4 0 0 0-4 4c0 1.462.793 2.727 1.963 3.425a21.974 21.974 0 0 0-1.064 1.688C3.168 13.061 2 11.174 2 9a6 6 0 0 1 6-6c2.174 0 4.061 1.167 5.113 2.899-.58.331-1.144.683-1.688 1.064A3.984 3.984 0 0 0 8 5z" fill-rule="evenodd"/></svg><svg height="60" viewBox="-6 -6 60 60" width="60" y="60"><path d="M20 28a2 2 0 1 0 .001 4.001A2 2 0 0 0 20 28z"/><path d="M20 26c2.206 0 4 1.794 4 4s-1.794 4-4 4-4-1.794-4-4 1.794-4 4-4m0-2a6 6 0 1 0 0 12 6 6 0 0 0 0-12z"/><path d="M20 20c5.514 0 10 4.486 10 10s-4.486 10-10 10-10-4.486-10-10 4.486-10 10-10m0-2c-6.627 0-12 5.373-12 12s5.373 12 12 12 12-5.373 12-12-5.373-12-12-12z"/><path d="M20 14c8.822 0 16 7.178 16 16s-7.178 16-16 16S4 38.822 4 30s7.178-16 16-16m0-2c-9.94 0-18 8.06-18 18s8.06 18 18 18 18-8.06 18-18-8.06-18-18-18z"/><path d="M41.292 7.293l1.415 1.414-22 22-1.415-1.414z"/><path d="M41 4.911V9h4.084c-1.31 2.891-3.447 6.24-5.66 6.24-.899 0-1.912-.557-3.01-1.654-1.975-1.975-1.683-3.165-1.587-3.556.486-1.983 3.44-3.884 6.173-5.119M43 2s-16 5-8 13c1.6 1.6 3.08 2.24 4.424 2.24C44.8 17.24 48 7 48 7h-5V2z"/><path d="M37 5h2v7h-2zM3 48a.999.999 0 0 1-.707-1.707l4.272-4.272a.999.999 0 1 1 1.414 1.414l-4.272 4.272A.997.997 0 0 1 3 48zm34 0a.997.997 0 0 1-.707-.293l-4.273-4.273a.999.999 0 1 1 1.414-1.414l4.273 4.273A.999.999 0 0 1 37 48z"/></svg><svg viewBox="-6 -6 298.44 298.44" width="298.44" height="298.44" y="120"><path d="M45.422 135.326a6 6 0 0 0-6 6v22.064a6 6 0 0 0 12 0v-22.064a6 6 0 0 0-6-6zm24.461-14.707a6 6 0 0 0-6 6v36.771a6 6 0 0 0 12 0v-36.771a6 6 0 0 0-6-6zm24.461-21.802a6 6 0 0 0-6 6v58.573a6 6 0 0 0 12 0v-58.573a6 6 0 0 0-6-6zm24.461-14.968a6 6 0 0 0-6 6v73.542a6 6 0 0 0 12 0V89.849a6 6 0 0 0-6-6z"/><path d="M281.728 196.948l-43.009-43.009c4.473-10.953 4.097-23.43-1.11-34.131v-47.09c0-8.808-7.166-15.974-15.974-15.974H15.974C7.166 56.743 0 63.909 0 72.717V187.4c0 8.808 7.166 15.974 15.974 15.974h65.068v14.322H63.764a6 6 0 0 0 0 12h110.081a6 6 0 0 0 0-12h-17.278v-14.322h65.068c5.674 0 10.653-2.982 13.487-7.453l23.816 23.816c3.142 3.142 7.268 4.712 11.395 4.712s8.253-1.571 11.395-4.712h.001c6.281-6.283 6.281-16.507-.001-22.789zm-8.486 14.304a4.12 4.12 0 0 1-5.819 0l-40.719-40.719 5.819-5.819 40.719 40.719a4.118 4.118 0 0 1 0 5.819zm-51.607-19.878H15.974A3.979 3.979 0 0 1 12 187.4V72.717a3.978 3.978 0 0 1 3.974-3.974h205.661a3.979 3.979 0 0 1 3.974 3.974v32.357c-16.362-12.656-40.032-11.492-55.035 3.51-16.276 16.278-16.276 42.763 0 59.04 7.886 7.885 18.369 12.228 29.521 12.228 5.526 0 10.888-1.07 15.852-3.106l9.663 9.662v.993a3.98 3.98 0 0 1-3.975 3.973zM93.042 217.696v-14.322h51.524v14.322H93.042zm128.087-58.558c-5.619 5.619-13.09 8.713-21.035 8.713-7.946 0-15.416-3.094-21.035-8.713-11.598-11.598-11.598-30.47 0-42.069 5.8-5.799 13.417-8.699 21.035-8.699 7.617 0 15.235 2.9 21.034 8.699 11.599 11.598 11.599 30.47.001 42.069z"/><path d="M199.306 151.167c-7.204-.435-12.711-6.648-12.276-13.852a6 6 0 0 0-11.979-.723c-.833 13.809 9.724 25.72 23.532 26.553a6 6 0 0 0 .723-11.978z"/></svg><svg height="60" viewBox="-6 -6 60 60" width="60" y="419"><path clip-rule="evenodd" d="M36.992 20.483v4.02l-3.485 2.011-2.01 3.482h-.511l.001.004v15l-.002.011a.97.97 0 0 1-.988.987l-.01.002a.978.978 0 0 1-.775-.395l-5.225-5.225-5.225 5.225a.977.977 0 0 1-.775.395l-.01-.002a.97.97 0 0 1-.988-.987L16.987 45V30l.001-.004h-.507l-2.012-3.482-3.484-2.011v-4.02l-2.011-3.482 2.011-3.483V9.495l3.484-2.013 2.012-3.479h4.025l3.48-2.012 3.484 2.012h4.025l2.01 3.479 3.485 2.013v4.022L39 17.001l-2.008 3.482zM18.987 30v12.619l4.19-4.19c.032-.047.053-.101.095-.144a.975.975 0 0 1 .715-.281.975.975 0 0 1 .715.281c.042.043.062.097.095.144l4.19 4.19V30l.001-.004h-1.517l-3.484 2.013-3.48-2.013h-1.521l.001.004zm16-15.948v-3.403l-2.948-1.703-1.699-2.943h-3.406l-2.945-1.701-2.943 1.701H17.64l-1.701 2.942-2.949 1.703v3.404l-1.701 2.949 1.701 2.947v3.4l2.949 1.702 1.701 2.945h3.405l2.943 1.701 2.945-1.701h3.405l1.699-2.945 2.949-1.702v-3.399l1.7-2.948-1.699-2.949z" fill-rule="evenodd"/></svg><svg height="60" viewBox="-6 -6 60 60" width="60" y="479"><path d="M44 46H4c-2.206 0-4-1.794-4-4V16c0-2.206 1.794-4 4-4h40c2.206 0 4 1.794 4 4v26c0 2.206-1.794 4-4 4zM4 14c-1.103 0-2 .897-2 2v26c0 1.103.897 2 2 2h40c1.103 0 2-.897 2-2V16c0-1.103-.897-2-2-2H4zm28-5h-2V7c0-.552-.449-1-1-1H19c-.551 0-1 .448-1 1v2h-2V7c0-1.654 1.346-3 3-3h10c1.654 0 3 1.346 3 3v2z"/><path d="M40 22H7a1 1 0 1 1 0-2h33a1 1 0 1 1 0 2zm0 8H7a1 1 0 1 1 0-2h33a1 1 0 1 1 0 2zm0 8H7a1 1 0 1 1 0-2h33a1 1 0 1 1 0 2zM16 9h2v4h-2zm14 0h2v4h-2z"/><path d="M17 8h14v2H17z"/></svg><svg height="60" viewBox="-6 -6 60 60" width="60" y="539"><path d="M24 20c-11.215 0-20-3.953-20-9s8.785-9 20-9 20 3.953 20 9-8.785 9-20 9zm0-16C15.486 4 6 6.875 6 11s9.486 7 18 7 18-2.875 18-7-9.486-7-18-7z"/><path d="M24 28c-11.215 0-20-3.953-20-9v-8a1 1 0 1 1 2 0v8c0 4.125 9.486 7 18 7s18-2.875 18-7v-8a1 1 0 1 1 2 0v8c0 5.047-8.785 9-20 9z"/><path d="M24 37c-11.215 0-20-3.953-20-9v-9a1 1 0 1 1 2 0v9c0 4.125 9.486 7 18 7s18-2.875 18-7v-9a1 1 0 1 1 2 0v9c0 5.047-8.785 9-20 9z"/><path d="M24 46c-11.215 0-20-3.953-20-9v-9a1 1 0 1 1 2 0v9c0 4.125 9.486 7 18 7s18-2.875 18-7v-9a1 1 0 1 1 2 0v9c0 5.047-8.785 9-20 9z"/></svg><svg height="60" viewBox="-6 -6 60 60" width="60" y="599"><path d="M18 48C9.178 48 2 40.822 2 32c0-6.906 4.486-13.043 11-15.186V14a1 1 0 0 1 1-1h8a1 1 0 0 1 1 1v2.814c6.514 2.143 11 8.28 11 15.186 0 8.822-7.177 16-16 16zm-3-33v2.556a1 1 0 0 1-.733.964C8.222 20.191 4 25.734 4 32c0 7.72 6.28 14 14 14s14-6.28 14-14c0-6.266-4.222-11.809-10.267-13.48a1.003 1.003 0 0 1-.733-.964V15h-6z"/><path d="M32 16c-2.757 0-5-2.243-5-5 0-2.206-1.794-4-4-4s-4 1.794-4 4v3a1 1 0 0 1-2 0v-3c0-3.309 2.691-6 6-6s6 2.691 6 6c0 1.654 1.346 3 3 3s3-1.346 3-3 1.346-3 3-3a1 1 0 0 1 0 2c-.551 0-1 .449-1 1 0 2.757-2.243 5-5 5zm6-10a1 1 0 0 1-1-1V1a1 1 0 0 1 2 0v4a1 1 0 0 1-1 1zm2.829 1.172a.999.999 0 0 1-.707-1.707l2.828-2.829a.999.999 0 1 1 1.414 1.414l-2.828 2.829a.999.999 0 0 1-.707.293zm-5.657 0a.997.997 0 0 1-.707-.293L31.637 4.05a.999.999 0 1 1 1.414-1.414l2.828 2.829a.999.999 0 0 1-.707 1.707zM46 10h-4a1 1 0 0 1 0-2h4a1 1 0 0 1 0 2zm-2.343 5.655a1 1 0 0 1-.707-.292l-2.83-2.827a1 1 0 1 1 1.415-1.415l2.83 2.827a1 1 0 0 1-.708 1.707zM8.978 39.29a.997.997 0 0 1-.821-.428 11.919 11.919 0 0 1-1.968-8.971 11.915 11.915 0 0 1 4.952-7.735 1 1 0 0 1 1.143 1.641C7.76 26.95 6.645 33.195 9.798 37.719a.999.999 0 0 1-.82 1.571z"/></svg><svg height="60" viewBox="-6 -6 60 60" width="60" y="659"><path clip-rule="evenodd" d="M46.443 6.719C40.506 15.546 22.623 33.4 22.623 33.4l-.007-.007c-.042.046-.08.094-.125.139-1.124 1.122-2.649 1.576-4.114 1.403.471 1.972-.026 4.137-1.529 5.678 0 0-7.52 9.299-15.854 3.44 0 0 4.494-1.259 4.885-4.885 0 0-.6-3.654 2.699-7.04a5.74 5.74 0 0 1 5.445-1.596c-.152-1.444.303-2.94 1.411-4.047.044-.045.093-.083.139-.126l-.007-.007S33.438 8.488 42.278 2.559a2.991 2.991 0 0 1 3.854.31 2.98 2.98 0 0 1 .311 3.85zM15.456 33.486c-.742-.742-1.704-1.165-2.733-1.165a3.809 3.809 0 0 0-2.744 1.171c-2.535 2.602-2.155 5.584-2.145 5.677-.218 2.02-1.363 3.741-2.557 4.776.422.077.849.116 1.285.116 4.75 0 8.752-4.66 8.789-4.704.001 0 2.739-3.236.105-5.871zm.538-3.478c0 .796.289 1.546.854 2.109.565.564 1.348.891 2.146.891s1.519-.326 2.066-.874l1.554-1.57.274-.28-4.197-4.197-.287.279-1.557 1.537c-.564.562-.853 1.309-.853 2.105zM44.72 4.286A.974.974 0 0 0 44.027 4c-.212 0-.414.064-.635.222-6.218 4.17-17.999 15.367-23.301 20.503l4.159 4.159c5.14-5.296 16.364-17.083 20.568-23.332a.974.974 0 0 0-.098-1.266z" fill-rule="evenodd"/></svg><svg height="60" viewBox="-6 -6 60 60" width="60" y="719"><path clip-rule="evenodd" d="M43 43H5a4 4 0 0 1-4-4V9a4 4 0 0 1 4-4h38a4 4 0 0 1 4 4v30a4 4 0 0 1-4 4zm2-34a2 2 0 0 0-2-2H5a2 2 0 0 0-2 2v6h42V9zm0 8H3v22a2 2 0 0 0 2 2h38a2 2 0 0 0 2-2V17zm-4 14h-2a1 1 0 0 1-1-1v-2a1 1 0 0 1 1-1h2a1 1 0 0 1 1 1v2a1 1 0 0 1-1 1zm0-7h-2a1 1 0 0 1-1-1v-2a1 1 0 0 1 1-1h2a1 1 0 0 1 1 1v2a1 1 0 0 1-1 1zm-8 7h-2a1 1 0 0 1-1-1v-2a1 1 0 0 1 1-1h2a1 1 0 0 1 1 1v2a1 1 0 0 1-1 1zm0-7h-2a1 1 0 0 1-1-1v-2a1 1 0 0 1 1-1h2a1 1 0 0 1 1 1v2a1 1 0 0 1-1 1zm-8 7h-2a1 1 0 0 1-1-1v-2a1 1 0 0 1 1-1h2a1 1 0 0 1 1 1v2a1 1 0 0 1-1 1zm0-7h-2a1 1 0 0 1-1-1v-2a1 1 0 0 1 1-1h2a1 1 0 0 1 1 1v2a1 1 0 0 1-1 1zm-8 14h-2a1 1 0 0 1-1-1v-2a1 1 0 0 1 1-1h2a1 1 0 0 1 1 1v2a1 1 0 0 1-1 1zm0-7h-2a1 1 0 0 1-1-1v-2a1 1 0 0 1 1-1h2a1 1 0 0 1 1 1v2a1 1 0 0 1-1 1zm0-7h-2a1 1 0 0 1-1-1v-2a1 1 0 0 1 1-1h2a1 1 0 0 1 1 1v2a1 1 0 0 1-1 1zM9 38H7a1 1 0 0 1-1-1v-2a1 1 0 0 1 1-1h2a1 1 0 0 1 1 1v2a1 1 0 0 1-1 1zm0-7H7a1 1 0 0 1-1-1v-2a1 1 0 0 1 1-1h2a1 1 0 0 1 1 1v2a1 1 0 0 1-1 1zm14 3h2a1 1 0 0 1 1 1v2a1 1 0 0 1-1 1h-2a1 1 0 0 1-1-1v-2a1 1 0 0 1 1-1z" fill-rule="evenodd"/></svg><svg viewBox="-6 -6 475.03 475.03" width="475.03" height="475.03" y="779"><path d="M401.494 236.593l-27.313-54.627a24.61 24.61 0 0 1-2.11-15.761l5.847-29.234c.097-.484.146-.977.146-1.471 0-74.715-60.785-135.5-135.5-135.5h-32c-83.538 0-151.5 67.962-151.5 151.5 0 41.804 10.038 76.379 19.746 109.816 9.958 34.297 20.254 69.763 20.254 114.184a7.499 7.499 0 0 0 3.589 6.399l128.458 78.502c2.87 1.754 6.046 2.633 9.229 2.633 2.967 0 5.94-.765 8.674-2.298 5.667-3.178 9.05-8.954 9.05-15.451V415.5c0-22.332 18.168-40.5 40.5-40.5h26.556c20.38 0 37.671-15.91 39.364-36.22l5.17-62.038 19.551-7.821a23.562 23.562 0 0 0 13.238-13.468 23.566 23.566 0 0 0-.949-18.86zm-13.073 13.53a8.415 8.415 0 0 1-4.789 4.872l-23.855 9.542a7.499 7.499 0 0 0-4.688 6.34l-5.555 66.657C348.484 350.132 337.76 360 325.118 360h-26.556c-30.603 0-55.5 24.897-55.5 55.5v29.786c0 1.384-.869 2.078-1.387 2.368-.518.291-1.564.67-2.744-.051l-124.898-76.327c-.616-44.551-10.882-79.912-20.819-114.142-9.849-33.922-19.151-65.964-19.151-105.634 0-75.266 61.233-136.5 136.5-136.5h32c66.201 0 120.104 53.659 120.498 119.768l-5.699 28.495a39.69 39.69 0 0 0 3.403 25.411l27.313 54.626a8.413 8.413 0 0 1 .343 6.823z"/><path d="M298.063 113.227V111.5c0-12.958-10.542-23.5-23.5-23.5h-51.178l2.2-5.867a7.5 7.5 0 0 0-14.045-5.267L207.365 88h-52.803c-12.958 0-23.5 10.542-23.5 23.5v64c0 12.958 10.542 23.5 23.5 23.5h59.178l-2.2 5.867a7.5 7.5 0 1 0 14.044 5.266L229.76 199h44.803c12.958 0 23.5-10.542 23.5-23.5v-1.727c9.292-3.137 16-11.936 16-22.273v-16c0-10.337-6.708-19.136-16-22.273zM154.563 184c-4.687 0-8.5-3.813-8.5-8.5v-64c0-4.687 3.813-8.5 8.5-8.5h47.178l-14.2 37.867A7.499 7.499 0 0 0 194.564 151h37.178l-12.375 33h-64.804zm144.5-32.5c0 4.687-3.813 8.5-8.5 8.5a7.5 7.5 0 0 0-7.5 7.5v8c0 4.687-3.813 8.5-8.5 8.5h-39.178l14.2-37.867A7.499 7.499 0 0 0 242.562 136h-37.178l12.375-33h56.803c4.687 0 8.5 3.813 8.5 8.5v8a7.5 7.5 0 0 0 7.5 7.5c4.687 0 8.5 3.813 8.5 8.5v16h.001z"/></svg><svg height="60" viewBox="-6 -6 60 60" width="60" y="1255"><path clip-rule="evenodd" d="M37 47H11a4 4 0 0 1-4-4V8a4 4 0 0 1 4-4h3a1 1 0 1 1 0 2h-3a2 2 0 0 0-2 2v35a2 2 0 0 0 2 2h26a2 2 0 0 0 2-2V8a2 2 0 0 0-2-2h-3a1 1 0 1 1 0-2h3a4 4 0 0 1 4 4v35a4 4 0 0 1-4 4zM35 9a1 1 0 0 1-1 1H14a1 1 0 1 1 0-2s1.125-.125 2-1l2-2s.781-1 2-1h1a3 3 0 0 1 6 0h1c1.312 0 2 1 2 1l2 2c.875.875 2 1 2 1a1 1 0 0 1 1 1zM24 3a1 1 0 0 0-1 1h2a1 1 0 0 0-1-1zm5.363 4s-.679-1-1.817-1h-7.091c-1.14 0-1.818 1-1.818 1l-.909 1h12.545l-.91-1z" fill-rule="evenodd"/></svg><svg viewBox="-6 -6 199.85 199.85" width="199.85" height="199.85" y="1315"><path d="M185.975 75.172a6.002 6.002 0 0 0-7.077-4.682 6 6 0 0 0-4.682 7.077c6.364 31.255-6.146 63.636-31.873 82.495-17.538 12.856-39.179 18.089-60.937 14.739-21.758-3.352-40.821-14.856-53.677-32.395C.999 105.938 8.919 54.523 45.385 27.791c17.538-12.855 39.18-18.088 60.937-14.739 21.13 3.255 39.701 14.217 52.531 30.91l-5.516-.793a5.996 5.996 0 0 0-6.793 5.085 6 6 0 0 0 5.085 6.793l19.915 2.864c.132.019.262.018.394.028.156.012.313.034.468.034a6.003 6.003 0 0 0 5.932-5.147l2.864-19.915a6 6 0 1 0-11.878-1.708l-.811 5.639C153.788 17.58 132.439 4.933 108.15 1.192c-24.925-3.842-49.735 2.17-69.858 16.92C18.168 32.865 4.97 54.716 1.131 79.641-2.708 104.567 3.3 129.376 18.052 149.5c14.751 20.123 36.602 33.32 61.528 37.16a96.45 96.45 0 0 0 14.691 1.131c19.833 0 39.012-6.209 55.167-18.052 29.49-21.618 43.832-58.738 36.537-94.567z"/><path d="M126.601 96.171h-20.48a14.978 14.978 0 0 0-7.633-7.633V42.504a6 6 0 0 0-12 0v46.034c-5.236 2.314-8.904 7.55-8.904 13.633 0 8.218 6.686 14.904 14.904 14.904 6.083 0 11.319-3.668 13.633-8.904h20.48a6 6 0 0 0 0-12zm-37.018 6c0-1.602 1.303-2.905 2.904-2.905s2.905 1.303 2.905 2.905-1.303 2.904-2.905 2.904-2.904-1.303-2.904-2.904z"/></svg><svg viewBox="-6 -6 215.54 215.54" width="215.54" height="215.54" y="1515"><path d="M194.139 11.918h-39.315V6a6 6 0 0 0-12 0v5.918h-35.053V6a6 6 0 0 0-12 0v5.918H62.208V6a6 6 0 0 0-12 0v5.918H9.404a6 6 0 0 0-6 6V153.49a6 6 0 0 0 6 6H46.23c5.901 25.214 28.555 44.053 55.541 44.053s49.64-18.84 55.541-44.053h36.826a6 6 0 0 0 6-6V17.918a5.999 5.999 0 0 0-5.999-6zm-143.931 12v5.422a6 6 0 0 0 12 0v-5.422h33.563v5.422a6 6 0 0 0 12 0v-5.422h35.053v5.422a6 6 0 0 0 12 0v-5.422h33.315v24.536H15.404V23.918h34.804zm51.563 167.625c-24.842 0-45.053-20.211-45.053-45.053s20.211-45.053 45.053-45.053 45.053 20.21 45.053 45.053-20.21 45.053-45.053 45.053zm57.028-44.053c.006-.334.025-.665.025-1 0-31.459-25.594-57.053-57.053-57.053s-57.053 25.594-57.053 57.053c0 .335.02.666.025 1h-29.34V60.455h172.735v87.035h-29.339z"/><path d="M107.771 148.004v-29.026a6 6 0 0 0-12 0v31.512c0 1.591.632 3.117 1.757 4.243l13.79 13.791a5.984 5.984 0 0 0 4.243 1.757 6 6 0 0 0 4.243-10.242l-12.033-12.035z"/></svg><svg viewBox="-6 -6 306.84 306.84" width="306.84" height="306.84" y="1731"><path d="M147.421 0C66.133 0 0 66.133 0 147.421s66.133 147.421 147.421 147.421c38.287 0 74.567-14.609 102.159-41.136a6 6 0 1 0-8.316-8.65c-25.345 24.367-58.672 37.786-93.842 37.786C72.75 282.843 12 222.093 12 147.421S72.75 12 147.421 12s135.421 60.75 135.421 135.421c0 16.842-3.052 33.273-9.071 48.835a6 6 0 0 0 11.193 4.329c6.555-16.949 9.879-34.836 9.879-53.165C294.843 66.133 228.71 0 147.421 0z"/><path d="M167.619 160.134a6 6 0 0 0-8.395 8.575l47.236 46.236a5.981 5.981 0 0 0 4.197 1.712 6.001 6.001 0 0 0 4.198-10.288l-47.236-46.235zm-42.441-26.471c1.171 1.171 2.707 1.757 4.243 1.757s3.071-.586 4.243-1.757a6 6 0 0 0 0-8.485L88.428 79.942a6 6 0 0 0-8.485 8.485l45.235 45.236zM214.9 79.942a6 6 0 0 0-8.485 0L79.942 206.415a6 6 0 1 0 8.486 8.485L214.9 88.428a6.001 6.001 0 0 0 0-8.486z"/></svg><svg height="60" viewBox="-6 -6 60 60" width="60" y="2038"><path clip-rule="evenodd" d="M35 40H11v-.051C5.947 39.447 2 35.186 2 30c0-5.187 3.948-9.449 9.002-9.949L11 20c0-6.627 5.373-12 12-12 5.947 0 10.871 4.331 11.821 10.009.061-.001.118-.009.179-.009 6.075 0 11 4.925 11 11s-4.925 11-11 11zm0-20c-.336 0-.667.021-.993.06l-.002-.005c-.013.001-.023.008-.036.008a.998.998 0 0 1-.998-.99l-.018-.002C32.483 13.983 28.209 10 23 10c-5.523 0-10 4.477-10 10 0 .297.021.587.048.876l-.01.003c.005.041.024.078.024.121a.996.996 0 0 1-.973.994l-.004.014C12.057 22.007 12.029 22 12 22a8 8 0 0 0-8 8c0 4.079 3.055 7.438 7 7.931V38h24c4.971 0 9-4.029 9-9s-4.029-9-9-9z" fill-rule="evenodd"/></svg><svg viewBox="-6 -6 482 482" width="482" height="482" y="2098"><path d="M167.313 209.123a7.498 7.498 0 0 0-10.281-2.605l-87.369 52.039a7.499 7.499 0 0 0-.001 12.886l87.369 52.039a7.495 7.495 0 0 0 10.281-2.605 7.5 7.5 0 0 0-2.605-10.281L88.156 265l76.551-45.596a7.499 7.499 0 0 0 2.606-10.281zm135.375 111.754a7.494 7.494 0 0 0 10.281 2.605l87.369-52.039a7.5 7.5 0 0 0 0-12.886l-87.369-52.039a7.498 7.498 0 0 0-10.281 2.605 7.5 7.5 0 0 0 2.605 10.281L381.844 265l-76.551 45.596a7.497 7.497 0 0 0-2.605 10.281zM263.72 208.78l-69.893 104.078a7.5 7.5 0 1 0 12.453 8.362l69.893-104.078a7.5 7.5 0 1 0-12.453-8.362z"/><path d="M462.5 22.5H7.5A7.5 7.5 0 0 0 0 30v410a7.5 7.5 0 0 0 7.5 7.5h455a7.5 7.5 0 0 0 7.5-7.5v-80c0-4.142-3.357-7.5-7.5-7.5s-7.5 3.358-7.5 7.5v72.5H15v-335h440V330c0 4.142 3.357 7.5 7.5 7.5s7.5-3.358 7.5-7.5V30a7.5 7.5 0 0 0-7.5-7.5zM15 37.5h277.5v45H15v-45zm292.5 45v-45H455v45H307.5z"/><path d="M381.5 52c-4.411 0-8 3.589-8 8s3.589 8 8 8 8-3.589 8-8-3.589-8-8-8zm-41 0c-4.411 0-8 3.589-8 8s3.589 8 8 8 8-3.589 8-8-3.589-8-8-8zm82 0c-4.411 0-8 3.589-8 8s3.589 8 8 8 8-3.589 8-8-3.589-8-8-8z"/></svg><svg viewBox="-6 -6 475 475" width="475" height="475" y="2580"><path d="M367.5 232a63.39 63.39 0 0 0-16.5 2.177V231.5c0-12.958-10.542-23.5-23.5-23.5h-272C42.542 208 32 218.542 32 231.5v112c0 32.59 15.237 64.305 40 83.741V439.5c0 12.958 10.542 23.5 23.5 23.5h192c12.958 0 23.5-10.542 23.5-23.5v-12.259c17.495-13.731 30.226-33.594 36.197-55.563A63.08 63.08 0 0 0 367.5 375c35.014 0 63.5-28.486 63.5-63.5v-16c0-35.014-28.486-63.5-63.5-63.5zM351 295.5c0-9.098 7.402-16.5 16.5-16.5s16.5 7.402 16.5 16.5v16c0 9.098-7.402 16.5-16.5 16.5s-16.5-7.402-16.5-16.5v-16zM287.5 448h-192c-4.687 0-8.5-3.813-8.5-8.5V431h209v8.5c0 4.687-3.813 8.5-8.5 8.5zM336 343.5c0 28.378-13.351 55.925-34.987 72.5H81.987C60.351 399.424 47 371.878 47 343.5v-112c0-4.687 3.813-8.5 8.5-8.5h272c4.687 0 8.5 3.813 8.5 8.5v112zm80-32c0 26.743-21.757 48.5-48.5 48.5a48.098 48.098 0 0 1-17.35-3.21c.555-4.395.85-8.833.85-13.29v-5.181A31.31 31.31 0 0 0 367.5 343c17.369 0 31.5-14.131 31.5-31.5v-16c0-17.369-14.131-31.5-31.5-31.5a31.31 31.31 0 0 0-16.5 4.681v-18.792A48.14 48.14 0 0 1 367.5 247c26.743 0 48.5 21.757 48.5 48.5v16zM186.434 148.65C178.221 156.175 168 165.54 168 183.5c0 4.142 3.357 7.5 7.5 7.5s7.5-3.358 7.5-7.5c0-11.36 5.987-16.845 13.566-23.79 8.213-7.525 18.434-16.89 18.434-34.85 0-17.969-10.22-27.339-18.432-34.869C188.987 83.042 183 77.551 183 66.18c0-11.372 5.988-16.862 13.568-23.813C204.78 34.839 215 25.469 215 7.5c0-4.142-3.357-7.5-7.5-7.5S200 3.358 200 7.5c0 11.371-5.987 16.861-13.568 23.812C178.22 38.841 168 48.211 168 66.18s10.22 27.339 18.432 34.868c7.58 6.951 13.568 12.441 13.568 23.813 0 11.359-5.987 16.845-13.566 23.789zm48 0C226.221 156.175 216 165.54 216 183.5c0 4.142 3.357 7.5 7.5 7.5s7.5-3.358 7.5-7.5c0-11.36 5.987-16.845 13.566-23.79 8.213-7.524 18.434-16.89 18.434-34.85 0-17.969-10.22-27.339-18.432-34.869C236.987 83.042 231 77.551 231 66.18c0-4.142-3.357-7.5-7.5-7.5s-7.5 3.358-7.5 7.5c0 17.969 10.22 27.339 18.432 34.868 7.58 6.951 13.568 12.441 13.568 23.813 0 11.359-5.987 16.845-13.566 23.789zm-96 0C130.221 156.175 120 165.54 120 183.5a7.5 7.5 0 0 0 7.5 7.5 7.5 7.5 0 0 0 7.5-7.5c0-11.36 5.987-16.845 13.566-23.79 8.213-7.524 18.434-16.89 18.434-34.85 0-17.969-10.22-27.339-18.432-34.869C140.987 83.042 135 77.551 135 66.18c0-4.142-3.357-7.5-7.5-7.5s-7.5 3.358-7.5 7.5c0 17.969 10.22 27.339 18.432 34.868 7.58 6.951 13.568 12.441 13.568 23.813 0 11.359-5.987 16.845-13.566 23.789z"/></svg><svg viewBox="-6 -6 256.68 256.68" width="256.68" height="256.68" y="3055"><path d="M244.054 118.587l-25.417-79.232a13.061 13.061 0 0 0-6.508-7.676 13.075 13.075 0 0 0-10.029-.827L72.89 72.302c-6.904 2.215-10.718 9.633-8.504 16.537l5.171 16.12H13.148C5.898 104.959 0 110.857 0 118.107v83.209c0 7.25 5.898 13.148 13.148 13.148h144.695c7.25 0 13.148-5.898 13.148-13.148v-45.482l64.558-20.71c6.904-2.214 10.719-9.632 8.505-16.537zm-86.21 83.878H13.148A1.15 1.15 0 0 1 12 201.317v-83.209a1.15 1.15 0 0 1 1.148-1.148h144.695a1.15 1.15 0 0 1 1.148 1.148v83.209a1.148 1.148 0 0 1-1.147 1.148zm48.797-160.114c.193.099.448.296.568.67l5.072 15.81-131.396 42.153-5.072-15.811a1.149 1.149 0 0 1 .743-1.444l129.209-41.45a1.14 1.14 0 0 1 .876.072zm-48.797 62.608H107.78l108.167-34.7 16.68 51.994a1.15 1.15 0 0 1-.743 1.445l-60.892 19.534v-25.125c0-7.25-5.898-13.148-13.148-13.148z"/><path d="M56.54 134.712H30.874a6 6 0 0 0 0 12H56.54a6 6 0 0 0 0-12zm28.667 12a6 6 0 0 0 0-12h-9.333a6 6 0 0 0 0 12h9.333zm64 14a6 6 0 0 0-6-6h-29.333a6 6 0 0 0-6 6v26a6 6 0 0 0 6 6h29.333a6 6 0 0 0 6-6v-26zm-12 6v14h-17.333v-14h17.333z"/></svg><svg height="60" viewBox="-6 -6 60 60" width="60" y="3312"><path clip-rule="evenodd" d="M44.9 32.971c0 .011.006.019.006.029 0 .005-.003.01-.003.016.001.005.003.01.003.016a1 1 0 0 1-1 1C43.921 34.031 35 34 35 34a1 1 0 1 1 0-2h7.946c.019-.334.054-.662.054-1 0-10.493-8.507-19-19-19S5 20.507 5 31c0 .338.035.666.053 1H13a1 1 0 1 1 0 2l-8.906.031a1 1 0 0 1-1-1c0-.006.002-.011.003-.016 0-.006-.003-.011-.003-.016 0-.011.006-.019.006-.028A21.06 21.06 0 0 1 3 31c0-11.599 9.402-21 21-21s21 9.401 21 21c0 .665-.039 1.321-.1 1.971zM17.523 21.128a1.052 1.052 0 0 1 1.189.133l-.05-.083c8.774 6.42 10.577 9.373 10.61 9.428 1.433 2.357.581 5.371-1.899 6.731s-5.653.553-7.085-1.804c-.035-.053-1.824-3.014-3.291-13.442l.051.082a.948.948 0 0 1 .475-1.045zm4.563 13.421c.555.911 1.589 1.478 2.699 1.478a3.23 3.23 0 0 0 1.552-.397 2.959 2.959 0 0 0 1.45-1.794 2.8 2.8 0 0 0-.303-2.232c-.017-.025-1.572-2.386-8.062-7.348 1.281 7.815 2.653 10.273 2.664 10.293z" fill-rule="evenodd"/></svg><svg height="60" viewBox="-6 -6 60 60" width="60" y="3372"><path d="M43 48H29a1 1 0 0 1-1-1V1a1 1 0 0 1 1-1h14a1 1 0 0 1 1 1v46a1 1 0 0 1-1 1zm-13-2h12V2H30v44z"/><path d="M29 8h5v2h-5zm0 6h5v2h-5zm0 6h5v2h-5zm0 6h5v2h-5zm0 6h5v2h-5zm0 6h5v2h-5zm-14 8h-4c-2.757 0-5-2.243-5-5V12c0-.197.059-.391.168-.555l6-9c.371-.557 1.293-.557 1.664 0l6 9c.109.164.168.358.168.555v29c0 2.757-2.243 5-5 5zM8 12.303V41c0 1.654 1.346 3 3 3h4c1.654 0 3-1.346 3-3V12.303l-5-7.5-5 7.5z"/><path d="M19 40H7a1 1 0 1 1 0-2h12a1 1 0 1 1 0 2zm0-4H7a1 1 0 1 1 0-2h12a1 1 0 1 1 0 2z"/><path d="M11 36a1 1 0 0 1-1-1V16a1 1 0 1 1 2 0v19a1 1 0 0 1-1 1zm4 0a1 1 0 0 1-1-1V16a1 1 0 1 1 2 0v19a1 1 0 0 1-1 1zM10 7h6v2h-6z"/><path d="M10 17c-2.206 0-4-1.794-4-4a1 1 0 1 1 2 0c0 1.103.897 2 2 2s2-.897 2-2a1 1 0 1 1 2 0c0 2.206-1.794 4-4 4z"/><path d="M16 17c-2.206 0-4-1.794-4-4a1 1 0 1 1 2 0c0 1.103.897 2 2 2s2-.897 2-2a1 1 0 1 1 2 0c0 2.206-1.794 4-4 4z"/></svg><svg height="60" viewBox="-6 -6 60 60" width="60" y="3432"><path clip-rule="evenodd" d="M24 45C12.402 45 3 35.598 3 24S12.402 3 24 3s21 9.402 21 21-9.402 21-21 21zm0-40C13.507 5 5 13.507 5 24s8.507 19 19 19 19-8.507 19-19S34.493 5 24 5zm16 20h-1a1 1 0 1 1 0-2h1a1 1 0 1 1 0 2zm-6.021 8.204a.944.944 0 0 1-.261.514.974.974 0 0 1-1.129.172l.058.059.008.008c-.162-.067-.306-.13-.464-.195-5.189-2.162-8.213-3.856-9.867-4.938-1.313-.858-1.775-1.333-1.794-1.353-.045-.043-2.488-2.412-6.485-12.125l.067.067c-.01-.02-.012-.042-.02-.062a.965.965 0 0 1-.038-.661.932.932 0 0 1 .229-.407.967.967 0 0 1 1.101-.181c.009.004.02.005.028.01l-.023-.025-.043-.042h.001-.001c9.713 3.997 12.082 6.44 12.125 6.485.045.043 2.488 2.413 6.485 12.125l-.001-.001.001.001-.044-.044-.023-.022c.023.047.032.097.048.146a.986.986 0 0 1 .042.469zm-7.933-11.271c-.021-.021-2.016-1.927-9.187-5.073 3.146 7.171 5.055 9.167 5.095 9.208.021.021 2.016 1.928 9.187 5.073-3.146-7.172-5.055-9.167-5.095-9.208zM24 23a1 1 0 1 1 0 2 1 1 0 1 1 0-2zm0-13a1 1 0 0 1-1-1V8a1 1 0 1 1 2 0v1a1 1 0 0 1-1 1zm0 28a1 1 0 0 1 1 1v1a1 1 0 1 1-2 0v-1a1 1 0 0 1 1-1zM9 25H8a1 1 0 1 1 0-2h1a1 1 0 1 1 0 2z" fill-rule="evenodd"/></svg><svg height="60" viewBox="-6 -6 60 60" width="60" y="3492"><path clip-rule="evenodd" d="M42 43H6a5 5 0 0 1-5-5V15a1 1 0 0 1 1-1h3V9a4 4 0 0 1 4-4h10a4 4 0 0 1 4 4v1h23a1 1 0 0 1 1 1v27a5 5 0 0 1-5 5zM3 16v22a3 3 0 0 0 3 3h32.022A4.962 4.962 0 0 1 37 38V16H3zm42-4H21V9a2 2 0 0 0-2-2H9a2 2 0 0 0-2 2v5h31c.278 0 .529.114.71.298.179.181.29.428.29.702v23a3 3 0 1 0 6 0V12z" fill-rule="evenodd"/></svg><svg height="60" viewBox="-6 -6 60 60" width="60" y="3552"><path d="M32.667 22.333c-6.065 0-11-4.935-11-11s4.935-11 11-11 11 4.935 11 11-4.935 11-11 11zm0-20c-4.963 0-9 4.037-9 9s4.037 9 9 9 9-4.037 9-9-4.037-9-9-9zm14 7a1 1 0 1 0 0 2 1 1 0 0 0 0-2zm0 37a1 1 0 0 1-1-1v-32a1 1 0 1 1 2 0v32a1 1 0 0 1-1 1zm-37.377.381c-4.745 0-8.24-2.963-9.591-8.128a1.001 1.001 0 0 1 1.794-.816c.912 1.338 2.277 2.104 3.748 2.105.929 0 1.78-.32 2.396-.901.674-.634 1.029-1.547 1.029-2.641 0-4.193 3.334-6.456 6.471-6.456 1.331 0 2.553.392 3.529 1.117.976-.726 2.197-1.117 3.529-1.117 3.137 0 6.471 2.263 6.471 6.456 0 2.446 1.721 3.542 3.426 3.542 1.47 0 2.836-.768 3.748-2.105a1 1 0 1 1 1.794.816c-1.351 5.165-4.847 8.127-9.592 8.128-3.624 0-7.312-1.83-9.376-4.515-2.063 2.685-5.751 4.514-9.376 4.515zm9.377-7.381c.379 0 .725.214.895.553 1.376 2.752 5.022 4.828 8.481 4.828 1.671 0 4.327-.492 6.176-3.223a6.132 6.132 0 0 1-2.126.384c-2.696 0-5.426-1.904-5.426-5.542 0-2.926-2.249-4.456-4.471-4.456-1.127 0-2.119.402-2.795 1.134-.377.412-1.09.411-1.469.001-.676-.731-1.668-1.135-2.795-1.135-2.222 0-4.471 1.53-4.471 4.456 0 1.658-.573 3.075-1.658 4.097-.988.932-2.327 1.445-3.768 1.445h-.001a6.154 6.154 0 0 1-2.125-.384c1.849 2.73 4.504 3.223 6.176 3.223 3.459-.001 7.105-2.076 8.481-4.828.171-.339.517-.553.896-.553z"/><path d="M32.667 18.333a1 1 0 1 1 0-2c2.757 0 5-2.243 5-5a1 1 0 1 1 2 0c0 3.859-3.141 7-7 7z"/></svg><svg viewBox="-6 -6 276.36 276.36" width="276.36" height="276.36" y="3612"><path d="M259.081 76.652L205.269 22.84c-3.407-3.407-7.936-5.283-12.754-5.283s-9.347 1.876-12.753 5.283l-12.646 12.645a17.908 17.908 0 0 0-4.203 6.67l-59.168-10.593-.013-.002c-26.604-5.281-52.579 12.015-57.944 38.622l-2.729 13.537c-3.014 14.949 6.697 29.562 21.646 32.576 14.95 3.012 29.563-6.697 32.577-21.646l1.668-8.278 26.533 2.32 69.29 69.29 12.558 12.558a6.53 6.53 0 0 1 0 9.224 6.53 6.53 0 0 1-9.223 0l-33.639-33.639a6 6 0 0 0-8.485 8.485l33.639 33.639a6.48 6.48 0 0 1 1.91 4.612 6.477 6.477 0 0 1-1.91 4.611 6.53 6.53 0 0 1-9.223 0l-33.639-33.639a6 6 0 0 0-8.485 8.485l33.639 33.639a6.529 6.529 0 0 1 0 9.223 6.479 6.479 0 0 1-4.611 1.91 6.48 6.48 0 0 1-4.612-1.91l-33.639-33.639a6 6 0 0 0-8.485 8.485l33.639 33.639a6.53 6.53 0 0 1 0 9.224 6.53 6.53 0 0 1-9.223 0L25.961 113.867 10.243 98.149a6 6 0 0 0-8.485 8.485l15.718 15.718 17.105 17.105-9.429 9.429a16.24 16.24 0 0 0-4.788 11.559c0 4.367 1.7 8.472 4.788 11.559l3.077 3.077a16.225 16.225 0 0 0 9.925 4.707 16.22 16.22 0 0 0 4.707 9.924l3.077 3.078a16.264 16.264 0 0 0 9.923 4.695 16.218 16.218 0 0 0 4.709 9.936l3.077 3.077a16.225 16.225 0 0 0 9.925 4.707 16.225 16.225 0 0 0 4.707 9.925l3.077 3.077c3.187 3.187 7.373 4.78 11.559 4.78s8.372-1.593 11.559-4.78l9.429-9.429 22.595 22.595c3.499 3.499 8.15 5.425 13.097 5.425s9.599-1.927 13.097-5.425c3.314-3.314 5.196-7.667 5.387-12.321 4.655-.191 9.007-2.073 12.322-5.387 3.416-3.416 5.195-7.845 5.38-12.329 4.483-.185 8.913-1.964 12.328-5.379 3.416-3.416 5.195-7.845 5.38-12.329 4.484-.185 8.914-1.964 12.329-5.38 7.222-7.222 7.222-18.972 0-26.194l-8.315-8.315 30.423-30.423 21.156-21.156c7.031-7.033 7.031-18.476-.001-25.508zM33.637 163.518a4.351 4.351 0 0 1 0-6.147l8.842-8.842 9.224 9.224-8.842 8.842a4.352 4.352 0 0 1-6.147 0l-3.077-3.077zm17.709 17.709a4.35 4.35 0 0 1 0-6.146l8.842-8.842 9.224 9.224-8.841 8.842a4.352 4.352 0 0 1-6.147 0l-3.078-3.078zm17.708 17.709c-.821-.821-1.273-1.913-1.273-3.073s.452-2.252 1.273-3.073l8.842-8.842 9.223 9.223-8.842 8.842a4.352 4.352 0 0 1-6.146 0l-3.077-3.077zm26.933 20.786a4.352 4.352 0 0 1-6.147 0l-3.077-3.077a4.351 4.351 0 0 1 0-6.147l8.842-8.842 9.224 9.224-8.842 8.842zm103.029-74.469l-66.592-66.592a5.992 5.992 0 0 0-3.72-1.734L94.651 73.95a6.002 6.002 0 0 0-6.404 4.792l-2.729 13.537c-1.706 8.462-9.974 13.958-18.442 12.253a15.553 15.553 0 0 1-9.946-6.683 15.553 15.553 0 0 1-2.307-11.759l2.729-13.536c4.066-20.169 23.774-33.275 43.951-29.204.042.008.085.017.128.024l58.306 10.439 7.179 7.179 58.081 58.081-26.181 26.18zm51.579-51.579l-16.914 16.914L175.6 52.507a5.998 5.998 0 0 1-1.768-4.269 6 6 0 0 1 1.768-4.269l12.646-12.646c1.14-1.14 2.656-1.768 4.268-1.768s3.128.628 4.269 1.768l53.812 53.812a5.998 5.998 0 0 1 1.768 4.269 6 6 0 0 1-1.768 4.27z"/><circle cx="236.071" cy="91.787" r="6"/></svg><svg viewBox="-6 -6 247.32 247.32" width="247.32" height="247.32" y="3889"><path d="M201.094 29.997a5.998 5.998 0 0 0 4.623-5.835V6a6 6 0 0 0-6-6H35.603a6 6 0 0 0-6 6v18.163a5.998 5.998 0 0 0 4.623 5.835c1.812 32.314 18.594 61.928 45.682 80.076l11.324 7.586-11.324 7.586c-27.089 18.147-43.871 47.762-45.682 80.076a5.998 5.998 0 0 0-4.623 5.835v18.163a6 6 0 0 0 6 6h164.114a6 6 0 0 0 6-6v-18.163a5.998 5.998 0 0 0-4.623-5.835c-1.812-32.314-18.594-61.928-45.683-80.076l-11.324-7.586 11.324-7.586c27.089-18.148 43.871-47.763 45.683-80.077zM41.603 12h152.114v6.163H41.603V12zm152.114 211.319H41.603v-6.163h152.114v6.163zm-63.749-110.644a6 6 0 0 0 0 9.97l18.765 12.571c23.71 15.883 38.49 41.705 40.333 69.941H46.254c1.843-28.235 16.623-54.057 40.333-69.941l18.765-12.571a6 6 0 0 0 0-9.97l-18.765-12.571c-23.71-15.884-38.49-41.706-40.333-69.941h142.812c-1.843 28.236-16.623 54.057-40.333 69.941l-18.765 12.571z"/><path d="M133.307 82.66h-31.295a6.001 6.001 0 0 0-4.001 10.471l15.647 14c1.139 1.019 2.57 1.528 4 1.528s2.862-.509 4-1.528l15.647-14a6 6 0 0 0-3.998-10.471zm-15.893 57.921l-15.218 9.775a48.017 48.017 0 0 0-21.292 39.892h76.511a48.017 48.017 0 0 0-21.292-39.892l-15.218-9.775a3.396 3.396 0 0 0-3.491 0z"/></svg><svg viewBox="-6 -6 243.33 243.33" width="243.33" height="243.33" y="4137"><path d="M225.334 104.935a6 6 0 0 0-6 6v51.199h-37.128v-24.056a6 6 0 0 0-12 0v42.004a6 6 0 0 0 12 0v-5.947h37.128v45.2H116.478v-55.89a6 6 0 0 0-12 0v22.585H63.281a6 6 0 0 0 0 12h41.196v21.305H12v-30.189a6 6 0 0 0-12 0v36.189a6 6 0 0 0 6 6h219.334a6 6 0 0 0 6-6v-114.4a6 6 0 0 0-6-6zm0-104.935H6a6 6 0 0 0-6 6v131.12a6 6 0 0 0 12 0v-15.453h14.156a6 6 0 0 0 0-12H12V62.28h37.416v27.792a6 6 0 0 0 6 6h21.333a6 6 0 0 0 0-12H61.416V56.28a6 6 0 0 0-6-6H12V12h69.127v25.253a6 6 0 0 0 12 0V12h56.323v27.433h-11.297a6 6 0 0 0 0 12h33.729a6 6 0 0 0 0-12H161.45V12h57.884v50.602a6 6 0 0 0 12 0V6a6 6 0 0 0-6-6z"/><path d="M203.85 79.453h-83.283a6 6 0 0 0-6 6v39.037H77.758a6 6 0 0 0-6 6v25.71H6a6 6 0 0 0 0 12h71.758a6 6 0 0 0 6-6v-25.71h36.81a6 6 0 0 0 6-6V91.453h83.457l-6.174 6.174-4.242 4.242a5.998 5.998 0 0 0 4.242 10.242 5.982 5.982 0 0 0 4.242-1.757l18.325-18.324a9.24 9.24 0 0 0 2.725-6.577c0-2.484-.968-4.82-2.725-6.577l-18.325-18.325a5.999 5.999 0 0 0-8.484 0 5.998 5.998 0 0 0 0 8.485l4.242 4.242 6.174 6.175h-6.175z"/></svg><svg viewBox="-6 -6 272.77 272.77" width="272.77" height="272.77" y="4381"><path d="M172.489 50.811c-22.048-14.561-49.42-16.623-75.095-5.66-16.099 6.874-28.84 19.31-35.877 35.019-7.332 16.367-9.425 33.665-6.054 50.025 3.154 15.306 10.844 29.117 22.237 39.941 10.603 10.073 16.685 24.489 16.685 39.551v15.49c0 4.275 1.916 8.259 5.257 10.93l11.411 9.118c.476.38.749.947.749 1.555 0 7.714 6.276 13.99 13.99 13.99h9.187c7.714 0 13.99-6.276 13.99-13.99 0-.608.272-1.175.747-1.555l11.413-9.119a13.924 13.924 0 0 0 5.256-10.929v-15.494c0-14.952 6.188-29.469 16.979-39.829 15.166-14.561 23.518-34.153 23.518-55.168 0-25.774-12.858-49.654-34.393-63.875zm-35.52 195.969c0 1.098-.893 1.99-1.99 1.99h-9.187a1.993 1.993 0 0 1-1.99-1.99c0-4.275-1.916-8.259-5.257-10.93l-11.411-9.118a1.98 1.98 0 0 1-.749-1.555v-9.679h48v9.679c0 .608-.273 1.175-.748 1.555l-11.413 9.119a13.922 13.922 0 0 0-5.255 10.929zm17.719-43.281h-48.599c-1.472-16.059-8.615-31.129-20.123-42.063-20.641-19.609-25.813-48.868-13.498-76.36 5.799-12.945 16.325-23.205 29.638-28.889 9.354-3.994 18.951-5.974 28.33-5.974 12.582 0 24.77 3.564 35.44 10.611 18.163 11.994 29.006 32.129 29.006 53.863 0 17.717-7.042 34.235-19.829 46.512-11.639 11.175-18.867 26.327-20.365 42.3zM130.385 29.333a6 6 0 0 0 6-6V6a6 6 0 0 0-12 0v17.333a6 6 0 0 0 6 6zm72.611 4.258L190.74 45.848a6 6 0 1 0 8.486 8.485l12.256-12.257a6 6 0 1 0-8.486-8.485zm36.077 75.097H221.74a6 6 0 0 0 0 12h17.333a6 6 0 0 0 0-12zm-39.848 66.354a6 6 0 0 0-8.485 8.485l12.256 12.256c1.171 1.171 2.707 1.757 4.243 1.757s3.071-.586 4.243-1.757a6 6 0 0 0 0-8.485l-12.257-12.256zm-137.68 0l-12.256 12.256a6 6 0 1 0 8.486 8.485l12.256-12.256a6 6 0 1 0-8.486-8.485zm-22.514-66.354H21.698a6 6 0 0 0 0 12h17.333a6 6 0 0 0 0-12zm22.514-54.355a5.984 5.984 0 0 0 4.243 1.757 6 6 0 0 0 4.243-10.242L57.774 33.591a6 6 0 0 0-8.485 8.485l12.256 12.257z"/><path d="M129.774 74.409c-5.523.338-9.726 5.088-9.389 10.611l4 65.449a6.011 6.011 0 0 0 12 0l4-65.449c.021-.384.024-.83 0-1.222-.337-5.522-5.088-9.726-10.611-9.389z"/><circle cx="130.385" cy="175.187" r="7"/></svg><svg height="60" viewBox="-6 -6 60 60" width="60" y="4654"><path d="M14.101 42.314a6.955 6.955 0 0 1-4.95-2.051L7.736 38.85c-2.729-2.729-2.729-7.171 0-9.899l9.192-9.192c1.322-1.322 3.08-2.051 4.95-2.051s3.628.729 4.949 2.051l1.414 1.414a.999.999 0 1 1-1.414 1.414l-1.414-1.414a4.968 4.968 0 0 0-3.535-1.465 4.969 4.969 0 0 0-3.536 1.465L9.15 30.364a5.006 5.006 0 0 0 0 7.071l1.414 1.414a4.969 4.969 0 0 0 3.536 1.465 4.968 4.968 0 0 0 3.535-1.465L24 32.485a.999.999 0 1 1 1.414 1.414l-6.364 6.364a6.947 6.947 0 0 1-4.949 2.051z"/><path d="M26.121 30.293a6.953 6.953 0 0 1-4.949-2.051.999.999 0 1 1 1.414-1.414 4.968 4.968 0 0 0 3.535 1.465 4.969 4.969 0 0 0 3.536-1.465l9.192-9.192a5.005 5.005 0 0 0 0-7.07L37.436 9.15a5.006 5.006 0 0 0-7.071 0L24 15.515a.999.999 0 1 1-1.414-1.414l6.364-6.364a7.008 7.008 0 0 1 9.899 0l1.414 1.415c2.729 2.729 2.729 7.17 0 9.898l-9.192 9.192a6.954 6.954 0 0 1-4.95 2.051z"/></svg><svg height="60" viewBox="-6 -6 60 60" width="60" y="4714"><path clip-rule="evenodd" d="M43 35H29.195c.595 3.301 2.573 5.572 4.401 7H36a1 1 0 1 1 0 2H12a1 1 0 1 1 0-2h2.403c1.827-1.428 3.807-3.699 4.401-7H5a4 4 0 0 1-4-4V8a4 4 0 0 1 4-4h38a4 4 0 0 1 4 4v23a4 4 0 0 1-4 4zm-25.603 7h13.205c-1.595-1.682-3.015-3.976-3.459-7h-6.287c-.444 3.024-1.864 5.318-3.459 7zM45 8a2 2 0 0 0-2-2H5a2 2 0 0 0-2 2v19h42V8zm0 21H3v2a2 2 0 0 0 2 2h38a2 2 0 0 0 2-2v-2zm-21 3a1 1 0 1 1 0-2 1 1 0 1 1 0 2z" fill-rule="evenodd"/></svg><svg viewBox="-6 -6 271.28 271.28" width="271.28" height="271.28" y="4774"><path d="M191.337 66.272a5.999 5.999 0 1 0-11.964.911l.166 2.177-168.2 57.566A6 6 0 0 0 .02 130.124l1.956 25.674a6 6 0 0 0 6.439 5.527 6 6 0 0 0 5.206-4.003l17.723 3.385c.782 20.01 17.296 36.05 37.494 36.05 14.85 0 28.351-8.886 34.319-22.336l85.633 16.354.17 2.229a6 6 0 1 0 11.965-.911l-9.588-125.821zM68.835 184.758c-12.78 0-23.395-9.439-25.244-21.711l47.293 9.032c-4.522 7.722-12.906 12.679-22.049 12.679zm-55.648-39.734l-.449-5.894L180.48 81.721l7.363 96.658-174.656-33.355zM224.6 133.031l29.134-2.219a5.998 5.998 0 0 0 5.526-6.438c-.251-3.305-3.139-5.784-6.438-5.527l-29.134 2.219a5.998 5.998 0 0 0-5.526 6.438 6 6 0 0 0 6.438 5.527zm.317-37.6L248.125 78.4a5.999 5.999 0 0 0 1.287-8.387 6.002 6.002 0 0 0-8.387-1.288l-23.208 17.031a5.999 5.999 0 0 0 3.555 10.838 5.976 5.976 0 0 0 3.545-1.163zm30.301 76.073l-25.521-13.318a6 6 0 1 0-5.553 10.638l25.521 13.318a5.997 5.997 0 0 0 8.095-2.544 5.998 5.998 0 0 0-2.542-8.094z"/></svg><svg height="60" viewBox="-6 -6 60 60" width="60" y="5046"><path clip-rule="evenodd" d="M39 42h-6a5 5 0 0 1-5-5v-2a5 5 0 0 1 5-5h9V5a2 2 0 0 0-2-2c-.107 0-.211.015-.313.032L21.344 8.094l-.002-.006-.029.042A1.992 1.992 0 0 0 20 10v32a5 5 0 0 1-5 5H9a5 5 0 0 1-5-5v-2a5 5 0 0 1 5-5h9V10c0-1.749 1.13-3.22 2.693-3.763l-.006-.018L39 1.125l.005.012C39.323 1.054 39.654 1 40 1a4 4 0 0 1 4 4v32a5 5 0 0 1-5 5zm-21-2v-3H9a3 3 0 0 0-3 3v2a3 3 0 0 0 3 3h6a3 3 0 0 0 3-3v-2zm24-5v-3h-9a3 3 0 0 0-3 3v2a3 3 0 0 0 3 3h6a3 3 0 0 0 3-3v-2z" fill-rule="evenodd"/></svg><svg height="60" viewBox="-6 -6 60 60" width="60" y="5106"><path clip-rule="evenodd" d="M44.312 4.548l.001.007-6.969 1.931-.002-.006-.029.042A1.994 1.994 0 0 0 36 8.393v32a5 5 0 0 1-5 5h-6a5 5 0 0 1-5-5v-2a5 5 0 0 1 5-5h9v-25c0-1.749 1.13-3.22 2.693-3.763l-.006-.018 6.901-1.906c.044-.021.094-.025.142-.039l.207-.058.003.015c.021-.001.038-.012.06-.012a1 1 0 0 1 1 1 .988.988 0 0 1-.688.936zM34 38.393v-3h-9a3 3 0 0 0-3 3v2a3 3 0 0 0 3 3h6a3 3 0 0 0 3-3v-2zm-7-9H4a1 1 0 1 1 0-2h23a1 1 0 1 1 0 2zm0-8H4a1 1 0 1 1 0-2h23a1 1 0 1 1 0 2zm0-8H4a1 1 0 1 1 0-2h23a1 1 0 1 1 0 2zm-23 22h9a1 1 0 1 1 0 2H4a1 1 0 1 1 0-2z" fill-rule="evenodd"/></svg><svg viewBox="-6 -6 238.99 238.99" width="238.99" height="238.99" y="5166"><path d="M224.248 67.252a22.91 22.91 0 0 0-13.654-11.189 22.91 22.91 0 0 0-17.567 1.743 22.918 22.918 0 0 0-11.189 13.655 22.908 22.908 0 0 0-.376 11.895l-24.905 13.336c-7.575-10.635-19.383-18.044-32.95-19.751V55.688c9.818-2.648 17.065-11.626 17.065-22.269 0-12.718-10.347-23.065-23.065-23.065S94.541 20.701 94.541 33.42c0 10.643 7.248 19.621 17.065 22.269V76.94c-17.328 2.181-31.795 13.664-38.223 29.284L46.126 98.88a22.899 22.899 0 0 0-3.06-11.502 22.917 22.917 0 0 0-13.99-10.767C16.792 73.301 4.113 80.602.804 92.882c-1.603 5.949-.793 12.166 2.28 17.505s8.042 9.164 13.99 10.767c1.997.538 4.023.804 6.038.804 3.985 0 7.92-1.043 11.468-3.084a22.905 22.905 0 0 0 8.424-8.407l27.258 7.345a48.035 48.035 0 0 0-.459 6.543c0 11.021 3.759 21.175 10.049 29.27L59.867 173.61c-8.814-5.064-20.274-3.859-27.798 3.663-8.993 8.993-8.993 23.626 0 32.62 4.497 4.497 10.403 6.745 16.31 6.745 5.906 0 11.813-2.248 16.31-6.745 7.523-7.524 8.728-18.984 3.663-27.797l19.985-19.985c8.095 6.29 18.248 10.049 29.27 10.049s21.175-3.759 29.27-10.049l19.985 19.985c-5.064 8.814-3.86 20.274 3.663 27.797 4.497 4.497 10.403 6.745 16.31 6.745 5.907 0 11.813-2.249 16.31-6.745 8.993-8.993 8.993-23.626 0-32.62-7.523-7.523-18.984-8.727-27.797-3.663l-19.985-19.985c6.29-8.095 10.049-18.248 10.049-29.27 0-6.021-1.13-11.781-3.171-17.093l24.887-13.326a22.912 22.912 0 0 0 10.109 6.282 23.15 23.15 0 0 0 6.709.999 22.95 22.95 0 0 0 10.858-2.743c5.432-2.908 9.405-7.757 11.189-13.654s1.163-12.137-1.745-17.568zm-15.111 20.642a10.983 10.983 0 0 1-8.427.836 10.987 10.987 0 0 1-6.55-5.368 10.99 10.99 0 0 1-.836-8.428 10.987 10.987 0 0 1 5.368-6.55 11.007 11.007 0 0 1 8.427-.837 10.987 10.987 0 0 1 6.55 5.368 10.987 10.987 0 0 1 .836 8.427 10.985 10.985 0 0 1-5.368 6.552zm-55.727 36.46c0 19.742-16.062 35.804-35.804 35.804s-35.804-16.062-35.804-35.804S97.864 88.55 117.606 88.55s35.804 16.062 35.804 35.804zM106.541 33.42c0-6.102 4.964-11.065 11.065-11.065s11.065 4.964 11.065 11.065c0 6.101-4.964 11.065-11.065 11.065s-11.065-4.964-11.065-11.065zm-86.345 76.147a10.993 10.993 0 0 1-6.711-5.165 10.99 10.99 0 0 1-1.094-8.398c1.587-5.892 7.672-9.393 13.563-7.806a10.994 10.994 0 0 1 6.712 5.165 10.993 10.993 0 0 1 1.093 8.398c-1.587 5.892-7.67 9.393-13.563 7.806zm36.007 91.839c-4.313 4.314-11.334 4.314-15.649 0-4.314-4.314-4.314-11.334 0-15.649a11.031 11.031 0 0 1 7.825-3.235c2.833 0 5.667 1.079 7.824 3.235 4.314 4.315 4.314 11.335 0 15.649zm138.455-15.649c4.314 4.314 4.314 11.334 0 15.649-4.313 4.314-11.334 4.314-15.649 0-4.314-4.314-4.314-11.334 0-15.649a11.031 11.031 0 0 1 7.825-3.235 11.03 11.03 0 0 1 7.824 3.235z"/></svg><svg height="60" viewBox="-6 -6 60 60" width="60" y="5405"><path clip-rule="evenodd" d="M41 47H7a5 5 0 0 1-5-5V2a1 1 0 0 1 1-1h34a1.002 1.002 0 0 1 1 1v14h7a1 1 0 0 1 1 1v25a5 5 0 0 1-5 5zm-5-5V3H4v39a3 3 0 0 0 3 3h30.022A4.962 4.962 0 0 1 36 42zm8-24h-6v24a3 3 0 1 0 6 0V18zM7 40a1 1 0 0 1 1-1h9a1 1 0 1 1 0 2H8a1 1 0 0 1-1-1zm4.666-16.285a.977.977 0 0 1-1.381-1.381l5.905-5.905c.032-.047.053-.101.095-.143a.972.972 0 0 1 .715-.282.968.968 0 0 1 .715.282c.042.042.062.096.095.143l4.19 4.19 2.19-2.19c.032-.047.053-.101.095-.143a.967.967 0 0 1 .715-.281.967.967 0 0 1 .715.281c.042.042.062.096.095.143l3.905 3.905a.977.977 0 0 1-1.381 1.381L25 20.381 23.381 22l.334.334a.977.977 0 0 1-1.381 1.381L17 18.381l-5.334 5.334zM23 29h9a1 1 0 1 1 0 2h-9a1 1 0 1 1 0-2zm0 5h9a1 1 0 1 1 0 2h-9a1 1 0 1 1 0-2zm0 5h9a1 1 0 1 1 0 2h-9a1 1 0 1 1 0-2zm1-23.5a1.5 1.5 0 1 1-3 0 1.5 1.5 0 0 1 3 0zm3-5.5H13a1 1 0 1 1 0-2h14a1 1 0 1 1 0 2zM8 34h9a1 1 0 1 1 0 2H8a1 1 0 1 1 0-2zm10-4a1 1 0 0 1-1 1H8a1 1 0 1 1 0-2h9a1 1 0 0 1 1 1z" fill-rule="evenodd"/></svg><svg height="60" viewBox="-6 -6 60 60" width="60" y="5465"><path clip-rule="evenodd" d="M47 5.025a.975.975 0 0 1-.281.715c-.043.042-.096.062-.144.095l-2.69 2.69.69.69c.048.033.102.053.144.095a.974.974 0 0 1 .281.714.975.975 0 0 1-.281.715c-.042.042-.096.062-.144.095L12.861 42.55a.99.99 0 0 1-.523.481l-9.8 3.844a1.016 1.016 0 0 1-.181.071l-.012.005c-.008.003-.017.001-.024.004a.937.937 0 0 1-.569.004c-.02-.006-.039-.002-.06-.009-.008-.003-.013-.01-.021-.013a.94.94 0 0 1-.24-.141c-.039-.028-.08-.053-.113-.086s-.058-.074-.086-.113a.952.952 0 0 1-.141-.24c-.004-.008-.01-.013-.013-.021-.007-.02-.003-.04-.009-.061a.985.985 0 0 1-.041-.281c0-.1.02-.193.045-.287.004-.008.001-.016.004-.023l.006-.013c.02-.063.039-.123.07-.181l3.844-9.8a.995.995 0 0 1 .482-.523L33.242 7.406a2.055 2.055 0 0 0-1.957-1.443c-.609 0-1.151.269-1.528.689l-.003-.002-3.25 3.25.003.003-6.837 6.837a.977.977 0 0 1-1.381-1.381L28.338 5.311c.017-.017.038-.022.056-.037a3.979 3.979 0 0 1 2.892-1.249c1.45 0 2.699.784 3.396 1.942l2.514-2.513c.033-.047.053-.101.095-.143a.967.967 0 0 1 .715-.281.967.967 0 0 1 .715.281c.042.042.062.096.095.143l.69.69 2.69-2.69c.033-.047.053-.101.095-.143a.967.967 0 0 1 .715-.281.967.967 0 0 1 .715.281c.042.042.062.096.095.143l2.762 2.762c.048.033.101.053.144.095a.983.983 0 0 1 .278.714zM3.875 44.155l6.376-2.502-3.875-3.875-2.501 6.377zM38.004 5.406L7.385 36.025l4.619 4.619 30.619-30.619-4.619-4.619zm5-2l-2.119 2.119 1.619 1.619 2.119-2.119-1.619-1.619z" fill-rule="evenodd"/></svg><svg height="60" viewBox="-6 -6 60 60" width="60" y="5525"><path clip-rule="evenodd" d="M44.929 14.391a.955.955 0 0 1-.183.276L16.84 42.572a.95.95 0 0 1-.475.434l-13.852 3.88c-.029.014-.062.016-.094.026l-.047.014c-.008.003-.017.001-.024.004a1.06 1.06 0 0 1-.286.045.926.926 0 0 1-.282-.041c-.021-.006-.04-.002-.061-.009-.008-.003-.013-.01-.021-.013a.94.94 0 0 1-.24-.141c-.039-.028-.08-.053-.113-.086s-.058-.074-.086-.113a.952.952 0 0 1-.141-.24c-.004-.008-.01-.013-.013-.021-.007-.02-.003-.04-.009-.061a.985.985 0 0 1-.041-.281c0-.1.02-.193.045-.287.004-.008.001-.016.004-.023l.014-.049c.011-.03.013-.063.026-.093l3.88-13.852c.082-.216.246-.364.434-.475L32.937 3.71c.04-.045.087-.083.128-.127l.299-.299c.015-.015.034-.02.05-.034C34.858 1.87 36.796 1 38.953 1A8.047 8.047 0 0 1 47 9.047c0 2.061-.795 3.922-2.071 5.344zM41.15 15.5l-3.619-3.619-23.64 23.641c.004.008.014.011.018.019l2.373 4.827L41.15 15.5zM3.559 44.473l2.785-.779-2.006-2.005-.779 2.784zm1.384-4.943l3.558 3.559 6.12-1.715s-2.586-5.372-2.59-5.374l-5.374-2.59-1.714 6.12zm7.547-5.406c.008.004.011.013.019.018L36.15 10.5l-3.619-3.619L7.663 31.749l4.827 2.375zM38.922 3c-1.782 0-3.372.776-4.489 1.994l-.007-.007-.514.513 8.619 8.619.527-.528-.006-.006c1.209-1.116 1.979-2.701 1.979-4.476A6.109 6.109 0 0 0 38.922 3z" fill-rule="evenodd"/></svg><svg height="60" viewBox="-6 -6 60 60" width="60" y="5585"><path clip-rule="evenodd" d="M33 47H15a4 4 0 0 1-4-4V5a4 4 0 0 1 4-4h18a4 4 0 0 1 4 4v38a4 4 0 0 1-4 4zm2-42a2 2 0 0 0-2-2H15a2 2 0 0 0-2 2v4h22V5zm0 6H13v26h22V11zm0 28H13v4a2 2 0 0 0 2 2h18a2 2 0 0 0 2-2v-4zm-11 5a2 2 0 1 1 .001-4.001A2 2 0 0 1 24 44zm-7-30h2a1 1 0 0 1 1 1v2a1 1 0 0 1-1 1h-2a1 1 0 0 1-1-1v-2a1 1 0 0 1 1-1zm0 7h2a1 1 0 0 1 1 1v2a1 1 0 0 1-1 1h-2a1 1 0 0 1-1-1v-2a1 1 0 0 1 1-1zm0 7h2a1 1 0 0 1 1 1v2a1 1 0 0 1-1 1h-2a1 1 0 0 1-1-1v-2a1 1 0 0 1 1-1zm6-14h2a1 1 0 0 1 1 1v2a1 1 0 0 1-1 1h-2a1 1 0 0 1-1-1v-2a1 1 0 0 1 1-1zm0 7h2a1 1 0 0 1 1 1v2a1 1 0 0 1-1 1h-2a1 1 0 0 1-1-1v-2a1 1 0 0 1 1-1zm0 7h2a1 1 0 0 1 1 1v2a1 1 0 0 1-1 1h-2a1 1 0 0 1-1-1v-2a1 1 0 0 1 1-1zm6-14h2a1 1 0 0 1 1 1v2a1 1 0 0 1-1 1h-2a1 1 0 0 1-1-1v-2a1 1 0 0 1 1-1zm0 7h2a1 1 0 0 1 1 1v2a1 1 0 0 1-1 1h-2a1 1 0 0 1-1-1v-2a1 1 0 0 1 1-1zM21 5h6a1 1 0 1 1 0 2h-6a1 1 0 1 1 0-2z" fill-rule="evenodd"/></svg><svg viewBox="-6 -6 251.88 251.88" width="251.88" height="251.88" y="5645"><path d="M229.435 15.326C229.435 6.875 222.56 0 214.109 0H45.76c-8.45 0-15.325 6.875-15.325 15.326 0 7.08 4.833 13.037 11.367 14.789v118.553l-29.099 28.279-.15.15a7.441 7.441 0 0 0 10.672 10.372l22.878-23.542a5.99 5.99 0 0 0 1.698.248H97.24l-15.169 63.709h-7.805a6 6 0 0 0 0 12H95.6a6 6 0 0 0 0-12h-1.194l15.169-63.709h40.715l15.169 63.709h-1.194a6 6 0 0 0 0 12h21.334a6 6 0 0 0 0-12h-7.805l-15.169-63.709h49.438a6 6 0 0 0 6-6V30.114c6.539-1.751 11.372-7.708 11.372-14.788zM93.49 115.167c2.25-2.32 2.267-6.031 0-8.364a6 6 0 0 0-8.485-.121l-31.202 30.323V30.651h152.265v121.523H57.525l35.965-37.007zm120.619-96.516H45.76c-1.834 0-3.325-1.492-3.325-3.326S43.926 12 45.76 12h168.349c1.834 0 3.326 1.492 3.326 3.326s-1.492 3.325-3.326 3.325z"/><path d="M145.102 121.146h-9.167V91.413a6 6 0 0 0-12 0v29.733h-1.863a6 6 0 0 0 0 12h60.548a6 6 0 0 0 0-12h-4.352V68a6 6 0 0 0-12 0v53.146h-9.166V60a6 6 0 0 0-12 0v61.146z"/></svg><svg viewBox="-6 -6 290 290" width="290" height="290" y="5897"><path d="M119.818 152.941a6 6 0 0 0 0-12H116.3V90.714a6 6 0 0 0-12 0v50.227h-7.465V83.358a6 6 0 0 0-12 0v57.583h-7.464v-28.698a6 6 0 0 0-12 0v28.698h-1.23a6 6 0 0 0 0 12h55.677z"/><path d="M275.913 143.728l-25.422-42.021c-3.244-5.36-9.15-8.69-15.415-8.69h-61.571V56.249c6.034-1.784 10.453-7.368 10.453-13.973 0-8.037-6.538-14.576-14.575-14.576H14.575C6.538 27.701 0 34.239 0 42.277c0 6.605 4.419 12.189 10.453 13.973v117.385a6 6 0 0 0 6 6h45.01l-13.88 58.669H40.79a6 6 0 0 0 0 12h19.617a6 6 0 0 0 0-12h-.493l13.88-58.669h36.37l13.88 58.669h-.493a6 6 0 0 0 0 12h19.617a6 6 0 0 0 0-12h-6.793l-13.88-58.669h45.009a6 6 0 0 0 6-6v-51.729h22.625v120.872a6 6 0 0 0 6 6h39.722a6 6 0 0 0 6-6v-89.625l3.345 5.529c4.124 6.813 13.021 9.005 19.835 4.881 3.301-1.997 5.627-5.16 6.549-8.906s.33-7.628-1.667-10.929zm-9.985 8.061a2.429 2.429 0 0 1-1.107 1.506 2.447 2.447 0 0 1-3.356-.825l-14.479-23.934a6 6 0 1 0-11.134 3.105V160.3H208.13v-44.395a6 6 0 0 0-6-6h-55.886c-1.348 0-2.444-1.096-2.444-2.444s1.097-2.444 2.444-2.444h69.746v39.045a6 6 0 0 0 12 0v-39.045h7.086a6.052 6.052 0 0 1 5.148 2.903l25.421 42.02c.457.754.374 1.482.283 1.849zm-43.938 26.472a6 6 0 0 0-6 6v52.517h-7.86V172.3h27.722v64.478h-7.861v-52.517a6.001 6.001 0 0 0-6.001-6zM14.575 39.701h154.808c1.42 0 2.575 1.155 2.575 2.576s-1.155 2.576-2.575 2.576H14.575c-1.42 0-2.575-1.155-2.575-2.576s1.155-2.576 2.575-2.576zm7.878 17.151h139.052v36.166h-15.261c-7.965 0-14.444 6.479-14.444 14.444s6.479 14.444 14.444 14.444h15.261v45.729H22.453V56.852z"/><path d="M221.99 87.997c11.896 0 21.573-9.678 21.573-21.573s-9.678-21.572-21.573-21.572-21.572 9.677-21.572 21.572 9.678 21.573 21.572 21.573zm0-31.145c5.278 0 9.573 4.294 9.573 9.572s-4.295 9.573-9.573 9.573-9.572-4.294-9.572-9.573 4.294-9.572 9.572-9.572z"/></svg><svg viewBox="-6 -6 475.03 475.03" width="475.03" height="475.03" y="6187"><path d="M401.494 236.593l-27.313-54.627a24.61 24.61 0 0 1-2.11-15.761l5.847-29.234c.097-.484.146-.977.146-1.471 0-74.715-60.785-135.5-135.5-135.5h-32c-83.538 0-151.5 67.962-151.5 151.5 0 41.804 10.038 76.379 19.746 109.816 9.958 34.297 20.254 69.763 20.254 114.184a7.499 7.499 0 0 0 3.589 6.399l128.458 78.502c2.87 1.754 6.046 2.633 9.229 2.633 2.967 0 5.94-.765 8.674-2.298 5.667-3.178 9.05-8.954 9.05-15.451V415.5c0-22.332 18.168-40.5 40.5-40.5h26.556c20.38 0 37.671-15.91 39.364-36.22l5.17-62.038 19.551-7.821a23.562 23.562 0 0 0 13.238-13.468 23.566 23.566 0 0 0-.949-18.86zm-13.073 13.53a8.415 8.415 0 0 1-4.789 4.872l-23.855 9.542a7.499 7.499 0 0 0-4.688 6.34l-5.555 66.657C348.484 350.132 337.76 360 325.118 360h-26.556c-30.603 0-55.5 24.897-55.5 55.5v29.786c0 1.384-.869 2.078-1.387 2.368-.518.291-1.563.67-2.744-.051l-124.898-76.327c-.616-44.551-10.882-79.912-20.819-114.142-9.849-33.922-19.151-65.964-19.151-105.634 0-75.266 61.233-136.5 136.5-136.5h32c66.201 0 120.104 53.659 120.498 119.768l-5.699 28.495a39.69 39.69 0 0 0 3.403 25.411l27.313 54.626a8.413 8.413 0 0 1 .343 6.823z"/><path d="M234.563 143a7.5 7.5 0 0 0 0-15h-9.098a47.258 47.258 0 0 0-8.453-20.343l6.452-6.452a7.5 7.5 0 0 0 0-10.606 7.5 7.5 0 0 0-10.606 0l-6.452 6.452a47.229 47.229 0 0 0-20.343-8.453V79.5a7.5 7.5 0 0 0-15 0v9.098a47.258 47.258 0 0 0-20.343 8.453l-6.452-6.452a7.5 7.5 0 0 0-10.606 0 7.5 7.5 0 0 0 0 10.606l6.452 6.452A47.229 47.229 0 0 0 131.661 128h-9.098a7.5 7.5 0 0 0 0 15h9.098a47.258 47.258 0 0 0 8.453 20.343l-6.452 6.452a7.5 7.5 0 0 0 5.303 12.803 7.474 7.474 0 0 0 5.303-2.197l6.452-6.452a47.229 47.229 0 0 0 20.343 8.453v9.098a7.5 7.5 0 0 0 15 0v-9.098a47.258 47.258 0 0 0 20.343-8.453l6.452 6.452c1.464 1.464 3.384 2.197 5.303 2.197s3.839-.732 5.303-2.197a7.5 7.5 0 0 0 0-10.606l-6.452-6.452A47.229 47.229 0 0 0 225.465 143h9.098zm-56 25c-17.92 0-32.5-14.58-32.5-32.5s14.58-32.5 32.5-32.5 32.5 14.58 32.5 32.5-14.58 32.5-32.5 32.5z"/><path d="M178.563 121c-7.995 0-14.5 6.505-14.5 14.5s6.505 14.5 14.5 14.5 14.5-6.505 14.5-14.5-6.505-14.5-14.5-14.5zm0 15a.5.5 0 1 1 0-1 .5.5 0 0 1 0 1zm128-40h-1.409a31.323 31.323 0 0 0-3.659-8.825l1-1a7.5 7.5 0 0 0 0-10.606 7.5 7.5 0 0 0-10.606 0l-1 1a31.311 31.311 0 0 0-8.825-3.659V71.5a7.5 7.5 0 0 0-15 0v1.409a31.323 31.323 0 0 0-8.825 3.659l-1-1a7.5 7.5 0 0 0-10.606 0 7.5 7.5 0 0 0 0 10.606l1 1a31.311 31.311 0 0 0-3.659 8.825h-1.409a7.5 7.5 0 0 0 0 15h1.409a31.323 31.323 0 0 0 3.659 8.825l-1 1a7.5 7.5 0 0 0 5.303 12.803 7.474 7.474 0 0 0 5.303-2.197l1-1a31.311 31.311 0 0 0 8.825 3.659v1.409a7.5 7.5 0 0 0 15 0v-1.409a31.323 31.323 0 0 0 8.825-3.659l1 1c1.464 1.464 3.384 2.197 5.303 2.197s3.839-.732 5.303-2.197a7.5 7.5 0 0 0 0-10.606l-1-1a31.311 31.311 0 0 0 3.659-8.825h1.409a7.5 7.5 0 0 0 0-14.999zm-32 24c-9.098 0-16.5-7.402-16.5-16.5s7.402-16.5 16.5-16.5 16.5 7.402 16.5 16.5-7.402 16.5-16.5 16.5zm19.28 47.75a7.498 7.498 0 0 0-10.245-2.745l-1.512.873a23.511 23.511 0 0 0-8.022-4.644V159.5a7.5 7.5 0 0 0-15 0v1.734a23.485 23.485 0 0 0-8.022 4.644l-1.512-.873a7.5 7.5 0 0 0-7.5 12.99l1.497.864a23.504 23.504 0 0 0 0 9.282l-1.497.864a7.5 7.5 0 0 0 7.5 12.99l1.512-.873a23.511 23.511 0 0 0 8.022 4.644v1.734a7.5 7.5 0 0 0 15 0v-1.734a23.485 23.485 0 0 0 8.022-4.644l1.512.873a7.499 7.499 0 0 0 10.245-2.745 7.5 7.5 0 0 0-2.745-10.245l-1.497-.864a23.504 23.504 0 0 0 0-9.282l1.497-.864a7.5 7.5 0 0 0 2.745-10.245zm-35.78 15.75c0-4.687 3.813-8.5 8.5-8.5s8.5 3.813 8.5 8.5-3.813 8.5-8.5 8.5-8.5-3.813-8.5-8.5z"/></svg><svg width="35.52" height="35.52" viewBox="-6 -6 35.52 35.52" y="6663"><path d="M8.074.333c.594 0 1.504.04 2.729.118v4.571c-3.721 0-5.578 1.721-5.578 5.163l.06 2.077h3.856v10.92H0v-11.81C.001 4.012 2.693.333 8.074.333zm15.442 4.689V.451C22.45.373 21.698.333 21.262.333c-5.381 0-8.07 3.68-8.07 11.04v11.81h9.139v-10.92h-3.857l-.059-2.077c-.002-3.245 1.701-4.966 5.101-5.164z"/></svg><svg height="60" viewBox="-6 -6 60 60" width="60" y="6699"><path d="M7.77 28.911c-.289 0-.565-.125-.756-.345L.465 21.01a1.001 1.001 0 0 1 1.512-1.31l5.676 6.55 4.697-7.284a1.001 1.001 0 0 1 1.682 1.084L8.61 28.453a.996.996 0 0 1-.84.458zm39.01 2.478a.998.998 0 0 1-.831-.442L41.12 23.75l-5.557 6.652a.998.998 0 1 1-1.535-1.281l6.411-7.676a.964.964 0 0 1 .82-.358c.313.017.603.181.777.441l5.572 8.303a1 1 0 0 1-.828 1.558z"/><path d="M24.271 42.008c-4.669 0-9.184-1.82-12.61-5.199a1 1 0 1 1 1.404-1.424 15.935 15.935 0 0 0 14.929 4.187c7.888-1.864 13.141-9.332 12.22-17.371a.999.999 0 0 1 .879-1.107.991.991 0 0 1 1.107.879c1.036 9.046-4.873 17.448-13.745 19.546a18.242 18.242 0 0 1-4.184.489zM7.769 28.911a1 1 0 0 1-.972-.77 17.885 17.885 0 0 1 2.2-13.6 17.886 17.886 0 0 1 11.174-8.06 17.993 17.993 0 0 1 17.631 5.595 1.001 1.001 0 0 1-1.498 1.326 15.987 15.987 0 0 0-15.672-4.974c-4.16.982-7.688 3.527-9.933 7.163s-2.94 7.929-1.956 12.088a1.002 1.002 0 0 1-.974 1.232z"/></svg><svg viewBox="-6 -6 475 475" width="475" height="475" y="6759"><path d="M231.5 135c17.369 0 31.5-14.131 31.5-31.5S248.869 72 231.5 72 200 86.131 200 103.5s14.131 31.5 31.5 31.5zm0-48c9.098 0 16.5 7.402 16.5 16.5s-7.402 16.5-16.5 16.5-16.5-7.402-16.5-16.5S222.402 87 231.5 87z"/><path d="M332.939 248.331L287 196.648V92.873a55.513 55.513 0 0 0-7.995-28.698l-34.429-56.99a8.36 8.36 0 0 0-.179-.282C241.516 2.581 236.694 0 231.5 0s-10.016 2.581-12.897 6.903a7.461 7.461 0 0 0-.179.282l-34.429 56.991A55.513 55.513 0 0 0 176 92.874v103.775l-45.939 51.682A71.424 71.424 0 0 0 112 295.833V399.5c0 4.142 3.357 7.5 7.5 7.5s7.5-3.358 7.5-7.5v-29.148l53.848-60.579A23.587 23.587 0 0 0 192 317.766V335.5c0 5.853 3.262 10.956 8.063 13.593.458 21.238 3.891 71.455 24.848 109.99a7.5 7.5 0 0 0 13.178 0c20.957-38.535 24.39-88.752 24.848-109.99 4.8-2.637 8.063-7.74 8.063-13.593v-17.734a23.592 23.592 0 0 0 11.152-7.993L336 370.352V399.5c0 4.142 3.357 7.5 7.5 7.5s7.5-3.358 7.5-7.5V295.833c0-17.531-6.414-34.4-18.061-47.502zm-11.21 9.965A56.443 56.443 0 0 1 336 295.833v51.941l-49-55.125v-73.422l34.729 39.069zM196.835 71.931l34.3-56.778c.061-.072.166-.153.365-.153s.304.081.365.153l34.3 56.778A40.505 40.505 0 0 1 272 92.873V144h-81V92.873a40.505 40.505 0 0 1 5.835-20.942zM127 295.833a56.44 56.44 0 0 1 14.271-37.536L176 219.227v73.422l-49 55.125v-51.941zM256 319v16.5a.5.5 0 0 1-.5.5h-48a.5.5 0 0 1-.5-.5V319h49zm-24.5 118.958c-13.051-31.917-15.853-68.562-16.385-86.958h32.769c-.531 18.395-3.333 55.041-16.384 86.958zM263.5 304h-64c-4.687 0-8.5-3.813-8.5-8.5V159h81v136.5c0 4.687-3.813 8.5-8.5 8.5z"/></svg><svg height="60" viewBox="-6 -6 60 60" width="60" y="7234"><path d="M26 48h-4c-1.654 0-3-1.346-3-3v-3.724a17.852 17.852 0 0 1-3.681-1.527l-2.634 2.635c-1.134 1.134-3.109 1.132-4.243 0l-2.829-2.828c-.567-.566-.879-1.32-.879-2.121s.312-1.555.879-2.121l2.635-2.636a17.738 17.738 0 0 1-1.525-3.679H3c-1.654 0-3-1.346-3-3v-4c0-.802.312-1.555.878-2.121A2.984 2.984 0 0 1 3 18.999h3.724c.37-1.278.88-2.511 1.526-3.679l-2.634-2.635a3.002 3.002 0 0 1 0-4.242l2.828-2.829c1.133-1.132 3.109-1.134 4.243 0l2.635 2.635A17.843 17.843 0 0 1 19 6.724V3c0-1.654 1.346-3 3-3h4c1.654 0 3 1.346 3 3v3.724c1.28.37 2.512.881 3.678 1.525l2.635-2.635c1.134-1.132 3.109-1.134 4.243 0l2.829 2.828c.567.566.879 1.32.879 2.121s-.312 1.555-.879 2.121l-2.634 2.635a17.763 17.763 0 0 1 1.526 3.68H45c1.654 0 3 1.346 3 3v4c0 .802-.312 1.555-.878 2.121s-1.32.879-2.122.879h-3.724a17.85 17.85 0 0 1-1.526 3.68l2.634 2.635a3.002 3.002 0 0 1 0 4.242l-2.828 2.829c-1.134 1.133-3.109 1.133-4.243 0L32.68 39.75a17.855 17.855 0 0 1-3.679 1.526V45A3.005 3.005 0 0 1 26 48zM15.157 37.498c.179 0 .36.048.521.146a15.877 15.877 0 0 0 4.557 1.891 1 1 0 0 1 .765.972V45c0 .552.449 1 1 1h4c.551 0 1-.448 1-1v-4.493a1 1 0 0 1 .765-.972 15.876 15.876 0 0 0 4.556-1.89c.396-.241.902-.18 1.229.146l3.178 3.179c.375.374 1.039.376 1.415 0l2.828-2.829a1 1 0 0 0 0-1.414l-3.179-3.179a1 1 0 0 1-.146-1.229 15.86 15.86 0 0 0 1.889-4.556 1 1 0 0 1 .972-.766H45a.996.996 0 0 0 1-.998v-4c0-.552-.449-1-1-1h-4.493a.999.999 0 0 1-.972-.766 15.85 15.85 0 0 0-1.889-4.556 1 1 0 0 1 .146-1.229l3.179-3.179c.186-.187.293-.444.293-.707s-.107-.521-.293-.707l-2.829-2.828a1.027 1.027 0 0 0-1.415 0l-3.179 3.179a.995.995 0 0 1-1.229.146 15.864 15.864 0 0 0-4.554-1.889.997.997 0 0 1-.765-.97V3c0-.552-.449-1-1-1h-4c-.551 0-1 .448-1 1v4.493a1 1 0 0 1-.765.972 15.873 15.873 0 0 0-4.556 1.889.998.998 0 0 1-1.228-.146l-3.179-3.179a1.027 1.027 0 0 0-1.415 0L7.03 9.857a1 1 0 0 0 0 1.414l3.179 3.179a1 1 0 0 1 .146 1.229 15.856 15.856 0 0 0-1.889 4.555 1 1 0 0 1-.972.766H3a.996.996 0 0 0-1 .999v4c0 .552.449 1 1 1h4.493c.462 0 .864.316.972.766a15.866 15.866 0 0 0 1.889 4.555 1 1 0 0 1-.146 1.229l-3.179 3.18c-.186.187-.293.444-.293.707s.107.521.293.707l2.829 2.828a1.027 1.027 0 0 0 1.415 0l3.178-3.179a.99.99 0 0 1 .706-.294z"/><path d="M24 34c-5.514 0-10-4.486-10-10s4.486-10 10-10 10 4.486 10 10-4.485 10-10 10zm0-18c-4.411 0-8 3.589-8 8s3.589 8 8 8 8-3.589 8-8-3.588-8-8-8z"/></svg><svg height="60" viewBox="-6 -6 60 60" width="60" y="7294"><path clip-rule="evenodd" d="M43 43H8a4 4 0 0 1-4-4V19.858A3.989 3.989 0 0 1 1 16v-3c0-.157.043-.3.107-.433.005-.009.012-.015.017-.023a.983.983 0 0 1 .271-.32l6.83-6.829A.98.98 0 0 1 9 5h34a4 4 0 0 1 4 4v30a4 4 0 0 1-4 4zm-28-2v-9h-4v9h4zM3 16a2 2 0 0 0 4 0v-2H3v2zm6.381-9l-5 5h3.238l5-5H9.381zM9 16a2 2 0 0 0 4 0v-2H9v2zm6.381-9l-5 5h3.238l5-5h-3.238zM15 16a2 2 0 0 0 4 0v-2h-4v2zm6.381-9l-5 5h3.238l5-5h-3.238zM21 16a2 2 0 0 0 4 0v-2h-4v2zm6.381-9l-5 5h3.238l5-5h-3.238zM32 8.381l-5 5V16a4 4 0 0 1-4 4 3.976 3.976 0 0 1-3-1.379c-.733.838-1.799 1.379-3 1.379s-2.267-.541-3-1.379A3.976 3.976 0 0 1 11 20a3.974 3.974 0 0 1-3.002-1.381A4.007 4.007 0 0 1 6 19.858V39a2 2 0 0 0 2 2h1V31a1 1 0 0 1 1-1h6a1 1 0 0 1 1 1v10h13a2 2 0 0 0 2-2V8.381zM45 9a2 2 0 0 0-2-2h-9v32c0 .732-.211 1.41-.555 2H43a2 2 0 0 0 2-2V9zM28 32h-8a1 1 0 0 1-1-1v-7a1 1 0 0 1 1-1h8a1 1 0 0 1 1 1v7a1 1 0 0 1-1 1zm-1-7h-6v5h6v-5z" fill-rule="evenodd"/></svg><svg viewBox="-6 -6 482 482" width="482" height="482" y="7354"><path d="M257.567 360.535h-45a7.5 7.5 0 0 0 0 15h45a7.5 7.5 0 0 0 0-15z"/><path d="M469.962 397.284a7.425 7.425 0 0 0-.146-.885c-.015-.067-.034-.132-.051-.198a7.284 7.284 0 0 0-.204-.674c-.025-.07-.049-.139-.076-.208a7.375 7.375 0 0 0-.339-.752c-.009-.016-.014-.034-.023-.051l-41.624-78.35V111.891a7.5 7.5 0 0 0-15 0v198.644h-355V99.464c0-12.407 10.093-22.5 22.5-22.5h297.574a7.5 7.5 0 0 0 0-15H80c-20.678 0-37.5 16.822-37.5 37.5v216.702L.915 394.444c-.047.089-.053.106-.061.123a7.391 7.391 0 0 0-.339.753c-.027.068-.051.137-.075.206a7.324 7.324 0 0 0-.204.676c-.017.066-.036.13-.05.197A7.511 7.511 0 0 0 0 398.035v15c0 20.678 16.822 37.5 37.5 37.5h395c20.678 0 37.5-16.822 37.5-37.5v-15c0-.254-.013-.504-.038-.751zM54.508 325.535h360.983l34.531 65H19.977l34.531-65zm377.992 110h-395c-12.407 0-22.5-10.093-22.5-22.5v-7.5h440v7.5c0 12.407-10.093 22.5-22.5 22.5z"/><path d="M422.5 34.465h21.894L265.391 213.467l-55.411-55.411a7.5 7.5 0 0 0-10.606 0L74.697 282.732A7.5 7.5 0 0 0 80 295.535a7.474 7.474 0 0 0 5.303-2.197l119.373-119.373 55.411 55.411a7.5 7.5 0 0 0 10.606 0L455 45.071v21.894a7.5 7.5 0 0 0 15 0v-40a7.5 7.5 0 0 0-7.5-7.5h-40a7.5 7.5 0 0 0 0 15z"/></svg><svg viewBox="-6 -6 474.92 474.92" width="474.92" height="474.92" y="7836"><path d="M450.932 424.488a7.497 7.497 0 0 0-9.186-5.303l-7.727 2.07c-10.448 2.799-21.363 1.362-30.732-4.046-9.364-5.407-16.064-14.136-18.866-24.58l-.001-.004-32.595-122.192c14.982-5.81 27.235-16.614 34.959-31.013 8.918-16.624 10.52-35.628 4.51-53.511l-58.93-175.346C329.763 2.822 321.551-1.587 313.66.529l-78.21 20.956a15.389 15.389 0 0 0-3.99 1.704 15.417 15.417 0 0 0-3.989-1.704L149.262.53c-7.888-2.113-16.104 2.294-18.705 10.033L71.627 185.91c-6.01 17.882-4.408 36.886 4.51 53.51 7.724 14.4 19.977 25.205 34.959 31.014L78.501 392.626l-.001.004c-2.802 10.444-9.502 19.173-18.866 24.58-9.368 5.408-20.284 6.845-30.731 4.046l-.005-.001-7.723-2.069a7.498 7.498 0 0 0-9.186 5.303 7.5 7.5 0 0 0 5.303 9.186l100.447 26.914.009.003.004.001 7.724 2.07a7.48 7.48 0 0 0 1.946.258 7.501 7.501 0 0 0 7.239-5.561 7.5 7.5 0 0 0-5.303-9.186l-7.737-2.073c-10.445-2.801-19.176-9.502-24.583-18.867-5.408-9.369-6.846-20.283-4.046-30.732v-.001l.003-.008 32.59-122.173c3.442.532 6.89.805 10.323.805 12.393 0 24.57-3.45 35.443-10.188 16.036-9.937 26.925-25.596 30.662-44.088L231.46 75.122l29.447 145.727c3.737 18.492 14.626 34.15 30.662 44.088 10.874 6.739 23.05 10.188 35.443 10.188 3.432 0 6.881-.273 10.323-.805l32.59 122.173.003.007v.001c2.8 10.449 1.362 21.363-4.046 30.732-5.407 9.365-14.138 16.066-24.583 18.867l-7.737 2.073a7.502 7.502 0 1 0 1.936 14.747c.643 0 1.296-.083 1.946-.258l7.724-2.07.004-.001.009-.003 92.719-24.844h.001l7.726-2.07a7.5 7.5 0 0 0 5.305-9.186zM84.048 434.732c.305.527.629 1.039.948 1.554l-19.44-5.209a55.778 55.778 0 0 0 12.975-9.586 55.827 55.827 0 0 0 5.517 13.241zm79.402-182.547c-12.478 7.732-27.159 9.898-41.34 6.101l-.01-.003-.004-.001c-14.176-3.803-25.803-13.019-32.741-25.952-6.939-12.937-8.186-27.725-3.509-41.64l6.67-19.847c6.248-.65 9.986-3.219 12.813-5.167 2.587-1.781 3.885-2.676 7.357-2.676 3.474 0 4.771.895 7.358 2.677 3.262 2.246 7.728 5.323 15.867 5.323 8.134 0 12.596-3.079 15.854-5.327 2.579-1.779 3.874-2.673 7.334-2.673 3.458 0 4.753.894 7.33 2.673 3.258 2.248 7.719 5.327 15.852 5.327 7.875 0 12.303-2.885 15.534-5.109l-10.505 51.985c-2.907 14.391-11.381 26.575-23.86 34.309zm60.5-215.628l-22.577 111.728c-5.625.811-9.098 3.203-11.762 5.042-2.577 1.779-3.871 2.673-7.329 2.673s-4.753-.894-7.33-2.673c-3.258-2.248-7.719-5.327-15.852-5.327s-12.595 3.079-15.854 5.327c-2.579 1.779-3.874 2.673-7.335 2.673-3.473 0-4.771-.895-7.357-2.676-3.262-2.247-7.729-5.324-15.868-5.324-6.567 0-10.742 2.003-13.823 3.957l45.913-136.615a.497.497 0 0 1 .604-.323l78.209 20.956a.501.501 0 0 1 .361.582zm15.383-.582l78.211-20.956a.5.5 0 0 1 .602.324l45.913 136.614c-3.081-1.954-7.255-3.957-13.823-3.957-8.14 0-12.606 3.077-15.868 5.324-2.587 1.781-3.885 2.676-7.357 2.676-3.46 0-4.755-.894-7.334-2.673-3.259-2.248-7.721-5.327-15.854-5.327s-12.594 3.079-15.852 5.327c-2.577 1.779-3.872 2.673-7.33 2.673s-4.752-.894-7.329-2.673c-2.664-1.839-6.137-4.231-11.762-5.042L238.972 36.556a.5.5 0 0 1 .361-.581zm60.139 216.21c-12.479-7.733-20.953-19.918-23.861-34.309l-10.505-51.986c3.231 2.225 7.659 5.11 15.534 5.11 8.133 0 12.594-3.079 15.852-5.327 2.577-1.779 3.872-2.673 7.33-2.673 3.461 0 4.756.894 7.335 2.673 3.259 2.248 7.721 5.327 15.854 5.327 8.14 0 12.605-3.077 15.867-5.323 2.587-1.782 3.885-2.677 7.358-2.677s4.771.895 7.357 2.676c2.828 1.948 6.565 4.517 12.812 5.167l6.67 19.847c4.677 13.915 3.431 28.704-3.509 41.641-6.938 12.934-18.565 22.148-32.741 25.951l-.004.001-.01.003c-14.18 3.798-28.861 1.633-41.339-6.101zm79.402 182.547a55.862 55.862 0 0 0 5.517-13.241 55.841 55.841 0 0 0 12.975 9.586l-19.44 5.209c.319-.515.643-1.026.948-1.554z"/></svg><svg height="60" viewBox="-6 -6 60 60" width="60" y="8311"><path clip-rule="evenodd" d="M37.386 14.996C40.245 18.183 42 22.381 42 27c0 9.941-8.059 18-18 18S6 36.941 6 27c0-8.917 6.49-16.299 15-17.73V5h-2a1 1 0 1 1 0-2h10a1 1 0 1 1 0 2h-2v4.265a17.967 17.967 0 0 1 9.005 4.35l2.329-2.329a.977.977 0 0 1 1.381 1.381l-2.329 2.329zM25 5h-2v4.051c.333-.019.662-.051 1-.051s.667.029 1 .047V5zm-1 6c-8.836 0-16 7.163-16 16s7.164 16 16 16c8.837 0 16-7.163 16-16 0-8.836-7.163-16-16-16zm0 20a4 4 0 0 1-4-4c0-.749.219-1.442.578-2.041l-5.293-5.292a.977.977 0 0 1 1.381-1.381l5.293 5.292A3.957 3.957 0 0 1 24 23a4 4 0 0 1 0 8zm0-6a2 2 0 1 0 .001 4.001A2 2 0 0 0 24 25z" fill-rule="evenodd"/></svg><svg viewBox="-6 -6 241.75 241.75" width="241.75" height="241.75" y="8371"><path d="M223.447 0h-63.279a6 6 0 0 0-6 6v63.279a6 6 0 0 0 6 6h63.279a6 6 0 0 0 6-6V6a6 6 0 0 0-6-6zm-6 63.279h-51.279V12h51.279v51.279zm-25.64 91.19c-20.754 0-37.639 16.885-37.639 37.64s16.885 37.639 37.639 37.639 37.64-16.885 37.64-37.639-16.885-37.64-37.64-37.64zm0 63.279c-14.138 0-25.639-11.501-25.639-25.639s11.501-25.64 25.639-25.64 25.64 11.502 25.64 25.64-11.502 25.639-25.64 25.639zM37.941 154.469c-20.754 0-37.64 16.885-37.64 37.64s16.885 37.639 37.64 37.639 37.639-16.885 37.639-37.639-16.885-37.64-37.639-37.64zm0 63.279c-14.138 0-25.64-11.501-25.64-25.639s11.502-25.64 25.64-25.64 25.639 11.502 25.639 25.64-11.501 25.639-25.639 25.639zm153.866-69.312a6 6 0 0 0 6-6V105.07l6.642 6.642c1.172 1.171 2.707 1.757 4.243 1.757s3.071-.586 4.243-1.757a6 6 0 0 0 0-8.485L196.05 86.342a6 6 0 0 0-8.485 0l-16.884 16.884a6 6 0 0 0 8.485 8.485l6.642-6.642v37.366a5.999 5.999 0 0 0 5.999 6.001zm-152.775-2.789c1.171 1.171 2.707 1.757 4.243 1.757s3.071-.586 4.243-1.757l16.885-16.885a6 6 0 0 0-8.485-8.485l-6.58 6.58c1.304-44.309 39.097-79.974 85.4-79.974a6 6 0 0 0 0-12c-52.958 0-96.183 41.094-97.432 92.066l-6.672-6.672a6 6 0 0 0-8.485 8.485l16.883 16.885zm91.233 25.181a6 6 0 0 0-8.485 8.485l6.642 6.642H88.328a6 6 0 0 0 0 12h40.094l-6.642 6.642a6 6 0 1 0 8.486 8.485l16.884-16.885a6 6 0 0 0 0-8.485l-16.885-16.884z"/></svg><svg height="60" viewBox="-6 -6 60 60" width="60" y="8613"><path clip-rule="evenodd" d="M44.602 23.775L21.806 46.571c-.032.048-.053.102-.095.144a.975.975 0 0 1-.715.281.975.975 0 0 1-.715-.281c-.042-.042-.062-.096-.095-.144L3.425 29.81c-.048-.032-.101-.053-.144-.095A.975.975 0 0 1 3 29a.97.97 0 0 1 .281-.715c.043-.042.096-.062.144-.095L26.221 5.395A.98.98 0 0 1 26.996 5h4.056c.133-1.502.746-2.82 1.67-3.683l.016.018c.196-.207.463-.335.758-.335.592 0 1.072.512 1.072 1.143 0 .375-.18.691-.441.899-.479.442-.82 1.139-.934 1.958h4.803c.32 0 .594.16.775.395l5.83 5.83a.984.984 0 0 1 .395.776V23a.98.98 0 0 1-.394.775zm-10.348-7.109a1.036 1.036 0 0 1-.758.334c-.592 0-1.07-.512-1.07-1.143 0-.375.18-.691.441-.9.248-.229.451-.537.617-.883-.855.228-1.488 1-1.488 1.925a2 2 0 0 0 4 0c0-.473-.17-.901-.445-1.244-.615 1.547-1.297 1.911-1.297 1.911zm8.742-4.285L37.615 7h-4.213c.174.444.424.822.725 1.1.041.033.092.053.127.092l.018-.018c1.041.973 1.725 2.508 1.725 4.254 0 .042-.01.079-.012.12 1.197.691 2.012 1.97 2.012 3.452a4 4 0 0 1-8 0 3.991 3.991 0 0 1 3.82-3.982c-.09-.888-.441-1.648-.949-2.118-.041-.033-.092-.053-.129-.092l-.016.018C31.979 9.131 31.43 8.141 31.17 7h-3.793l-22 22 15.619 15.619 22-22V12.381zM14.282 27.285a.977.977 0 0 1 1.381 0l7.049 7.049a.977.977 0 0 1-1.381 1.381l-7.049-7.049a.977.977 0 0 1 0-1.381zm4-4a.977.977 0 0 1 1.381 0l7.048 7.049a.977.977 0 0 1-1.381 1.381l-7.048-7.049a.977.977 0 0 1 0-1.381z" fill-rule="evenodd"/></svg><svg height="60" viewBox="-6 -6 60 60" width="60" y="8673"><path clip-rule="evenodd" d="M46.996 24.983v.021c0 .32-.16.593-.395.776L27.662 44.719a.977.977 0 0 1-1.381-1.381l18.715-18.715v-6.619a1.001 1.001 0 0 1 2 0v6.979zm-27.19 21.592c-.032.048-.053.102-.095.144a.975.975 0 0 1-.715.281.975.975 0 0 1-.715-.281c-.042-.042-.062-.096-.095-.144L1.425 29.813c-.048-.032-.101-.053-.144-.095A.972.972 0 0 1 1 29.004a.97.97 0 0 1 .281-.715c.043-.042.096-.062.144-.095L24.221 5.398a.982.982 0 0 1 .775-.395h4.056c.133-1.502.746-2.82 1.67-3.683l.016.018a1.04 1.04 0 0 1 .758-.335c.592 0 1.072.512 1.072 1.143 0 .375-.18.691-.441.899-.479.442-.82 1.139-.934 1.958h4.803c.32 0 .594.16.775.395l5.83 5.83a.984.984 0 0 1 .395.776v11c0 .32-.16.593-.395.775L19.806 46.575zm21.19-34.19l-5.381-5.381h-4.213c.176.444.424.822.725 1.1.041.033.092.053.127.092l.018-.018c1.041.973 1.725 2.508 1.725 4.254 0 .042-.01.079-.012.12 1.197.691 2.012 1.97 2.012 3.452a4 4 0 0 1-8 0 3.991 3.991 0 0 1 3.82-3.982c-.09-.888-.441-1.648-.949-2.118-.041-.033-.092-.053-.129-.092l-.016.018c-.744-.695-1.293-1.685-1.553-2.826h-3.793l-22 22 15.619 15.619 22-22V12.385zm-10.129 2.576c.248-.229.451-.537.617-.883-.855.228-1.488 1-1.488 1.925a2 2 0 0 0 4 0c0-.473-.17-.901-.445-1.244-.615 1.545-1.297 1.909-1.297 1.909a1.032 1.032 0 0 1-.758.334c-.592 0-1.07-.512-1.07-1.143 0-.373.179-.689.441-.898zM12.282 27.289a.977.977 0 0 1 1.381 0l7.049 7.049a.977.977 0 0 1-1.381 1.381l-7.049-7.049a.977.977 0 0 1 0-1.381zm4-4a.977.977 0 0 1 1.381 0l7.049 7.049a.977.977 0 0 1-1.381 1.381l-7.049-7.049a.977.977 0 0 1 0-1.381z" fill-rule="evenodd"/></svg><svg height="60" viewBox="-6 -6 60 60" width="60" y="8733"><path d="M11.003 46c-1.217 0-2.4-.239-3.517-.712a1 1 0 0 1-.318-1.627l3.535-3.534v-2.829H7.875L4.34 40.832a.992.992 0 0 1-.898.274.996.996 0 0 1-.729-.592 8.964 8.964 0 0 1 1.92-9.874 8.928 8.928 0 0 1 6.357-2.633c.987 0 1.952.157 2.876.469l14.603-14.603a8.96 8.96 0 0 1 2.163-9.234 8.936 8.936 0 0 1 6.358-2.632c1.217 0 2.4.239 3.517.712a1 1 0 0 1 .318 1.627L37.29 7.882v2.829h2.829l3.534-3.535a.99.99 0 0 1 .898-.274c.326.063.6.285.729.592a8.964 8.964 0 0 1-1.92 9.874A8.932 8.932 0 0 1 37.003 20a8.958 8.958 0 0 1-2.876-.469L19.524 34.134a8.96 8.96 0 0 1-2.164 9.234A8.932 8.932 0 0 1 11.003 46zm-1.237-2.108a7.06 7.06 0 0 0 1.237.108 6.947 6.947 0 0 0 4.943-2.046 6.972 6.972 0 0 0 1.493-7.681 1 1 0 0 1 .214-1.097L33.169 17.66a.999.999 0 0 1 1.097-.214c.869.367 1.79.554 2.737.554a6.944 6.944 0 0 0 4.943-2.047 6.965 6.965 0 0 0 1.94-6.183l-2.647 2.647a1 1 0 0 1-.707.293H36.29a1 1 0 0 1-1-1V7.468c0-.266.105-.52.293-.707l2.646-2.645a7.079 7.079 0 0 0-1.238-.108 6.95 6.95 0 0 0-4.944 2.046 6.974 6.974 0 0 0-1.492 7.681 1 1 0 0 1-.214 1.097L14.824 30.348a1 1 0 0 1-1.097.214 6.999 6.999 0 0 0-2.737-.554 6.942 6.942 0 0 0-4.943 2.047 6.965 6.965 0 0 0-1.94 6.183l2.647-2.647a1 1 0 0 1 .707-.293h4.243a1 1 0 0 1 1 1v4.243c0 .266-.105.52-.293.707l-2.645 2.644zM42 46a3.975 3.975 0 0 1-2.829-1.172l-9.192-9.193a.999.999 0 0 1 0-1.414l4.242-4.242a.999.999 0 0 1 1.414 0l9.193 9.193A3.971 3.971 0 0 1 46 42a3.976 3.976 0 0 1-1.172 2.829A3.973 3.973 0 0 1 42 46zm-9.899-11.072l8.485 8.486c.755.755 2.072.756 2.828 0 .378-.378.586-.88.586-1.414s-.208-1.037-.585-1.414L34.929 32.1l-2.828 2.828z"/><path d="M10.778 9.363l11.41 11.41-1.414 1.415-11.41-11.41zM28.564 38.05a.999.999 0 0 1-.707-1.707l8.485-8.485a.999.999 0 1 1 1.414 1.414l-8.485 8.485a.997.997 0 0 1-.707.293z"/><path d="M8.657 12.485a.997.997 0 0 1-.707-.293L2.293 6.535a.996.996 0 0 1 0-1.414l2.828-2.828a.999.999 0 0 1 1.414 0l5.657 5.657a.997.997 0 0 1 0 1.414l-2.828 2.828a.993.993 0 0 1-.707.293zM4.414 5.828l4.243 4.243 1.414-1.414-4.243-4.243-1.414 1.414zm22.019 19.188l7.34 7.34-1.414 1.415-7.34-7.34z"/></svg><svg height="60" viewBox="-6 -6 60 60" width="60" y="8793"><path d="M46.971 30c-.455 0-.859-.311-.97-.76-.038-.151-.869-3.24-4.003-3.24-3.316 0-5.089 3.415-5.107 3.45-.17.336-.516.549-.893.549h-.003a1.002 1.002 0 0 1-.892-.552C35.087 29.415 33.314 26 29.998 26s-5.089 3.415-5.107 3.45a1.017 1.017 0 0 1-1.004.542 1 1 0 0 1-.859-.75c-.034-.125-.911-3.242-5.03-3.242-4.171 0-5.022 3.21-5.03 3.242a1 1 0 0 1-1.94 0c-.034-.125-.911-3.242-5.03-3.242-1.393 0-2.441.345-3.117 1.024-.841.847-.857 1.958-.857 1.969.003.545-.43.993-.975 1.007-.54.004-1-.411-1.024-.956-.291-6.599 2.063-12.86 6.63-17.633C11.227 6.632 17.386 4 23.998 4s12.771 2.632 17.343 7.411c4.567 4.772 6.921 11.035 6.63 17.633a1 1 0 0 1-1 .956zm-16.973-6c2.966 0 4.949 1.844 6 3.186 1.051-1.342 3.034-3.186 6-3.186 1.65 0 2.915.592 3.851 1.396-.545-4.715-2.598-9.098-5.952-12.603C35.704 8.413 30.058 6 23.998 6c-6.06 0-11.707 2.413-15.899 6.794-3.262 3.409-5.292 7.647-5.903 12.215C3.188 24.339 4.462 24 5.998 24c3.052 0 4.952 1.387 6 2.798 1.048-1.411 2.948-2.798 6-2.798 3.2 0 5.133 1.524 6.146 3.003 1.084-1.32 3.02-3.003 5.854-3.003z"/><path d="M23.998 6a1 1 0 0 1-1-1V1a1 1 0 1 1 2 0v4a1 1 0 0 1-1 1zm2.5 41.25c-1.739 0-3.5-1.116-3.5-3.25V29a1 1 0 1 1 2 0v15c0 1.215 1.347 1.25 1.5 1.25s1.5-.035 1.5-1.25a1 1 0 1 1 2 0c0 2.134-1.761 3.25-3.5 3.25z"/></svg><svg viewBox="-6 -6 307.24 307.24" width="307.24" height="307.24" y="8853"><path d="M233.335 214.287v-9.524h47.617c7.876 0 14.286-6.41 14.286-14.286v-76.19c0-7.876-6.41-14.286-14.286-14.286H147.619c-7.876 0-14.286 6.41-14.286 14.286v76.19c0 7.876 6.41 14.286 14.286 14.286h47.619v9.524h-80.952v-4.762c0-7.876-6.686-14.286-14.562-14.286h-16.11l-48.928-79.648c2.138-3.081 3.41-6.805 3.41-10.829 0-1.171-.143-2.305-.348-3.419l19.933-36.542c1.838 9.052 6.876 17.138 14.519 22.852l3.11 2.324 11.757-10.452c2.576.933 5.214 1.429 7.895 1.429 13.129 0 23.81-10.681 23.81-23.81 0-1.729-.271-3.467-.676-5.195l11.781-10.471-1.943-3.367c-6.805-11.757-19.438-19.062-32.971-19.062-.895 0-1.776.071-2.657.133l-16.1-16.1-35.386 29.49 6.557 8.743-31.29 44.705C6.99 87.453 0 95.277 0 104.763c0 7.143 3.995 13.305 9.829 16.562l39.381 73.914H33.057c-7.876 0-14.01 6.41-14.01 14.286v4.762H0v28.571h14.286v52.381h9.524v-52.381h9.524v52.381h9.524v-52.381h209.524v52.381h9.524v-52.381h9.524v52.381h9.524v-52.381h14.286v-28.571h-61.905zm-90.478-100a4.77 4.77 0 0 1 4.762-4.762h133.333a4.77 4.77 0 0 1 4.762 4.762v61.905H142.857v-61.905zm52.381 80.952h-47.619a4.77 4.77 0 0 1-4.762-4.762v-4.762h142.857v4.762a4.77 4.77 0 0 1-4.762 4.762h-85.714zm28.572 9.524v9.524h-19.048v-9.524h19.048zM96.243 71.372l12.7-11.29c-1.272 6.067-6.405 10.729-12.7 11.29zm-1.276-42.799c8.857-.001 17.204 4.18 22.581 11.118L74.986 77.525c-5.5-5.352-8.59-12.6-8.59-20.381 0-15.757 12.814-28.571 28.571-28.571zM75.619 15.968l5.662 5.662C71.7 25.334 63.967 32.772 59.929 42.187l-6.062-8.09 21.752-18.129zM53.385 49.329l1.091 1.453-22.057 40.443a19.066 19.066 0 0 0-5.667-3.848l26.633-38.048zM9.524 104.763c0-5.252 4.271-9.524 9.524-9.524 5.252 0 9.524 4.271 9.524 9.524 0 5.252-4.271 9.524-9.524 9.524-5.253 0-9.524-4.271-9.524-9.524zm12.271 18.771a18.709 18.709 0 0 0 5.548-1.705l45.095 73.41H60l-38.205-71.705zm11.262 81.229h66.667c2.624 0 5.038 2.138 5.038 4.762v4.762h-76.19v-4.762h-.001c0-2.624 1.862-4.762 4.486-4.762zm252.657 28.572H9.524v-9.524h276.19v9.524z"/><path d="M138.095 80.953h152.381v9.524H138.095zM204.762.001h-38.095v76.19h38.095V.001zm-9.524 66.667H176.19V47.62h19.048v19.048zm0-28.572H176.19V9.525h19.048v28.571z"/><circle cx="185.714" cy="57.144" r="4.762"/><path d="M247.619.001h-38.095v76.19h38.095V.001zm-28.572 9.524h19.048v28.571h-19.048V9.525zm19.049 57.143h-19.048V47.62h19.048v19.048z"/><circle cx="228.571" cy="57.144" r="4.762"/><path d="M290.476.001h-38.095v76.19h38.095V.001zm-28.572 9.524h19.048v28.571h-19.048V9.525zm19.049 57.143h-19.048V47.62h19.048v19.048z"/><circle cx="271.429" cy="57.144" r="4.762"/></svg></svg>