<svg width="120.36" height="227" viewBox="0 0 120.36 227" xmlns="http://www.w3.org/2000/svg" xmlns:xlink="http://www.w3.org/1999/xlink"><svg viewBox="-524.1 484.1 34 34" width="34" height="34"><path d="M-507.1 504.9c-.2 0-.5-.1-.7-.3l-5.8-5.8c-.4-.4-.4-1 0-1.3.4-.4 1-.4 1.3 0l5.1 5.1 5.1-5.1c.4-.4 1-.4 1.3 0 .4.4.4 1 0 1.3l-5.8 5.8c0 .2-.2.3-.5.3z"/></svg><svg width="120.36" height="120.36" viewBox="-6 -6 120.36 120.36" y="34"><path d="M54.182 0C24.258 0 0 24.258 0 54.182c0 29.924 24.258 54.183 54.182 54.183 29.923 0 54.182-24.259 54.182-54.183S84.105 0 54.182 0zm8.056 38.049a3.333 3.333 0 0 1-.143-4.544c.024-.035.078-.097.137-.157 1.277-1.278 3.459-1.27 4.718-.011l1.76 1.759 1.761-1.76c1.197-1.199 3.267-1.262 4.543-.145.041.03.106.086.168.146.629.629.976 1.465.977 2.354 0 .89-.346 1.727-.977 2.356l-1.76 1.76 1.758 1.759c.631.629.978 1.466.978 2.355 0 .89-.347 1.727-.976 2.357-1.258 1.26-3.453 1.261-4.713 0l-1.758-1.758-1.758 1.758a3.312 3.312 0 0 1-2.355.977 3.304 3.304 0 0 1-2.356-.977 3.336 3.336 0 0 1 0-4.711L64 39.808l-1.762-1.759zm-28.117.014a3.333 3.333 0 0 1-.143-4.544c.025-.035.078-.097.137-.157 1.277-1.278 3.46-1.27 4.718-.011l1.76 1.759 1.76-1.76c1.198-1.199 3.267-1.262 4.544-.145.041.03.106.086.167.146.629.629.976 1.465.977 2.354 0 .89-.346 1.727-.976 2.356l-1.76 1.76 1.758 1.759c.63.629.977 1.466.977 2.355a3.31 3.31 0 0 1-.976 2.357c-1.258 1.26-3.452 1.261-4.712 0l-1.758-1.758-1.758 1.758a3.313 3.313 0 0 1-2.356.977c-.89 0-1.727-.347-2.356-.977a3.336 3.336 0 0 1 0-4.711l1.759-1.759-1.762-1.759zm44.913 36.775c0 .551-.448 1-1 1-1.666 0-4.097-.934-5.688-2.402a8.047 8.047 0 0 1-5.738 2.402 8.054 8.054 0 0 1-5.713-2.375 8.057 8.057 0 0 1-11.426 0 8.044 8.044 0 0 1-5.712 2.375 8.04 8.04 0 0 1-5.735-2.402c-1.592 1.469-4.024 2.402-5.691 2.402-.552 0-1-.449-1-1v-4.105c0-.551.448-1 1-1 1.268 0 3.809-.975 4.904-2.504a1 1 0 0 1 .813-.416h.001a1 1 0 0 1 .813.418 6.017 6.017 0 0 0 4.895 2.504 6.016 6.016 0 0 0 4.896-2.502.997.997 0 0 1 .813-.42h.001c.322 0 .625.156.813.418a6.038 6.038 0 0 0 4.902 2.504 6.026 6.026 0 0 0 4.899-2.504c.375-.524 1.251-.524 1.627 0a6.025 6.025 0 0 0 4.897 2.504 6.025 6.025 0 0 0 4.9-2.504 1 1 0 0 1 .813-.418c.321 0 .625.156.813.418 1.094 1.529 3.633 2.504 4.899 2.504a1 1 0 0 1 1 1v4.104h.004z" fill="#fff"/></svg><svg viewBox="-953 483.5 35.5 35.5" width="35.5" height="35.5" y="155"><path d="M-931.6 512.7c-.6 0-1.5 0-2.7-.1V508c3.7 0 5.6-1.7 5.6-5.2l-.1-2.1h-3.9v-10.9h9.1v11.8c.1 7.4-2.6 11.1-8 11.1zM-947 508v4.6c1.1.1 1.8.1 2.3.1 5.4 0 8.1-3.7 8.1-11v-11.8h-9.1v10.9h3.9l.1 2.1c-.2 3.2-1.9 4.9-5.3 5.1z"/></svg><svg width="35.52" height="35.52" viewBox="-6 -6 35.52 35.52" y="191"><path d="M8.074.333c.594 0 1.504.04 2.729.118v4.571c-3.721 0-5.578 1.721-5.578 5.163l.06 2.077h3.856v10.92H0v-11.81C.001 4.012 2.693.333 8.074.333zm15.442 4.689V.451C22.45.373 21.698.333 21.262.333c-5.381 0-8.07 3.68-8.07 11.04v11.81h9.139v-10.92h-3.857l-.059-2.077c-.002-3.245 1.701-4.966 5.101-5.164z"/></svg></svg>