<svg width="1012" height="1118" viewBox="0 0 1012 1118" xmlns="http://www.w3.org/2000/svg" xmlns:xlink="http://www.w3.org/1999/xlink"><svg viewBox="-524.1 484.1 34 34" width="34" height="34"><path d="M-507.1 504.9c-.2 0-.5-.1-.7-.3l-5.8-5.8c-.4-.4-.4-1 0-1.3.4-.4 1-.4 1.3 0l5.1 5.1 5.1-5.1c.4-.4 1-.4 1.3 0 .4.4.4 1 0 1.3l-5.8 5.8c0 .2-.2.3-.5.3z"/></svg><svg viewBox="-953 483.5 35.5 35.5" width="35.5" height="35.5" y="34"><path d="M-931.6 512.7c-.6 0-1.5 0-2.7-.1V508c3.7 0 5.6-1.7 5.6-5.2l-.1-2.1h-3.9v-10.9h9.1v11.8c.1 7.4-2.6 11.1-8 11.1zM-947 508v4.6c1.1.1 1.8.1 2.3.1 5.4 0 8.1-3.7 8.1-11v-11.8h-9.1v10.9h3.9l.1 2.1c-.2 3.2-1.9 4.9-5.3 5.1z"/></svg><svg width="35.52" height="35.52" viewBox="-6 -6 35.52 35.52" y="70"><path d="M8.074.333c.594 0 1.504.04 2.729.118v4.571c-3.721 0-5.578 1.721-5.578 5.163l.06 2.077h3.856v10.92H0v-11.81C.001 4.012 2.693.333 8.074.333zm15.442 4.689V.451C22.45.373 21.698.333 21.262.333c-5.381 0-8.07 3.68-8.07 11.04v11.81h9.139v-10.92h-3.857l-.059-2.077c-.002-3.245 1.701-4.966 5.101-5.164z"/></svg><svg viewBox="-6 -6 1012 1012" width="1012" height="1012" y="106"><path d="M404.1 9.99C263.71 22.84 140.59 100.13 68.67 220.76c-27.43 46.03-45.84 97.81-55.23 155.35-4.6 29.53-4.6 95.32.19 124.66 13.23 81.89 45.26 152.66 96.66 213.84C210.97 834.67 369.19 890.1 523 859.22c51.59-10.36 108.36-33.95 151.51-62.91l22.05-14.96 98.77 99.73c107.59 108.55 106.06 107.4 129.65 109.32 24.17 1.92 46.03-10.17 58.11-32.22 6.33-11.51 6.9-13.62 6.9-28.77-.19-27.43 3.84-22.63-108.74-134.25l-99.73-98.77 14.96-22.05c48.52-72.11 74.6-163.98 71.15-250.28-4.6-108.74-45.26-205.02-120.06-283.46-42.38-44.49-102.22-83.62-161.29-105.48-22.25-8.25-57.34-17.26-84.39-21.48-19.35-3.07-79.38-5.37-97.79-3.65zm92.63 127.35c124.09 24.36 219.79 121.4 244.14 247.4 5.37 27.62 4.79 84-.96 111.24-13.23 63.29-41.04 115.45-84.77 158.99-82.28 82.47-203.29 111.04-313.57 74.03-105.29-35.1-182.38-123.32-204.44-233.6-6.14-30.88-6.14-83.04 0-113.92 26.85-134.44 135.78-234.17 271.76-248.74 18.41-1.92 67.7.57 87.84 4.6z"/></svg></svg>