<svg xmlns="http://www.w3.org/2000/svg" viewBox="-883 424 151.1 154"><path d="M-747.4 518.3c-1.1.8-1.6 6-2.2 7.3.1-.2.1-.3.2-.4 0 .1-.1.2-.2.4-1.5 3.6-.5 1.1 0 0-1.2 2.9-2.6 5.7-4.3 8.4-.9 1.5-2.6 5.1-4.3 6-.8.4-1.7.3-2.6.3h-46.6c4.2-11.3-16.2-11.3-12.1 0h-30.1c-2.2 0-2.3.3-3.8-1.1-3.8-3.5-6.6-9.9-8.6-14.5-4.3-9.8-5.5-20.7-4.1-31.3 2.7-20.4 14.8-38.1 33.1-47.6 10-5.2 21.7-7.2 33-6.1 3.1.3 6.1.8 9.1 1.5 1 .2 5.4 2.2 6.3 1.8 1.3-.6 2.8-8.1 3.2-9.5.7-2.1 2.1-3.9.4-5.4-1.2-1-3.8-1.1-5.2-1.5-3.5-.8-7-1.7-10.6-2.1-9.7-1.2-19.6-.5-29 2-19 5.2-35.8 17.8-46 34.7-11.8 19.5-14.5 43.9-7 65.4 6.6 18.8 20.7 34.4 38.5 43.3 20.9 10.4 45.7 10.8 66.8.7 21-10 36.7-29.1 41.6-52.3h-11.7c-.8 0-3.2-.4-3.8 0z"/><path d="M-792.3 495.1c0-.1-.1-.3-.1-.4.1.2.1.3.1.4zm.1.5v-.3.3zm.3 1.6c0 .1 0 .2.1.3 0-.1 0-.2-.1-.3zm.1.2c0 .1 0 .1 0 0zm-.5-2.7c-.1-.5-.2-.8-.2-.9 0 .1 0 .4.2.9zm.1.6v-.2c-.1.1 0 .2 0 .2zm.2 1.2c0 .2.1.3.1.4 0 0-.1-.2-.1-.4zm-.2-.9c.1.4.1.7.2 1 0-.3-.1-.7-.2-1z"/><path d="M-792.2 495.5c3.5 17.6 30.7 12.9 28.1-4.8-1.1-7.7-8.4-13.1-16.1-12.1-7.9 1.1-13.6 9-12 16.9zm-11.1 27.9c14 .1 14.1-21.7.1-21.7-13.9 0-14 21.6-.1 21.7zm-14.4 5.1c2.8-5.1-4.3-10.1-8.2-5.7-4.8 5.6 4.8 12 8.2 5.7z"/><path d="M-825.9 522.9c.2-.3.3-.4.4-.4-.2.1-1.4 1.5-.4.4z"/></svg>