<svg xmlns="http://www.w3.org/2000/svg" viewBox="-724 266 470 470"><path d="M-571.4 385l60.4 60.4c2.9 2.9 7.7 2.9 10.6 0 2.9-2.9 2.9-7.7 0-10.6l-65.7-65.7c-2.9-2.9-7.7-2.9-10.6 0l-44.3 44c-2.9 2.9-3 7.7 0 10.6l29 29 36.8 36.8c1.5 1.5 3.4 2.2 5.3 2.2s3.8-.7 5.3-2.2c2.9-2.9 2.9-7.7 0-10.6l-2.5-2.5 17.2-17.2c2.9-2.9 2.9-7.7 0-10.6-2.9-2.9-7.7-2.9-10.6 0l-17.2 17.2-18.4-18.4 17.2-17.2c2.9-2.9 2.9-7.7 0-10.6-2.9-2.9-7.7-2.9-10.6 0l-17.2 17.2-18.4-18.4 33.7-33.4zm104.1 192.4l58 58c2.9 2.9 7.7 2.9 10.6 0l44.1-44.1c2.9-2.9 2.9-7.7 0-10.6l-65.8-65.8c-2.9-2.9-7.7-2.9-10.6 0-2.9 2.9-2.9 7.6 0 10.6l60.4 60.4-33.5 33.5-18.4-18.4 17.2-17.2c2.9-2.9 2.9-7.7 0-10.6-2.9-2.9-7.6-2.9-10.6 0l-17.2 17.2-18.4-18.4 17.2-17.2c2.9-2.9 2.9-7.7 0-10.6-2.9-2.9-7.6-2.9-10.6 0l-17.2 17.2-2.5-2.5c-2.9-2.9-7.7-2.9-10.6 0-2.9 2.9-2.9 7.6 0 10.6l7.9 7.9zm-147.8 59.7c1 0 2-.2 2.9-.6l65.6-28 .1-.1c.1 0 .1-.1.2-.1.1-.1.3-.1.4-.2.1 0 .2-.1.2-.1.1-.1.3-.1.4-.2.1-.1.2-.1.3-.2.1-.1.2-.1.3-.2.2-.2.4-.3.5-.5L-382 444.8l19.1-19.1c6.4-6.4 10-15 10-24.1 0-9.1-3.5-17.7-10-24.1s-15-10-24.1-10c-9.1 0-17.7 3.5-24.1 10l-19.1 19.1-162.1 162.1c-.2.2-.3.4-.5.5-.1.1-.1.2-.2.3-.1.1-.1.2-.2.3-.1.1-.2.3-.2.4 0 .1-.1.2-.1.2-.1.1-.1.3-.2.4 0 .1-.1.1-.1.2v.1l-28 65.7c-1.6 3.8.1 8.2 3.9 9.8.8.3 1.8.5 2.8.5zM-425 412.4l27.1 27.1L-549.4 591l-27.1-27.1L-425 412.4zm24.4-24.4c3.6-3.6 8.4-5.6 13.5-5.6s9.9 2 13.5 5.6c3.6 3.6 5.6 8.4 5.6 13.5s-2 9.9-5.6 13.5l-13.8 13.8-27.1-27.1 13.9-13.7zm-183.9 189l22 22-38.4 16.4 16.4-38.4z"/></svg>