<svg xmlns="http://www.w3.org/2000/svg" width="512" height="512" viewBox="0 0 512 512"><path d="M233.126 171.112c-2.323 0-4.677.13-7.049.396-27.756 3.091-50.327 25.446-53.665 53.167-2.601 21.421 5.885 42.177 22.702 55.538a8.297 8.297 0 0 1 3.127 6.47v16.048c0 10.607 8.617 19.242 19.237 19.242h31.332c10.616 0 19.233-8.635 19.233-19.242v-16.048a8.27 8.27 0 0 1 3.131-6.46c14.713-11.717 23.168-29.175 23.168-47.901.001-33.746-27.458-61.21-61.216-61.21z"/><path d="M462.28 302.905c-10.068-56.361-34.643-194.315-50.695-215.074-28.529-46.268-86.13-77.959-152.657-77.959-94.89 0-201.223 17.436-208.968 157.143-7.583 136.833 30.591 166.104 57.7 191.487a52.552 52.552 0 0 1 16.65 38.368v92.697c0 6.946 5.616 12.562 12.557 12.562H289.73c6.937 0 12.552-5.616 12.552-12.562v-13.86c0-7.786 3.1-15.262 8.635-20.756a29.318 29.318 0 0 1 20.814-8.536c21.637.112 47.775.162 50.471-.188 42.339-5.418 30.577-52.326 40.452-119.474h23.411c5.76 0 11.146-2.862 14.408-7.629 3.244-4.772 2.822-10.541 1.807-16.219zM224.882 84.851a4.94 4.94 0 0 1 4.94-4.94h6.643a4.94 4.94 0 0 1 4.94 4.94v27.296a4.94 4.94 0 0 1-4.94 4.94h-6.643a4.94 4.94 0 0 1-4.94-4.94V84.851zm-76.927 27.426a4.941 4.941 0 0 1 6.988.001l14.446 14.455a4.941 4.941 0 0 1-.001 6.986l-4.694 4.695a4.941 4.941 0 0 1-6.989-.001l-14.445-14.456a4.942 4.942 0 0 1 .001-6.986l4.694-4.694zm136.612 178.259v12.193c0 15.756-10.297 29.009-24.494 33.771v13.689c0 7.646-6.182 13.851-13.842 13.851h-26.174c-7.665 0-13.842-6.205-13.842-13.851V336.5c-14.201-4.762-24.494-18.016-24.494-33.771v-12.193c-19.264-16.982-28.834-42.047-25.72-67.848 4.259-35.236 32.949-63.677 68.252-67.606 46.935-5.196 86.615 31.458 86.615 77.238 0 22.437-9.538 43.431-26.301 58.216zm24.02-153.755a4.939 4.939 0 0 1-6.988.001l-4.695-4.695a4.939 4.939 0 0 1-.001-6.984l14.442-14.454a4.939 4.939 0 0 1 6.988-.001l4.695 4.696a4.94 4.94 0 0 1 .001 6.984l-14.442 14.453z"/></svg>