<svg xmlns="http://www.w3.org/2000/svg" viewBox="0 0 278.004 278.004"><path d="M119.818 152.941a6 6 0 0 0 0-12H116.3V90.714a6 6 0 0 0-12 0v50.227h-7.465V83.358a6 6 0 0 0-12 0v57.583h-7.464v-28.698a6 6 0 0 0-12 0v28.698h-1.23a6 6 0 0 0 0 12h55.677z"/><path d="M275.913 143.728l-25.422-42.021c-3.244-5.36-9.15-8.69-15.415-8.69h-61.571V56.249c6.034-1.784 10.453-7.368 10.453-13.973 0-8.037-6.538-14.576-14.575-14.576H14.575C6.538 27.701 0 34.239 0 42.277c0 6.605 4.419 12.189 10.453 13.973v117.385a6 6 0 0 0 6 6h45.01l-13.88 58.669H40.79a6 6 0 0 0 0 12h19.617a6 6 0 0 0 0-12h-.493l13.88-58.669h36.37l13.88 58.669h-.493a6 6 0 0 0 0 12h19.617a6 6 0 0 0 0-12h-6.793l-13.88-58.669h45.009a6 6 0 0 0 6-6v-51.729h22.625v120.872a6 6 0 0 0 6 6h39.722a6 6 0 0 0 6-6v-89.625l3.345 5.529c4.124 6.813 13.021 9.005 19.835 4.881 3.301-1.997 5.627-5.16 6.549-8.906s.33-7.628-1.667-10.929zm-9.985 8.061a2.429 2.429 0 0 1-1.107 1.506 2.447 2.447 0 0 1-3.356-.825l-14.479-23.934a6 6 0 1 0-11.134 3.105V160.3H208.13v-44.395a6 6 0 0 0-6-6h-55.886c-1.348 0-2.444-1.096-2.444-2.444s1.097-2.444 2.444-2.444h69.746v39.045a6 6 0 0 0 12 0v-39.045h7.086a6.052 6.052 0 0 1 5.148 2.903l25.421 42.02c.457.754.374 1.482.283 1.849zm-43.938 26.472a6 6 0 0 0-6 6v52.517h-7.86V172.3h27.722v64.478h-7.861v-52.517a6.001 6.001 0 0 0-6.001-6zM14.575 39.701h154.808c1.42 0 2.575 1.155 2.575 2.576s-1.155 2.576-2.575 2.576H14.575c-1.42 0-2.575-1.155-2.575-2.576s1.155-2.576 2.575-2.576zm7.878 17.151h139.052v36.166h-15.261c-7.965 0-14.444 6.479-14.444 14.444s6.479 14.444 14.444 14.444h15.261v45.729H22.453V56.852z"/><path d="M221.99 87.997c11.896 0 21.573-9.678 21.573-21.573s-9.678-21.572-21.573-21.572-21.572 9.677-21.572 21.572 9.678 21.573 21.572 21.573zm0-31.145c5.278 0 9.573 4.294 9.573 9.572s-4.295 9.573-9.573 9.573-9.572-4.294-9.572-9.573 4.294-9.572 9.572-9.572z"/></svg>