<svg xmlns="http://www.w3.org/2000/svg" viewBox="0 0 229.748 229.748"><path d="M223.447 0h-63.279a6 6 0 0 0-6 6v63.279a6 6 0 0 0 6 6h63.279a6 6 0 0 0 6-6V6a6 6 0 0 0-6-6zm-6 63.279h-51.279V12h51.279v51.279zm-25.64 91.19c-20.754 0-37.639 16.885-37.639 37.64s16.885 37.639 37.639 37.639 37.64-16.885 37.64-37.639-16.885-37.64-37.64-37.64zm0 63.279c-14.138 0-25.639-11.501-25.639-25.639s11.501-25.64 25.639-25.64 25.64 11.502 25.64 25.64-11.502 25.639-25.64 25.639zM37.941 154.469c-20.754 0-37.64 16.885-37.64 37.64s16.885 37.639 37.64 37.639 37.639-16.885 37.639-37.639-16.885-37.64-37.639-37.64zm0 63.279c-14.138 0-25.64-11.501-25.64-25.639s11.502-25.64 25.64-25.64 25.639 11.502 25.639 25.64-11.501 25.639-25.639 25.639zm153.866-69.312a6 6 0 0 0 6-6V105.07l6.642 6.642c1.172 1.171 2.707 1.757 4.243 1.757s3.071-.586 4.243-1.757a6 6 0 0 0 0-8.485L196.05 86.342a6 6 0 0 0-8.485 0l-16.884 16.884a6 6 0 0 0 8.485 8.485l6.642-6.642v37.366a5.999 5.999 0 0 0 5.999 6.001zm-152.775-2.789c1.171 1.171 2.707 1.757 4.243 1.757s3.071-.586 4.243-1.757l16.885-16.885a6 6 0 0 0-8.485-8.485l-6.58 6.58c1.304-44.309 39.097-79.974 85.4-79.974a6 6 0 0 0 0-12c-52.958 0-96.183 41.094-97.432 92.066l-6.672-6.672a6 6 0 0 0-8.485 8.485l16.883 16.885zm91.233 25.181a6 6 0 0 0-8.485 8.485l6.642 6.642H88.328a6 6 0 0 0 0 12h40.094l-6.642 6.642a6 6 0 1 0 8.486 8.485l16.884-16.885a6 6 0 0 0 0-8.485l-16.885-16.884z"/></svg>