<svg xmlns="http://www.w3.org/2000/svg" viewBox="0 0 1000 1000"><path d="M404.1 9.99C263.71 22.84 140.59 100.13 68.67 220.76c-27.43 46.03-45.84 97.81-55.23 155.35-4.6 29.53-4.6 95.32.19 124.66 13.23 81.89 45.26 152.66 96.66 213.84C210.97 834.67 369.19 890.1 523 859.22c51.59-10.36 108.36-33.95 151.51-62.91l22.05-14.96 98.77 99.73c107.59 108.55 106.06 107.4 129.65 109.32 24.17 1.92 46.03-10.17 58.11-32.22 6.33-11.51 6.9-13.62 6.9-28.77-.19-27.43 3.84-22.63-108.74-134.25l-99.73-98.77 14.96-22.05c48.52-72.11 74.6-163.98 71.15-250.28-4.6-108.74-45.26-205.02-120.06-283.46-42.38-44.49-102.22-83.62-161.29-105.48-22.25-8.25-57.34-17.26-84.39-21.48-19.35-3.07-79.38-5.37-97.79-3.65zm92.63 127.35c124.09 24.36 219.79 121.4 244.14 247.4 5.37 27.62 4.79 84-.96 111.24-13.23 63.29-41.04 115.45-84.77 158.99-82.28 82.47-203.29 111.04-313.57 74.03-105.29-35.1-182.38-123.32-204.44-233.6-6.14-30.88-6.14-83.04 0-113.92 26.85-134.44 135.78-234.17 271.76-248.74 18.41-1.92 67.7.57 87.84 4.6z"/></svg>